G04 #@! TF.FileFunction,Copper,L1,Top,Signal*
%FSLAX46Y46*%
G04 Gerber Fmt 4.6, Leading zero omitted, Abs format (unit mm)*
G04 Created by KiCad (PCBNEW 4.0.7) date 06/25/19 19:36:15*
%MOMM*%
%LPD*%
G01*
G04 APERTURE LIST*
%ADD10C,0.100000*%
%ADD11C,3.000000*%
%ADD12R,3.000000X3.000000*%
%ADD13R,2.000000X2.000000*%
%ADD14C,2.000000*%
%ADD15C,1.600000*%
%ADD16R,1.600000X1.600000*%
%ADD17R,1.700000X2.000000*%
%ADD18R,1.700000X1.700000*%
%ADD19O,1.700000X1.700000*%
%ADD20R,1.600000X0.550000*%
%ADD21R,0.550000X1.600000*%
%ADD22O,1.600000X1.600000*%
%ADD23R,2.400000X3.500000*%
%ADD24C,0.600000*%
%ADD25C,0.250000*%
%ADD26C,0.500000*%
%ADD27C,0.254000*%
G04 APERTURE END LIST*
D10*
D11*
X134112000Y-80772000D03*
X129032000Y-80772000D03*
D12*
X139192000Y-80772000D03*
D11*
X123952000Y-80772000D03*
D13*
X114300000Y-128524000D03*
D14*
X106700000Y-128524000D03*
D15*
X106172000Y-112776000D03*
X106172000Y-115276000D03*
X109728000Y-112776000D03*
X109728000Y-115276000D03*
D16*
X172720000Y-129540000D03*
D15*
X175220000Y-129540000D03*
D16*
X161036000Y-94488000D03*
D15*
X161036000Y-96988000D03*
X128524000Y-111252000D03*
X126024000Y-111252000D03*
X106680000Y-91948000D03*
X106680000Y-94448000D03*
X110236000Y-91948000D03*
X110236000Y-94448000D03*
X128524000Y-116332000D03*
X126024000Y-116332000D03*
D17*
X135636000Y-132048000D03*
X135636000Y-128048000D03*
X138684000Y-132048000D03*
X138684000Y-128048000D03*
D12*
X105664000Y-99060000D03*
D11*
X105664000Y-104140000D03*
D18*
X169672000Y-80772000D03*
D19*
X169672000Y-83312000D03*
X169672000Y-85852000D03*
X169672000Y-88392000D03*
D18*
X177800000Y-80772000D03*
D19*
X177800000Y-83312000D03*
X177800000Y-85852000D03*
D18*
X173736000Y-80772000D03*
D19*
X173736000Y-83312000D03*
X173736000Y-85852000D03*
D18*
X181864000Y-80772000D03*
D19*
X181864000Y-83312000D03*
X181864000Y-85852000D03*
X181864000Y-88392000D03*
X181864000Y-90932000D03*
D12*
X183388000Y-108712000D03*
D11*
X183388000Y-103632000D03*
D12*
X183388000Y-119888000D03*
D11*
X183388000Y-114808000D03*
D18*
X152400000Y-124460000D03*
D19*
X152400000Y-127000000D03*
X149860000Y-124460000D03*
X149860000Y-127000000D03*
X147320000Y-124460000D03*
X147320000Y-127000000D03*
D18*
X151892000Y-81280000D03*
D19*
X154432000Y-81280000D03*
X156972000Y-81280000D03*
X159512000Y-81280000D03*
D18*
X159512000Y-86360000D03*
D19*
X156972000Y-86360000D03*
X154432000Y-86360000D03*
D14*
X132588000Y-95940000D03*
X132588000Y-91440000D03*
X139088000Y-95940000D03*
X139088000Y-91440000D03*
D20*
X140530000Y-106420000D03*
X140530000Y-107220000D03*
X140530000Y-108020000D03*
X140530000Y-108820000D03*
X140530000Y-109620000D03*
X140530000Y-110420000D03*
X140530000Y-111220000D03*
X140530000Y-112020000D03*
D21*
X141980000Y-113470000D03*
X142780000Y-113470000D03*
X143580000Y-113470000D03*
X144380000Y-113470000D03*
X145180000Y-113470000D03*
X145980000Y-113470000D03*
X146780000Y-113470000D03*
X147580000Y-113470000D03*
D20*
X149030000Y-112020000D03*
X149030000Y-111220000D03*
X149030000Y-110420000D03*
X149030000Y-109620000D03*
X149030000Y-108820000D03*
X149030000Y-108020000D03*
X149030000Y-107220000D03*
X149030000Y-106420000D03*
D21*
X147580000Y-104970000D03*
X146780000Y-104970000D03*
X145980000Y-104970000D03*
X145180000Y-104970000D03*
X144380000Y-104970000D03*
X143580000Y-104970000D03*
X142780000Y-104970000D03*
X141980000Y-104970000D03*
D16*
X170688000Y-121412000D03*
D22*
X163068000Y-103632000D03*
X170688000Y-118872000D03*
X163068000Y-106172000D03*
X170688000Y-116332000D03*
X163068000Y-108712000D03*
X170688000Y-113792000D03*
X163068000Y-111252000D03*
X170688000Y-111252000D03*
X163068000Y-113792000D03*
X170688000Y-108712000D03*
X163068000Y-116332000D03*
X170688000Y-106172000D03*
X163068000Y-118872000D03*
X170688000Y-103632000D03*
X163068000Y-121412000D03*
D23*
X132588000Y-111192000D03*
X132588000Y-116392000D03*
D24*
X116840000Y-89408000D03*
X121920000Y-118872000D03*
X151384000Y-109728000D03*
X135636000Y-125476000D03*
X138684000Y-125476000D03*
X163576000Y-91440000D03*
X153416000Y-103124000D03*
X145796000Y-110744000D03*
X165100000Y-90424000D03*
X166624000Y-89408000D03*
X174244000Y-119888000D03*
X164084000Y-124968000D03*
X173736000Y-124460000D03*
X176784000Y-114808000D03*
X148336000Y-115824000D03*
X150876000Y-115824000D03*
X153416000Y-121412000D03*
X146812000Y-115316000D03*
X123952000Y-106172000D03*
X133604000Y-124460000D03*
X144272000Y-101600000D03*
X138176000Y-107188000D03*
X140716000Y-113792000D03*
X146304000Y-117856000D03*
X145796000Y-111760000D03*
X160020000Y-102108000D03*
X151384000Y-110744000D03*
X145288000Y-115316000D03*
D25*
X114300000Y-128524000D02*
X128016000Y-128524000D01*
X142780000Y-114776000D02*
X142780000Y-113470000D01*
X142240000Y-115316000D02*
X142780000Y-114776000D01*
X141224000Y-115316000D02*
X142240000Y-115316000D01*
X128016000Y-128524000D02*
X141224000Y-115316000D01*
X149030000Y-108820000D02*
X144380000Y-108820000D01*
X143580000Y-108020000D02*
X140530000Y-108020000D01*
X144380000Y-108820000D02*
X143580000Y-108020000D01*
X140530000Y-108020000D02*
X138868000Y-108020000D01*
X139084000Y-109620000D02*
X140530000Y-109620000D01*
X138684000Y-109220000D02*
X139084000Y-109620000D01*
X138684000Y-108204000D02*
X138684000Y-109220000D01*
X138868000Y-108020000D02*
X138684000Y-108204000D01*
D26*
X143732000Y-127000000D02*
X147320000Y-127000000D01*
X138684000Y-132048000D02*
X143732000Y-127000000D01*
X135636000Y-132048000D02*
X138684000Y-132048000D01*
X163068000Y-113792000D02*
X170688000Y-113792000D01*
X163068000Y-111252000D02*
X163068000Y-113792000D01*
X170688000Y-111252000D02*
X170688000Y-113792000D01*
X126024000Y-111252000D02*
X126024000Y-116332000D01*
X105664000Y-104140000D02*
X108204000Y-104140000D01*
X108204000Y-104140000D02*
X116840000Y-95504000D01*
X116840000Y-95504000D02*
X116840000Y-89408000D01*
D25*
X149030000Y-111220000D02*
X147796000Y-111220000D01*
X146304000Y-109728000D02*
X142240000Y-109728000D01*
X147796000Y-111220000D02*
X146304000Y-109728000D01*
X140530000Y-108820000D02*
X141840000Y-108820000D01*
X141548000Y-110420000D02*
X140530000Y-110420000D01*
X142240000Y-109728000D02*
X141548000Y-110420000D01*
X142240000Y-109220000D02*
X142240000Y-109728000D01*
X141840000Y-108820000D02*
X142240000Y-109220000D01*
D26*
X138360000Y-110420000D02*
X140530000Y-110420000D01*
X135636000Y-107696000D02*
X138360000Y-110420000D01*
X123952000Y-107696000D02*
X135636000Y-107696000D01*
X121920000Y-109728000D02*
X123952000Y-107696000D01*
X121920000Y-118872000D02*
X121920000Y-109728000D01*
D25*
X151276000Y-109620000D02*
X149030000Y-109620000D01*
X151384000Y-109728000D02*
X151276000Y-109620000D01*
D26*
X128524000Y-111252000D02*
X132528000Y-111252000D01*
X132528000Y-111252000D02*
X132588000Y-111192000D01*
D25*
X132588000Y-111192000D02*
X140502000Y-111192000D01*
X140502000Y-111192000D02*
X140530000Y-111220000D01*
X132528000Y-111252000D02*
X132588000Y-111192000D01*
X132588000Y-116392000D02*
X134052000Y-116392000D01*
X134052000Y-116392000D02*
X138424000Y-112020000D01*
X138424000Y-112020000D02*
X140530000Y-112020000D01*
D26*
X128524000Y-116332000D02*
X132528000Y-116332000D01*
X132528000Y-116332000D02*
X132588000Y-116392000D01*
D25*
X132528000Y-116332000D02*
X132588000Y-116392000D01*
D26*
X135636000Y-125476000D02*
X135636000Y-128048000D01*
X138684000Y-128048000D02*
X138684000Y-125476000D01*
D25*
X144380000Y-113470000D02*
X144380000Y-112160000D01*
X160020000Y-91440000D02*
X163576000Y-91440000D01*
X153416000Y-98044000D02*
X160020000Y-91440000D01*
X153416000Y-103124000D02*
X153416000Y-98044000D01*
X144380000Y-112160000D02*
X145796000Y-110744000D01*
X149030000Y-107220000D02*
X150336000Y-107220000D01*
X160020000Y-90424000D02*
X165100000Y-90424000D01*
X152400000Y-98044000D02*
X160020000Y-90424000D01*
X152400000Y-105156000D02*
X152400000Y-98044000D01*
X150336000Y-107220000D02*
X152400000Y-105156000D01*
X149030000Y-106420000D02*
X149030000Y-99890000D01*
X159512000Y-89408000D02*
X166624000Y-89408000D01*
X149030000Y-99890000D02*
X159512000Y-89408000D01*
X147580000Y-104970000D02*
X147580000Y-99816000D01*
X159004000Y-88392000D02*
X169672000Y-88392000D01*
X147580000Y-99816000D02*
X159004000Y-88392000D01*
D26*
X183388000Y-108712000D02*
X178308000Y-108712000D01*
X178308000Y-108712000D02*
X170688000Y-116332000D01*
X183388000Y-103632000D02*
X177800000Y-103632000D01*
X172720000Y-108712000D02*
X170688000Y-108712000D01*
X177800000Y-103632000D02*
X172720000Y-108712000D01*
X165100000Y-117856000D02*
X163576000Y-116332000D01*
X165100000Y-120396000D02*
X165100000Y-117856000D01*
X168656000Y-123952000D02*
X165100000Y-120396000D01*
X172212000Y-123952000D02*
X168656000Y-123952000D01*
X172720000Y-123444000D02*
X172212000Y-123952000D01*
X172720000Y-121412000D02*
X172720000Y-123444000D01*
X174244000Y-119888000D02*
X172720000Y-121412000D01*
X163576000Y-116332000D02*
X163068000Y-116332000D01*
D25*
X134112000Y-80772000D02*
X134112000Y-85344000D01*
X137160000Y-100150000D02*
X141980000Y-104970000D01*
X137160000Y-88392000D02*
X137160000Y-100150000D01*
X134112000Y-85344000D02*
X137160000Y-88392000D01*
X129032000Y-80772000D02*
X129032000Y-82804000D01*
X135636000Y-101526000D02*
X140530000Y-106420000D01*
X135636000Y-89408000D02*
X135636000Y-101526000D01*
X129032000Y-82804000D02*
X135636000Y-89408000D01*
X163576000Y-124460000D02*
X152400000Y-124460000D01*
X164084000Y-124968000D02*
X163576000Y-124460000D01*
X176784000Y-121412000D02*
X173736000Y-124460000D01*
X176784000Y-114808000D02*
X176784000Y-121412000D01*
X152400000Y-124460000D02*
X152400000Y-117348000D01*
X147580000Y-115068000D02*
X147580000Y-113470000D01*
X148336000Y-115824000D02*
X147580000Y-115068000D01*
X152400000Y-117348000D02*
X150876000Y-115824000D01*
X163068000Y-106172000D02*
X162052000Y-106172000D01*
X153416000Y-114808000D02*
X153416000Y-121412000D01*
X162052000Y-106172000D02*
X153416000Y-114808000D01*
X149860000Y-124460000D02*
X149860000Y-112850000D01*
X149860000Y-112850000D02*
X149030000Y-112020000D01*
X170688000Y-118872000D02*
X172720000Y-118872000D01*
X151892000Y-129032000D02*
X149860000Y-127000000D01*
X168148000Y-129032000D02*
X151892000Y-129032000D01*
X176276000Y-120904000D02*
X168148000Y-129032000D01*
X176276000Y-120396000D02*
X176276000Y-120904000D01*
X174244000Y-118364000D02*
X176276000Y-120396000D01*
X173228000Y-118364000D02*
X174244000Y-118364000D01*
X172720000Y-118872000D02*
X173228000Y-118364000D01*
X146780000Y-115284000D02*
X146780000Y-113470000D01*
X146812000Y-115316000D02*
X146780000Y-115284000D01*
X147320000Y-124460000D02*
X133604000Y-124460000D01*
X124460000Y-99568000D02*
X132588000Y-91440000D01*
X124460000Y-105664000D02*
X124460000Y-99568000D01*
X123952000Y-106172000D02*
X124460000Y-105664000D01*
X144380000Y-104970000D02*
X144380000Y-101708000D01*
X144380000Y-101708000D02*
X144272000Y-101600000D01*
X142780000Y-104970000D02*
X142780000Y-92932000D01*
X142780000Y-92932000D02*
X154432000Y-81280000D01*
X143580000Y-104970000D02*
X143580000Y-93656000D01*
X155448000Y-82804000D02*
X156972000Y-81280000D01*
X154432000Y-82804000D02*
X155448000Y-82804000D01*
X143580000Y-93656000D02*
X154432000Y-82804000D01*
X145980000Y-104970000D02*
X145980000Y-97352000D01*
X145980000Y-97352000D02*
X156972000Y-86360000D01*
X145180000Y-104970000D02*
X145180000Y-95612000D01*
X145180000Y-95612000D02*
X154432000Y-86360000D01*
X138208000Y-107220000D02*
X140530000Y-107220000D01*
X138176000Y-107188000D02*
X138208000Y-107220000D01*
X141038000Y-113470000D02*
X141980000Y-113470000D01*
X140716000Y-113792000D02*
X141038000Y-113470000D01*
X143580000Y-115132000D02*
X143580000Y-113470000D01*
X146304000Y-117856000D02*
X143580000Y-115132000D01*
X145180000Y-113470000D02*
X145180000Y-112376000D01*
X145180000Y-112376000D02*
X145796000Y-111760000D01*
X160020000Y-102108000D02*
X151384000Y-110744000D01*
X145288000Y-115316000D02*
X145980000Y-114624000D01*
X145980000Y-114624000D02*
X145980000Y-113470000D01*
D27*
G36*
X186309000Y-80308549D02*
X186309000Y-132535394D01*
X185241601Y-133602793D01*
X185636723Y-133011451D01*
X185822000Y-132080000D01*
X185636723Y-131148549D01*
X185109098Y-130358902D01*
X184319451Y-129831277D01*
X183388000Y-129646000D01*
X182456549Y-129831277D01*
X181666902Y-130358902D01*
X181139277Y-131148549D01*
X180954000Y-132080000D01*
X181139277Y-133011451D01*
X181666902Y-133801098D01*
X182456549Y-134328723D01*
X183388000Y-134514000D01*
X184319451Y-134328723D01*
X184910793Y-133933601D01*
X183843394Y-135001000D01*
X105716606Y-135001000D01*
X103251000Y-132535394D01*
X103251000Y-132105250D01*
X134559000Y-132105250D01*
X134559000Y-133093153D01*
X134593559Y-133176585D01*
X134657415Y-133240441D01*
X134740847Y-133275000D01*
X135578750Y-133275000D01*
X135635500Y-133218250D01*
X135635500Y-132048500D01*
X135636500Y-132048500D01*
X135636500Y-133218250D01*
X135693250Y-133275000D01*
X136531153Y-133275000D01*
X136614585Y-133240441D01*
X136678441Y-133176585D01*
X136713000Y-133093153D01*
X136713000Y-132105250D01*
X137607000Y-132105250D01*
X137607000Y-133093153D01*
X137641559Y-133176585D01*
X137705415Y-133240441D01*
X137788847Y-133275000D01*
X138626750Y-133275000D01*
X138683500Y-133218250D01*
X138683500Y-132048500D01*
X138684500Y-132048500D01*
X138684500Y-133218250D01*
X138741250Y-133275000D01*
X139579153Y-133275000D01*
X139662585Y-133240441D01*
X139726441Y-133176585D01*
X139761000Y-133093153D01*
X139761000Y-132105250D01*
X139704250Y-132048500D01*
X138684500Y-132048500D01*
X138683500Y-132048500D01*
X137663750Y-132048500D01*
X137607000Y-132105250D01*
X136713000Y-132105250D01*
X136656250Y-132048500D01*
X135636500Y-132048500D01*
X135635500Y-132048500D01*
X134615750Y-132048500D01*
X134559000Y-132105250D01*
X103251000Y-132105250D01*
X103251000Y-131002847D01*
X134559000Y-131002847D01*
X134559000Y-131990750D01*
X134615750Y-132047500D01*
X135635500Y-132047500D01*
X135635500Y-130877750D01*
X135636500Y-130877750D01*
X135636500Y-132047500D01*
X136656250Y-132047500D01*
X136713000Y-131990750D01*
X136713000Y-131002847D01*
X137607000Y-131002847D01*
X137607000Y-131990750D01*
X137663750Y-132047500D01*
X138683500Y-132047500D01*
X138683500Y-130877750D01*
X138684500Y-130877750D01*
X138684500Y-132047500D01*
X139704250Y-132047500D01*
X139761000Y-131990750D01*
X139761000Y-131002847D01*
X139726441Y-130919415D01*
X139662585Y-130855559D01*
X139579153Y-130821000D01*
X138741250Y-130821000D01*
X138684500Y-130877750D01*
X138683500Y-130877750D01*
X138626750Y-130821000D01*
X137788847Y-130821000D01*
X137705415Y-130855559D01*
X137641559Y-130919415D01*
X137607000Y-131002847D01*
X136713000Y-131002847D01*
X136678441Y-130919415D01*
X136614585Y-130855559D01*
X136531153Y-130821000D01*
X135693250Y-130821000D01*
X135636500Y-130877750D01*
X135635500Y-130877750D01*
X135578750Y-130821000D01*
X134740847Y-130821000D01*
X134657415Y-130855559D01*
X134593559Y-130919415D01*
X134559000Y-131002847D01*
X103251000Y-131002847D01*
X103251000Y-129368843D01*
X105855864Y-129368843D01*
X105965063Y-129536404D01*
X106408437Y-129740588D01*
X106896198Y-129759557D01*
X107354091Y-129590425D01*
X107434937Y-129536404D01*
X107544136Y-129368843D01*
X106700000Y-128524707D01*
X105855864Y-129368843D01*
X103251000Y-129368843D01*
X103251000Y-128720198D01*
X105464443Y-128720198D01*
X105633575Y-129178091D01*
X105687596Y-129258937D01*
X105855157Y-129368136D01*
X106699293Y-128524000D01*
X106700707Y-128524000D01*
X107544843Y-129368136D01*
X107712404Y-129258937D01*
X107916588Y-128815563D01*
X107935557Y-128327802D01*
X107766425Y-127869909D01*
X107712404Y-127789063D01*
X107544843Y-127679864D01*
X106700707Y-128524000D01*
X106699293Y-128524000D01*
X105855157Y-127679864D01*
X105687596Y-127789063D01*
X105483412Y-128232437D01*
X105464443Y-128720198D01*
X103251000Y-128720198D01*
X103251000Y-127679157D01*
X105855864Y-127679157D01*
X106700000Y-128523293D01*
X107544136Y-127679157D01*
X107443021Y-127524000D01*
X112966594Y-127524000D01*
X112966594Y-129524000D01*
X112989395Y-129645179D01*
X113061012Y-129756474D01*
X113170286Y-129831138D01*
X113300000Y-129857406D01*
X115300000Y-129857406D01*
X115421179Y-129834605D01*
X115532474Y-129762988D01*
X115607138Y-129653714D01*
X115633406Y-129524000D01*
X115633406Y-128976000D01*
X128016000Y-128976000D01*
X128188973Y-128941594D01*
X128335612Y-128843612D01*
X133071281Y-124107943D01*
X132977109Y-124334735D01*
X132976891Y-124584171D01*
X133072145Y-124814703D01*
X133248369Y-124991235D01*
X133478735Y-125086891D01*
X133728171Y-125087109D01*
X133958703Y-124991855D01*
X134038698Y-124912000D01*
X135359094Y-124912000D01*
X135281297Y-124944145D01*
X135104765Y-125120369D01*
X135009109Y-125350735D01*
X135008891Y-125600171D01*
X135059000Y-125721444D01*
X135059000Y-126714594D01*
X134786000Y-126714594D01*
X134664821Y-126737395D01*
X134553526Y-126809012D01*
X134478862Y-126918286D01*
X134452594Y-127048000D01*
X134452594Y-129048000D01*
X134475395Y-129169179D01*
X134547012Y-129280474D01*
X134656286Y-129355138D01*
X134786000Y-129381406D01*
X136486000Y-129381406D01*
X136607179Y-129358605D01*
X136718474Y-129286988D01*
X136793138Y-129177714D01*
X136819406Y-129048000D01*
X136819406Y-127048000D01*
X136796605Y-126926821D01*
X136724988Y-126815526D01*
X136615714Y-126740862D01*
X136486000Y-126714594D01*
X136213000Y-126714594D01*
X136213000Y-125721416D01*
X136262891Y-125601265D01*
X136263109Y-125351829D01*
X136167855Y-125121297D01*
X135991631Y-124944765D01*
X135912724Y-124912000D01*
X138407094Y-124912000D01*
X138329297Y-124944145D01*
X138152765Y-125120369D01*
X138057109Y-125350735D01*
X138056891Y-125600171D01*
X138107000Y-125721444D01*
X138107000Y-126714594D01*
X137834000Y-126714594D01*
X137712821Y-126737395D01*
X137601526Y-126809012D01*
X137526862Y-126918286D01*
X137500594Y-127048000D01*
X137500594Y-129048000D01*
X137523395Y-129169179D01*
X137595012Y-129280474D01*
X137704286Y-129355138D01*
X137834000Y-129381406D01*
X139534000Y-129381406D01*
X139655179Y-129358605D01*
X139766474Y-129286988D01*
X139841138Y-129177714D01*
X139867406Y-129048000D01*
X139867406Y-127168974D01*
X146256338Y-127168974D01*
X146401968Y-127563157D01*
X146687360Y-127871605D01*
X147069066Y-128047359D01*
X147151026Y-128063662D01*
X147319500Y-128020250D01*
X147319500Y-127000500D01*
X147320500Y-127000500D01*
X147320500Y-128020250D01*
X147488974Y-128063662D01*
X147570934Y-128047359D01*
X147952640Y-127871605D01*
X148238032Y-127563157D01*
X148383662Y-127168974D01*
X148340250Y-127000500D01*
X147320500Y-127000500D01*
X147319500Y-127000500D01*
X146299750Y-127000500D01*
X146256338Y-127168974D01*
X139867406Y-127168974D01*
X139867406Y-127048000D01*
X139844605Y-126926821D01*
X139782963Y-126831026D01*
X146256338Y-126831026D01*
X146299750Y-126999500D01*
X147319500Y-126999500D01*
X147319500Y-125979750D01*
X147320500Y-125979750D01*
X147320500Y-126999500D01*
X148340250Y-126999500D01*
X148346062Y-126976941D01*
X148683000Y-126976941D01*
X148683000Y-127023059D01*
X148772594Y-127473477D01*
X149027735Y-127855324D01*
X149409582Y-128110465D01*
X149860000Y-128200059D01*
X150310418Y-128110465D01*
X150322900Y-128102124D01*
X151572388Y-129351612D01*
X151719027Y-129449594D01*
X151892000Y-129484000D01*
X168148000Y-129484000D01*
X168320973Y-129449594D01*
X168467612Y-129351612D01*
X169079224Y-128740000D01*
X171586594Y-128740000D01*
X171586594Y-130340000D01*
X171609395Y-130461179D01*
X171681012Y-130572474D01*
X171790286Y-130647138D01*
X171920000Y-130673406D01*
X173520000Y-130673406D01*
X173641179Y-130650605D01*
X173752474Y-130578988D01*
X173827138Y-130469714D01*
X173853406Y-130340000D01*
X173853406Y-130240651D01*
X174520056Y-130240651D01*
X174604923Y-130387432D01*
X174976041Y-130558304D01*
X175384300Y-130574150D01*
X175767545Y-130432555D01*
X175835077Y-130387432D01*
X175919944Y-130240651D01*
X175220000Y-129540707D01*
X174520056Y-130240651D01*
X173853406Y-130240651D01*
X173853406Y-129704300D01*
X174185850Y-129704300D01*
X174327445Y-130087545D01*
X174372568Y-130155077D01*
X174519349Y-130239944D01*
X175219293Y-129540000D01*
X175220707Y-129540000D01*
X175920651Y-130239944D01*
X176067432Y-130155077D01*
X176238304Y-129783959D01*
X176254150Y-129375700D01*
X176112555Y-128992455D01*
X176067432Y-128924923D01*
X175920651Y-128840056D01*
X175220707Y-129540000D01*
X175219293Y-129540000D01*
X174519349Y-128840056D01*
X174372568Y-128924923D01*
X174201696Y-129296041D01*
X174185850Y-129704300D01*
X173853406Y-129704300D01*
X173853406Y-128839349D01*
X174520056Y-128839349D01*
X175220000Y-129539293D01*
X175919944Y-128839349D01*
X175835077Y-128692568D01*
X175463959Y-128521696D01*
X175055700Y-128505850D01*
X174672455Y-128647445D01*
X174604923Y-128692568D01*
X174520056Y-128839349D01*
X173853406Y-128839349D01*
X173853406Y-128740000D01*
X173830605Y-128618821D01*
X173758988Y-128507526D01*
X173649714Y-128432862D01*
X173520000Y-128406594D01*
X171920000Y-128406594D01*
X171798821Y-128429395D01*
X171687526Y-128501012D01*
X171612862Y-128610286D01*
X171586594Y-128740000D01*
X169079224Y-128740000D01*
X173145779Y-124673445D01*
X173204145Y-124814703D01*
X173380369Y-124991235D01*
X173610735Y-125086891D01*
X173860171Y-125087109D01*
X174090703Y-124991855D01*
X174267235Y-124815631D01*
X174362891Y-124585265D01*
X174362990Y-124472234D01*
X177103612Y-121731612D01*
X177201594Y-121584973D01*
X177236000Y-121412000D01*
X177236000Y-118388000D01*
X181554594Y-118388000D01*
X181554594Y-121388000D01*
X181577395Y-121509179D01*
X181649012Y-121620474D01*
X181758286Y-121695138D01*
X181888000Y-121721406D01*
X184888000Y-121721406D01*
X185009179Y-121698605D01*
X185120474Y-121626988D01*
X185195138Y-121517714D01*
X185221406Y-121388000D01*
X185221406Y-118388000D01*
X185198605Y-118266821D01*
X185126988Y-118155526D01*
X185017714Y-118080862D01*
X184888000Y-118054594D01*
X181888000Y-118054594D01*
X181766821Y-118077395D01*
X181655526Y-118149012D01*
X181580862Y-118258286D01*
X181554594Y-118388000D01*
X177236000Y-118388000D01*
X177236000Y-115242728D01*
X177309037Y-115169818D01*
X181560684Y-115169818D01*
X181838242Y-115841560D01*
X182351736Y-116355952D01*
X183022993Y-116634682D01*
X183749818Y-116635316D01*
X184421560Y-116357758D01*
X184935952Y-115844264D01*
X185214682Y-115173007D01*
X185215316Y-114446182D01*
X184937758Y-113774440D01*
X184424264Y-113260048D01*
X183753007Y-112981318D01*
X183026182Y-112980684D01*
X182354440Y-113258242D01*
X181840048Y-113771736D01*
X181561318Y-114442993D01*
X181560684Y-115169818D01*
X177309037Y-115169818D01*
X177315235Y-115163631D01*
X177410891Y-114933265D01*
X177411109Y-114683829D01*
X177315855Y-114453297D01*
X177139631Y-114276765D01*
X176909265Y-114181109D01*
X176659829Y-114180891D01*
X176429297Y-114276145D01*
X176252765Y-114452369D01*
X176157109Y-114682735D01*
X176156891Y-114932171D01*
X176252145Y-115162703D01*
X176332000Y-115242698D01*
X176332000Y-119812776D01*
X174563612Y-118044388D01*
X174416973Y-117946406D01*
X174244000Y-117912000D01*
X173228000Y-117912000D01*
X173083724Y-117940698D01*
X173055026Y-117946406D01*
X172908387Y-118044388D01*
X172532776Y-118420000D01*
X171737449Y-118420000D01*
X171506988Y-118075091D01*
X171141363Y-117830788D01*
X170710079Y-117745000D01*
X170665921Y-117745000D01*
X170234637Y-117830788D01*
X169869012Y-118075091D01*
X169624709Y-118440716D01*
X169538921Y-118872000D01*
X169624709Y-119303284D01*
X169869012Y-119668909D01*
X170234637Y-119913212D01*
X170665921Y-119999000D01*
X170710079Y-119999000D01*
X171141363Y-119913212D01*
X171506988Y-119668909D01*
X171737449Y-119324000D01*
X172720000Y-119324000D01*
X172892973Y-119289594D01*
X173039612Y-119191612D01*
X173415225Y-118816000D01*
X174056776Y-118816000D01*
X174596057Y-119355281D01*
X174369265Y-119261109D01*
X174119829Y-119260891D01*
X173889297Y-119356145D01*
X173712765Y-119532369D01*
X173662445Y-119653554D01*
X172311999Y-121003999D01*
X172186922Y-121191192D01*
X172142999Y-121412000D01*
X172143000Y-121412005D01*
X172143000Y-123204999D01*
X171972998Y-123375000D01*
X168895001Y-123375000D01*
X166132002Y-120612000D01*
X169554594Y-120612000D01*
X169554594Y-122212000D01*
X169577395Y-122333179D01*
X169649012Y-122444474D01*
X169758286Y-122519138D01*
X169888000Y-122545406D01*
X171488000Y-122545406D01*
X171609179Y-122522605D01*
X171720474Y-122450988D01*
X171795138Y-122341714D01*
X171821406Y-122212000D01*
X171821406Y-120612000D01*
X171798605Y-120490821D01*
X171726988Y-120379526D01*
X171617714Y-120304862D01*
X171488000Y-120278594D01*
X169888000Y-120278594D01*
X169766821Y-120301395D01*
X169655526Y-120373012D01*
X169580862Y-120482286D01*
X169554594Y-120612000D01*
X166132002Y-120612000D01*
X165677000Y-120156998D01*
X165677000Y-117856000D01*
X165659017Y-117765594D01*
X165633078Y-117635191D01*
X165542993Y-117500369D01*
X165508001Y-117447999D01*
X165507998Y-117447997D01*
X164392002Y-116332000D01*
X169538921Y-116332000D01*
X169624709Y-116763284D01*
X169869012Y-117128909D01*
X170234637Y-117373212D01*
X170665921Y-117459000D01*
X170710079Y-117459000D01*
X171141363Y-117373212D01*
X171506988Y-117128909D01*
X171751291Y-116763284D01*
X171837079Y-116332000D01*
X171781818Y-116054184D01*
X178547001Y-109289000D01*
X181554594Y-109289000D01*
X181554594Y-110212000D01*
X181577395Y-110333179D01*
X181649012Y-110444474D01*
X181758286Y-110519138D01*
X181888000Y-110545406D01*
X184888000Y-110545406D01*
X185009179Y-110522605D01*
X185120474Y-110450988D01*
X185195138Y-110341714D01*
X185221406Y-110212000D01*
X185221406Y-107212000D01*
X185198605Y-107090821D01*
X185126988Y-106979526D01*
X185017714Y-106904862D01*
X184888000Y-106878594D01*
X181888000Y-106878594D01*
X181766821Y-106901395D01*
X181655526Y-106973012D01*
X181580862Y-107082286D01*
X181554594Y-107212000D01*
X181554594Y-108135000D01*
X178308000Y-108135000D01*
X178087192Y-108178922D01*
X177899999Y-108303999D01*
X177899997Y-108304002D01*
X170951063Y-115252935D01*
X170710079Y-115205000D01*
X170665921Y-115205000D01*
X170234637Y-115290788D01*
X169869012Y-115535091D01*
X169624709Y-115900716D01*
X169538921Y-116332000D01*
X164392002Y-116332000D01*
X164173645Y-116113643D01*
X164131291Y-115900716D01*
X163886988Y-115535091D01*
X163521363Y-115290788D01*
X163090079Y-115205000D01*
X163045921Y-115205000D01*
X162614637Y-115290788D01*
X162249012Y-115535091D01*
X162004709Y-115900716D01*
X161918921Y-116332000D01*
X162004709Y-116763284D01*
X162249012Y-117128909D01*
X162614637Y-117373212D01*
X163045921Y-117459000D01*
X163090079Y-117459000D01*
X163521363Y-117373212D01*
X163689119Y-117261121D01*
X164523000Y-118095001D01*
X164523000Y-120395995D01*
X164522999Y-120396000D01*
X164566922Y-120616808D01*
X164691999Y-120804001D01*
X168247997Y-124359998D01*
X168247999Y-124360001D01*
X168360213Y-124434979D01*
X168435191Y-124485078D01*
X168656000Y-124529000D01*
X172011776Y-124529000D01*
X167960776Y-128580000D01*
X152079224Y-128580000D01*
X150951603Y-127452379D01*
X151037000Y-127023059D01*
X151037000Y-126976941D01*
X151223000Y-126976941D01*
X151223000Y-127023059D01*
X151312594Y-127473477D01*
X151567735Y-127855324D01*
X151949582Y-128110465D01*
X152400000Y-128200059D01*
X152850418Y-128110465D01*
X153232265Y-127855324D01*
X153487406Y-127473477D01*
X153577000Y-127023059D01*
X153577000Y-126976941D01*
X153487406Y-126526523D01*
X153232265Y-126144676D01*
X152850418Y-125889535D01*
X152400000Y-125799941D01*
X151949582Y-125889535D01*
X151567735Y-126144676D01*
X151312594Y-126526523D01*
X151223000Y-126976941D01*
X151037000Y-126976941D01*
X150947406Y-126526523D01*
X150692265Y-126144676D01*
X150310418Y-125889535D01*
X149860000Y-125799941D01*
X149409582Y-125889535D01*
X149027735Y-126144676D01*
X148772594Y-126526523D01*
X148683000Y-126976941D01*
X148346062Y-126976941D01*
X148383662Y-126831026D01*
X148238032Y-126436843D01*
X147952640Y-126128395D01*
X147570934Y-125952641D01*
X147488974Y-125936338D01*
X147320500Y-125979750D01*
X147319500Y-125979750D01*
X147151026Y-125936338D01*
X147069066Y-125952641D01*
X146687360Y-126128395D01*
X146401968Y-126436843D01*
X146256338Y-126831026D01*
X139782963Y-126831026D01*
X139772988Y-126815526D01*
X139663714Y-126740862D01*
X139534000Y-126714594D01*
X139261000Y-126714594D01*
X139261000Y-125721416D01*
X139310891Y-125601265D01*
X139311109Y-125351829D01*
X139215855Y-125121297D01*
X139039631Y-124944765D01*
X138960724Y-124912000D01*
X146228322Y-124912000D01*
X146232594Y-124933477D01*
X146487735Y-125315324D01*
X146869582Y-125570465D01*
X147320000Y-125660059D01*
X147770418Y-125570465D01*
X148152265Y-125315324D01*
X148407406Y-124933477D01*
X148497000Y-124483059D01*
X148497000Y-124436941D01*
X148407406Y-123986523D01*
X148152265Y-123604676D01*
X147770418Y-123349535D01*
X147320000Y-123259941D01*
X146869582Y-123349535D01*
X146487735Y-123604676D01*
X146232594Y-123986523D01*
X146228322Y-124008000D01*
X134038728Y-124008000D01*
X133959631Y-123928765D01*
X133729265Y-123833109D01*
X133479829Y-123832891D01*
X133252334Y-123926890D01*
X141411224Y-115768000D01*
X142240000Y-115768000D01*
X142412973Y-115733594D01*
X142559612Y-115635612D01*
X143099612Y-115095612D01*
X143128000Y-115053127D01*
X143128000Y-115132000D01*
X143162406Y-115304973D01*
X143260388Y-115451612D01*
X145676989Y-117868213D01*
X145676891Y-117980171D01*
X145772145Y-118210703D01*
X145948369Y-118387235D01*
X146178735Y-118482891D01*
X146428171Y-118483109D01*
X146658703Y-118387855D01*
X146835235Y-118211631D01*
X146930891Y-117981265D01*
X146931109Y-117731829D01*
X146835855Y-117501297D01*
X146659631Y-117324765D01*
X146429265Y-117229109D01*
X146316234Y-117229010D01*
X144935943Y-115848719D01*
X145162735Y-115942891D01*
X145412171Y-115943109D01*
X145642703Y-115847855D01*
X145819235Y-115671631D01*
X145914891Y-115441265D01*
X145914990Y-115328234D01*
X146279281Y-114963943D01*
X146185109Y-115190735D01*
X146184891Y-115440171D01*
X146280145Y-115670703D01*
X146456369Y-115847235D01*
X146686735Y-115942891D01*
X146936171Y-115943109D01*
X147166703Y-115847855D01*
X147343235Y-115671631D01*
X147402260Y-115529484D01*
X147708989Y-115836213D01*
X147708891Y-115948171D01*
X147804145Y-116178703D01*
X147980369Y-116355235D01*
X148210735Y-116450891D01*
X148460171Y-116451109D01*
X148690703Y-116355855D01*
X148867235Y-116179631D01*
X148962891Y-115949265D01*
X148963109Y-115699829D01*
X148867855Y-115469297D01*
X148691631Y-115292765D01*
X148461265Y-115197109D01*
X148348235Y-115197010D01*
X148032000Y-114880776D01*
X148032000Y-114544685D01*
X148087474Y-114508988D01*
X148162138Y-114399714D01*
X148188406Y-114270000D01*
X148188406Y-112670000D01*
X148178622Y-112618002D01*
X148230000Y-112628406D01*
X148999182Y-112628406D01*
X149408000Y-113037224D01*
X149408000Y-123350592D01*
X149027735Y-123604676D01*
X148772594Y-123986523D01*
X148683000Y-124436941D01*
X148683000Y-124483059D01*
X148772594Y-124933477D01*
X149027735Y-125315324D01*
X149409582Y-125570465D01*
X149860000Y-125660059D01*
X150310418Y-125570465D01*
X150692265Y-125315324D01*
X150947406Y-124933477D01*
X151037000Y-124483059D01*
X151037000Y-124436941D01*
X150947406Y-123986523D01*
X150692265Y-123604676D01*
X150312000Y-123350592D01*
X150312000Y-116100906D01*
X150344145Y-116178703D01*
X150520369Y-116355235D01*
X150750735Y-116450891D01*
X150863766Y-116450990D01*
X151948000Y-117535225D01*
X151948000Y-123276594D01*
X151550000Y-123276594D01*
X151428821Y-123299395D01*
X151317526Y-123371012D01*
X151242862Y-123480286D01*
X151216594Y-123610000D01*
X151216594Y-125310000D01*
X151239395Y-125431179D01*
X151311012Y-125542474D01*
X151420286Y-125617138D01*
X151550000Y-125643406D01*
X153250000Y-125643406D01*
X153371179Y-125620605D01*
X153482474Y-125548988D01*
X153557138Y-125439714D01*
X153583406Y-125310000D01*
X153583406Y-124912000D01*
X163388776Y-124912000D01*
X163456989Y-124980213D01*
X163456891Y-125092171D01*
X163552145Y-125322703D01*
X163728369Y-125499235D01*
X163958735Y-125594891D01*
X164208171Y-125595109D01*
X164438703Y-125499855D01*
X164615235Y-125323631D01*
X164710891Y-125093265D01*
X164711109Y-124843829D01*
X164615855Y-124613297D01*
X164439631Y-124436765D01*
X164209265Y-124341109D01*
X164096235Y-124341010D01*
X163895612Y-124140388D01*
X163748973Y-124042406D01*
X163576000Y-124008000D01*
X153583406Y-124008000D01*
X153583406Y-123610000D01*
X153560605Y-123488821D01*
X153488988Y-123377526D01*
X153379714Y-123302862D01*
X153250000Y-123276594D01*
X152852000Y-123276594D01*
X152852000Y-121688906D01*
X152884145Y-121766703D01*
X153060369Y-121943235D01*
X153290735Y-122038891D01*
X153540171Y-122039109D01*
X153770703Y-121943855D01*
X153947235Y-121767631D01*
X154042891Y-121537265D01*
X154043000Y-121412000D01*
X161918921Y-121412000D01*
X162004709Y-121843284D01*
X162249012Y-122208909D01*
X162614637Y-122453212D01*
X163045921Y-122539000D01*
X163090079Y-122539000D01*
X163521363Y-122453212D01*
X163886988Y-122208909D01*
X164131291Y-121843284D01*
X164217079Y-121412000D01*
X164131291Y-120980716D01*
X163886988Y-120615091D01*
X163521363Y-120370788D01*
X163090079Y-120285000D01*
X163045921Y-120285000D01*
X162614637Y-120370788D01*
X162249012Y-120615091D01*
X162004709Y-120980716D01*
X161918921Y-121412000D01*
X154043000Y-121412000D01*
X154043109Y-121287829D01*
X153947855Y-121057297D01*
X153868000Y-120977302D01*
X153868000Y-118872000D01*
X161918921Y-118872000D01*
X162004709Y-119303284D01*
X162249012Y-119668909D01*
X162614637Y-119913212D01*
X163045921Y-119999000D01*
X163090079Y-119999000D01*
X163521363Y-119913212D01*
X163886988Y-119668909D01*
X164131291Y-119303284D01*
X164217079Y-118872000D01*
X164131291Y-118440716D01*
X163886988Y-118075091D01*
X163521363Y-117830788D01*
X163090079Y-117745000D01*
X163045921Y-117745000D01*
X162614637Y-117830788D01*
X162249012Y-118075091D01*
X162004709Y-118440716D01*
X161918921Y-118872000D01*
X153868000Y-118872000D01*
X153868000Y-114995224D01*
X154910072Y-113953152D01*
X162053722Y-113953152D01*
X162069260Y-114031262D01*
X162236846Y-114395251D01*
X162530968Y-114667400D01*
X162906848Y-114806278D01*
X163067500Y-114762250D01*
X163067500Y-113792500D01*
X163068500Y-113792500D01*
X163068500Y-114762250D01*
X163229152Y-114806278D01*
X163605032Y-114667400D01*
X163899154Y-114395251D01*
X164066740Y-114031262D01*
X164082278Y-113953152D01*
X169673722Y-113953152D01*
X169689260Y-114031262D01*
X169856846Y-114395251D01*
X170150968Y-114667400D01*
X170526848Y-114806278D01*
X170687500Y-114762250D01*
X170687500Y-113792500D01*
X170688500Y-113792500D01*
X170688500Y-114762250D01*
X170849152Y-114806278D01*
X171225032Y-114667400D01*
X171519154Y-114395251D01*
X171686740Y-114031262D01*
X171702278Y-113953152D01*
X171658250Y-113792500D01*
X170688500Y-113792500D01*
X170687500Y-113792500D01*
X169717750Y-113792500D01*
X169673722Y-113953152D01*
X164082278Y-113953152D01*
X164038250Y-113792500D01*
X163068500Y-113792500D01*
X163067500Y-113792500D01*
X162097750Y-113792500D01*
X162053722Y-113953152D01*
X154910072Y-113953152D01*
X155232376Y-113630848D01*
X162053722Y-113630848D01*
X162097750Y-113791500D01*
X163067500Y-113791500D01*
X163067500Y-112821750D01*
X163068500Y-112821750D01*
X163068500Y-113791500D01*
X164038250Y-113791500D01*
X164082278Y-113630848D01*
X169673722Y-113630848D01*
X169717750Y-113791500D01*
X170687500Y-113791500D01*
X170687500Y-112821750D01*
X170688500Y-112821750D01*
X170688500Y-113791500D01*
X171658250Y-113791500D01*
X171702278Y-113630848D01*
X171686740Y-113552738D01*
X171519154Y-113188749D01*
X171225032Y-112916600D01*
X170849152Y-112777722D01*
X170688500Y-112821750D01*
X170687500Y-112821750D01*
X170526848Y-112777722D01*
X170150968Y-112916600D01*
X169856846Y-113188749D01*
X169689260Y-113552738D01*
X169673722Y-113630848D01*
X164082278Y-113630848D01*
X164066740Y-113552738D01*
X163899154Y-113188749D01*
X163605032Y-112916600D01*
X163229152Y-112777722D01*
X163068500Y-112821750D01*
X163067500Y-112821750D01*
X162906848Y-112777722D01*
X162530968Y-112916600D01*
X162236846Y-113188749D01*
X162069260Y-113552738D01*
X162053722Y-113630848D01*
X155232376Y-113630848D01*
X157450072Y-111413152D01*
X162053722Y-111413152D01*
X162069260Y-111491262D01*
X162236846Y-111855251D01*
X162530968Y-112127400D01*
X162906848Y-112266278D01*
X163067500Y-112222250D01*
X163067500Y-111252500D01*
X163068500Y-111252500D01*
X163068500Y-112222250D01*
X163229152Y-112266278D01*
X163605032Y-112127400D01*
X163899154Y-111855251D01*
X164066740Y-111491262D01*
X164082278Y-111413152D01*
X169673722Y-111413152D01*
X169689260Y-111491262D01*
X169856846Y-111855251D01*
X170150968Y-112127400D01*
X170526848Y-112266278D01*
X170687500Y-112222250D01*
X170687500Y-111252500D01*
X170688500Y-111252500D01*
X170688500Y-112222250D01*
X170849152Y-112266278D01*
X171225032Y-112127400D01*
X171519154Y-111855251D01*
X171686740Y-111491262D01*
X171702278Y-111413152D01*
X171658250Y-111252500D01*
X170688500Y-111252500D01*
X170687500Y-111252500D01*
X169717750Y-111252500D01*
X169673722Y-111413152D01*
X164082278Y-111413152D01*
X164038250Y-111252500D01*
X163068500Y-111252500D01*
X163067500Y-111252500D01*
X162097750Y-111252500D01*
X162053722Y-111413152D01*
X157450072Y-111413152D01*
X157772376Y-111090848D01*
X162053722Y-111090848D01*
X162097750Y-111251500D01*
X163067500Y-111251500D01*
X163067500Y-110281750D01*
X163068500Y-110281750D01*
X163068500Y-111251500D01*
X164038250Y-111251500D01*
X164082278Y-111090848D01*
X169673722Y-111090848D01*
X169717750Y-111251500D01*
X170687500Y-111251500D01*
X170687500Y-110281750D01*
X170688500Y-110281750D01*
X170688500Y-111251500D01*
X171658250Y-111251500D01*
X171702278Y-111090848D01*
X171686740Y-111012738D01*
X171519154Y-110648749D01*
X171225032Y-110376600D01*
X170849152Y-110237722D01*
X170688500Y-110281750D01*
X170687500Y-110281750D01*
X170526848Y-110237722D01*
X170150968Y-110376600D01*
X169856846Y-110648749D01*
X169689260Y-111012738D01*
X169673722Y-111090848D01*
X164082278Y-111090848D01*
X164066740Y-111012738D01*
X163899154Y-110648749D01*
X163605032Y-110376600D01*
X163229152Y-110237722D01*
X163068500Y-110281750D01*
X163067500Y-110281750D01*
X162906848Y-110237722D01*
X162530968Y-110376600D01*
X162236846Y-110648749D01*
X162069260Y-111012738D01*
X162053722Y-111090848D01*
X157772376Y-111090848D01*
X160151224Y-108712000D01*
X161918921Y-108712000D01*
X162004709Y-109143284D01*
X162249012Y-109508909D01*
X162614637Y-109753212D01*
X163045921Y-109839000D01*
X163090079Y-109839000D01*
X163521363Y-109753212D01*
X163886988Y-109508909D01*
X164131291Y-109143284D01*
X164217079Y-108712000D01*
X169538921Y-108712000D01*
X169624709Y-109143284D01*
X169869012Y-109508909D01*
X170234637Y-109753212D01*
X170665921Y-109839000D01*
X170710079Y-109839000D01*
X171141363Y-109753212D01*
X171506988Y-109508909D01*
X171653927Y-109289000D01*
X172719995Y-109289000D01*
X172720000Y-109289001D01*
X172940808Y-109245078D01*
X173128001Y-109120001D01*
X178039002Y-104209000D01*
X181649595Y-104209000D01*
X181838242Y-104665560D01*
X182351736Y-105179952D01*
X183022993Y-105458682D01*
X183749818Y-105459316D01*
X184421560Y-105181758D01*
X184935952Y-104668264D01*
X185214682Y-103997007D01*
X185215316Y-103270182D01*
X184937758Y-102598440D01*
X184424264Y-102084048D01*
X183753007Y-101805318D01*
X183026182Y-101804684D01*
X182354440Y-102082242D01*
X181840048Y-102595736D01*
X181649345Y-103055000D01*
X177800005Y-103055000D01*
X177800000Y-103054999D01*
X177579192Y-103098922D01*
X177391999Y-103223999D01*
X172480998Y-108135000D01*
X171653927Y-108135000D01*
X171506988Y-107915091D01*
X171141363Y-107670788D01*
X170710079Y-107585000D01*
X170665921Y-107585000D01*
X170234637Y-107670788D01*
X169869012Y-107915091D01*
X169624709Y-108280716D01*
X169538921Y-108712000D01*
X164217079Y-108712000D01*
X164131291Y-108280716D01*
X163886988Y-107915091D01*
X163521363Y-107670788D01*
X163090079Y-107585000D01*
X163045921Y-107585000D01*
X162614637Y-107670788D01*
X162249012Y-107915091D01*
X162004709Y-108280716D01*
X161918921Y-108712000D01*
X160151224Y-108712000D01*
X162106940Y-106756284D01*
X162249012Y-106968909D01*
X162614637Y-107213212D01*
X163045921Y-107299000D01*
X163090079Y-107299000D01*
X163521363Y-107213212D01*
X163886988Y-106968909D01*
X164131291Y-106603284D01*
X164217079Y-106172000D01*
X169538921Y-106172000D01*
X169624709Y-106603284D01*
X169869012Y-106968909D01*
X170234637Y-107213212D01*
X170665921Y-107299000D01*
X170710079Y-107299000D01*
X171141363Y-107213212D01*
X171506988Y-106968909D01*
X171751291Y-106603284D01*
X171837079Y-106172000D01*
X171751291Y-105740716D01*
X171506988Y-105375091D01*
X171141363Y-105130788D01*
X170710079Y-105045000D01*
X170665921Y-105045000D01*
X170234637Y-105130788D01*
X169869012Y-105375091D01*
X169624709Y-105740716D01*
X169538921Y-106172000D01*
X164217079Y-106172000D01*
X164131291Y-105740716D01*
X163886988Y-105375091D01*
X163521363Y-105130788D01*
X163090079Y-105045000D01*
X163045921Y-105045000D01*
X162614637Y-105130788D01*
X162249012Y-105375091D01*
X162013424Y-105727673D01*
X161879027Y-105754406D01*
X161732388Y-105852388D01*
X153096388Y-114488388D01*
X152998406Y-114635027D01*
X152964000Y-114808000D01*
X152964000Y-120977272D01*
X152884765Y-121056369D01*
X152852000Y-121135276D01*
X152852000Y-117348000D01*
X152817594Y-117175027D01*
X152786779Y-117128909D01*
X152719612Y-117028387D01*
X151503011Y-115811787D01*
X151503109Y-115699829D01*
X151407855Y-115469297D01*
X151231631Y-115292765D01*
X151001265Y-115197109D01*
X150751829Y-115196891D01*
X150521297Y-115292145D01*
X150344765Y-115468369D01*
X150312000Y-115547276D01*
X150312000Y-112850000D01*
X150277594Y-112677027D01*
X150179612Y-112530388D01*
X150111484Y-112462260D01*
X150137138Y-112424714D01*
X150163406Y-112295000D01*
X150163406Y-111745000D01*
X150140605Y-111623821D01*
X150138105Y-111619937D01*
X150163406Y-111495000D01*
X150163406Y-110945000D01*
X150140605Y-110823821D01*
X150138105Y-110819937D01*
X150163406Y-110695000D01*
X150163406Y-110145000D01*
X150149670Y-110072000D01*
X150847723Y-110072000D01*
X150852145Y-110082703D01*
X151005287Y-110236113D01*
X150852765Y-110388369D01*
X150757109Y-110618735D01*
X150756891Y-110868171D01*
X150852145Y-111098703D01*
X151028369Y-111275235D01*
X151258735Y-111370891D01*
X151508171Y-111371109D01*
X151738703Y-111275855D01*
X151915235Y-111099631D01*
X152010891Y-110869265D01*
X152010990Y-110756234D01*
X159135224Y-103632000D01*
X161918921Y-103632000D01*
X162004709Y-104063284D01*
X162249012Y-104428909D01*
X162614637Y-104673212D01*
X163045921Y-104759000D01*
X163090079Y-104759000D01*
X163521363Y-104673212D01*
X163886988Y-104428909D01*
X164131291Y-104063284D01*
X164217079Y-103632000D01*
X169538921Y-103632000D01*
X169624709Y-104063284D01*
X169869012Y-104428909D01*
X170234637Y-104673212D01*
X170665921Y-104759000D01*
X170710079Y-104759000D01*
X171141363Y-104673212D01*
X171506988Y-104428909D01*
X171751291Y-104063284D01*
X171837079Y-103632000D01*
X171751291Y-103200716D01*
X171506988Y-102835091D01*
X171141363Y-102590788D01*
X170710079Y-102505000D01*
X170665921Y-102505000D01*
X170234637Y-102590788D01*
X169869012Y-102835091D01*
X169624709Y-103200716D01*
X169538921Y-103632000D01*
X164217079Y-103632000D01*
X164131291Y-103200716D01*
X163886988Y-102835091D01*
X163521363Y-102590788D01*
X163090079Y-102505000D01*
X163045921Y-102505000D01*
X162614637Y-102590788D01*
X162249012Y-102835091D01*
X162004709Y-103200716D01*
X161918921Y-103632000D01*
X159135224Y-103632000D01*
X160032213Y-102735011D01*
X160144171Y-102735109D01*
X160374703Y-102639855D01*
X160551235Y-102463631D01*
X160646891Y-102233265D01*
X160647109Y-101983829D01*
X160551855Y-101753297D01*
X160375631Y-101576765D01*
X160145265Y-101481109D01*
X159895829Y-101480891D01*
X159665297Y-101576145D01*
X159488765Y-101752369D01*
X159393109Y-101982735D01*
X159393010Y-102095766D01*
X151974221Y-109514555D01*
X151915855Y-109373297D01*
X151739631Y-109196765D01*
X151509265Y-109101109D01*
X151259829Y-109100891D01*
X151097413Y-109168000D01*
X150104685Y-109168000D01*
X150068988Y-109112526D01*
X150057000Y-109104335D01*
X150057000Y-108877250D01*
X150000250Y-108820500D01*
X149030500Y-108820500D01*
X149030500Y-108840500D01*
X149029500Y-108840500D01*
X149029500Y-108820500D01*
X148059750Y-108820500D01*
X148003000Y-108877250D01*
X148003000Y-109102490D01*
X147997526Y-109106012D01*
X147922862Y-109215286D01*
X147896594Y-109345000D01*
X147896594Y-109895000D01*
X147919395Y-110016179D01*
X147921895Y-110020063D01*
X147896594Y-110145000D01*
X147896594Y-110681369D01*
X146623612Y-109408388D01*
X146476973Y-109310406D01*
X146304000Y-109276000D01*
X142692000Y-109276000D01*
X142692000Y-109220000D01*
X142657594Y-109047027D01*
X142651470Y-109037862D01*
X142559612Y-108900387D01*
X142159612Y-108500388D01*
X142012973Y-108402406D01*
X141840000Y-108368000D01*
X141604685Y-108368000D01*
X141568988Y-108312526D01*
X141557000Y-108304335D01*
X141557000Y-108077250D01*
X141500250Y-108020500D01*
X140530500Y-108020500D01*
X140530500Y-108040500D01*
X140529500Y-108040500D01*
X140529500Y-108020500D01*
X139559750Y-108020500D01*
X139503000Y-108077250D01*
X139503000Y-108302490D01*
X139497526Y-108306012D01*
X139422862Y-108415286D01*
X139396594Y-108545000D01*
X139396594Y-109095000D01*
X139419395Y-109216179D01*
X139491012Y-109327474D01*
X139503000Y-109335665D01*
X139503000Y-109562750D01*
X139559750Y-109619500D01*
X140529500Y-109619500D01*
X140529500Y-109599500D01*
X140530500Y-109599500D01*
X140530500Y-109619500D01*
X141500250Y-109619500D01*
X141557000Y-109562750D01*
X141557000Y-109337510D01*
X141562474Y-109333988D01*
X141604829Y-109272000D01*
X141652776Y-109272000D01*
X141788000Y-109407225D01*
X141788000Y-109540776D01*
X141557000Y-109771776D01*
X141557000Y-109677250D01*
X141500250Y-109620500D01*
X140530500Y-109620500D01*
X140530500Y-109640500D01*
X140529500Y-109640500D01*
X140529500Y-109620500D01*
X139559750Y-109620500D01*
X139503000Y-109677250D01*
X139503000Y-109843000D01*
X138599001Y-109843000D01*
X136044001Y-107287999D01*
X135856808Y-107162922D01*
X135636000Y-107118999D01*
X135635995Y-107119000D01*
X123952005Y-107119000D01*
X123952000Y-107118999D01*
X123731192Y-107162922D01*
X123543999Y-107287999D01*
X121511999Y-109319999D01*
X121386922Y-109507192D01*
X121342999Y-109728000D01*
X121343000Y-109728005D01*
X121343000Y-118626584D01*
X121293109Y-118746735D01*
X121292891Y-118996171D01*
X121388145Y-119226703D01*
X121564369Y-119403235D01*
X121794735Y-119498891D01*
X122044171Y-119499109D01*
X122274703Y-119403855D01*
X122451235Y-119227631D01*
X122546891Y-118997265D01*
X122547109Y-118747829D01*
X122497000Y-118626556D01*
X122497000Y-117032651D01*
X125324056Y-117032651D01*
X125408923Y-117179432D01*
X125780041Y-117350304D01*
X126188300Y-117366150D01*
X126571545Y-117224555D01*
X126639077Y-117179432D01*
X126723944Y-117032651D01*
X126024000Y-116332707D01*
X125324056Y-117032651D01*
X122497000Y-117032651D01*
X122497000Y-116496300D01*
X124989850Y-116496300D01*
X125131445Y-116879545D01*
X125176568Y-116947077D01*
X125323349Y-117031944D01*
X126023293Y-116332000D01*
X126024707Y-116332000D01*
X126724651Y-117031944D01*
X126871432Y-116947077D01*
X127042304Y-116575959D01*
X127058150Y-116167700D01*
X126916555Y-115784455D01*
X126871432Y-115716923D01*
X126724651Y-115632056D01*
X126024707Y-116332000D01*
X126023293Y-116332000D01*
X125323349Y-115632056D01*
X125176568Y-115716923D01*
X125005696Y-116088041D01*
X124989850Y-116496300D01*
X122497000Y-116496300D01*
X122497000Y-115631349D01*
X125324056Y-115631349D01*
X126024000Y-116331293D01*
X126723944Y-115631349D01*
X126639077Y-115484568D01*
X126267959Y-115313696D01*
X125859700Y-115297850D01*
X125476455Y-115439445D01*
X125408923Y-115484568D01*
X125324056Y-115631349D01*
X122497000Y-115631349D01*
X122497000Y-111952651D01*
X125324056Y-111952651D01*
X125408923Y-112099432D01*
X125780041Y-112270304D01*
X126188300Y-112286150D01*
X126571545Y-112144555D01*
X126639077Y-112099432D01*
X126723944Y-111952651D01*
X126024000Y-111252707D01*
X125324056Y-111952651D01*
X122497000Y-111952651D01*
X122497000Y-111416300D01*
X124989850Y-111416300D01*
X125131445Y-111799545D01*
X125176568Y-111867077D01*
X125323349Y-111951944D01*
X126023293Y-111252000D01*
X126024707Y-111252000D01*
X126724651Y-111951944D01*
X126871432Y-111867077D01*
X127042304Y-111495959D01*
X127058150Y-111087700D01*
X126916555Y-110704455D01*
X126871432Y-110636923D01*
X126724651Y-110552056D01*
X126024707Y-111252000D01*
X126023293Y-111252000D01*
X125323349Y-110552056D01*
X125176568Y-110636923D01*
X125005696Y-111008041D01*
X124989850Y-111416300D01*
X122497000Y-111416300D01*
X122497000Y-110551349D01*
X125324056Y-110551349D01*
X126024000Y-111251293D01*
X126723944Y-110551349D01*
X126639077Y-110404568D01*
X126267959Y-110233696D01*
X125859700Y-110217850D01*
X125476455Y-110359445D01*
X125408923Y-110404568D01*
X125324056Y-110551349D01*
X122497000Y-110551349D01*
X122497000Y-109967002D01*
X124191002Y-108273000D01*
X135396998Y-108273000D01*
X137863999Y-110740000D01*
X134121406Y-110740000D01*
X134121406Y-109442000D01*
X134098605Y-109320821D01*
X134026988Y-109209526D01*
X133917714Y-109134862D01*
X133788000Y-109108594D01*
X131388000Y-109108594D01*
X131266821Y-109131395D01*
X131155526Y-109203012D01*
X131080862Y-109312286D01*
X131054594Y-109442000D01*
X131054594Y-110675000D01*
X129505004Y-110675000D01*
X129479981Y-110614440D01*
X129163228Y-110297133D01*
X128749158Y-110125196D01*
X128300809Y-110124805D01*
X127886440Y-110296019D01*
X127569133Y-110612772D01*
X127397196Y-111026842D01*
X127396805Y-111475191D01*
X127568019Y-111889560D01*
X127884772Y-112206867D01*
X128298842Y-112378804D01*
X128747191Y-112379195D01*
X129161560Y-112207981D01*
X129478867Y-111891228D01*
X129504706Y-111829000D01*
X131054594Y-111829000D01*
X131054594Y-112942000D01*
X131077395Y-113063179D01*
X131149012Y-113174474D01*
X131258286Y-113249138D01*
X131388000Y-113275406D01*
X133788000Y-113275406D01*
X133909179Y-113252605D01*
X134020474Y-113180988D01*
X134095138Y-113071714D01*
X134121406Y-112942000D01*
X134121406Y-111644000D01*
X138188778Y-111644000D01*
X138104388Y-111700388D01*
X134121406Y-115683370D01*
X134121406Y-114642000D01*
X134098605Y-114520821D01*
X134026988Y-114409526D01*
X133917714Y-114334862D01*
X133788000Y-114308594D01*
X131388000Y-114308594D01*
X131266821Y-114331395D01*
X131155526Y-114403012D01*
X131080862Y-114512286D01*
X131054594Y-114642000D01*
X131054594Y-115755000D01*
X129505004Y-115755000D01*
X129479981Y-115694440D01*
X129163228Y-115377133D01*
X128749158Y-115205196D01*
X128300809Y-115204805D01*
X127886440Y-115376019D01*
X127569133Y-115692772D01*
X127397196Y-116106842D01*
X127396805Y-116555191D01*
X127568019Y-116969560D01*
X127884772Y-117286867D01*
X128298842Y-117458804D01*
X128747191Y-117459195D01*
X129161560Y-117287981D01*
X129478867Y-116971228D01*
X129504706Y-116909000D01*
X131054594Y-116909000D01*
X131054594Y-118142000D01*
X131077395Y-118263179D01*
X131149012Y-118374474D01*
X131258286Y-118449138D01*
X131388000Y-118475406D01*
X133788000Y-118475406D01*
X133909179Y-118452605D01*
X134020474Y-118380988D01*
X134095138Y-118271714D01*
X134121406Y-118142000D01*
X134121406Y-116830194D01*
X134224973Y-116809594D01*
X134371612Y-116711612D01*
X138611224Y-112472000D01*
X139455315Y-112472000D01*
X139491012Y-112527474D01*
X139600286Y-112602138D01*
X139730000Y-112628406D01*
X141330000Y-112628406D01*
X141381998Y-112618622D01*
X141371594Y-112670000D01*
X141371594Y-113018000D01*
X141038000Y-113018000D01*
X140865027Y-113052406D01*
X140718388Y-113150388D01*
X140703787Y-113164989D01*
X140591829Y-113164891D01*
X140361297Y-113260145D01*
X140184765Y-113436369D01*
X140089109Y-113666735D01*
X140088891Y-113916171D01*
X140184145Y-114146703D01*
X140360369Y-114323235D01*
X140590735Y-114418891D01*
X140840171Y-114419109D01*
X141070703Y-114323855D01*
X141247235Y-114147631D01*
X141340925Y-113922000D01*
X141371594Y-113922000D01*
X141371594Y-114270000D01*
X141394395Y-114391179D01*
X141466012Y-114502474D01*
X141575286Y-114577138D01*
X141705000Y-114603406D01*
X142255000Y-114603406D01*
X142326898Y-114589878D01*
X142052776Y-114864000D01*
X141224000Y-114864000D01*
X141051027Y-114898406D01*
X140904388Y-114996388D01*
X127828776Y-128072000D01*
X115633406Y-128072000D01*
X115633406Y-127524000D01*
X115610605Y-127402821D01*
X115538988Y-127291526D01*
X115429714Y-127216862D01*
X115300000Y-127190594D01*
X113300000Y-127190594D01*
X113178821Y-127213395D01*
X113067526Y-127285012D01*
X112992862Y-127394286D01*
X112966594Y-127524000D01*
X107443021Y-127524000D01*
X107434937Y-127511596D01*
X106991563Y-127307412D01*
X106503802Y-127288443D01*
X106045909Y-127457575D01*
X105965063Y-127511596D01*
X105855864Y-127679157D01*
X103251000Y-127679157D01*
X103251000Y-115976651D01*
X105472056Y-115976651D01*
X105556923Y-116123432D01*
X105928041Y-116294304D01*
X106336300Y-116310150D01*
X106719545Y-116168555D01*
X106787077Y-116123432D01*
X106871944Y-115976651D01*
X109028056Y-115976651D01*
X109112923Y-116123432D01*
X109484041Y-116294304D01*
X109892300Y-116310150D01*
X110275545Y-116168555D01*
X110343077Y-116123432D01*
X110427944Y-115976651D01*
X109728000Y-115276707D01*
X109028056Y-115976651D01*
X106871944Y-115976651D01*
X106172000Y-115276707D01*
X105472056Y-115976651D01*
X103251000Y-115976651D01*
X103251000Y-115440300D01*
X105137850Y-115440300D01*
X105279445Y-115823545D01*
X105324568Y-115891077D01*
X105471349Y-115975944D01*
X106171293Y-115276000D01*
X106172707Y-115276000D01*
X106872651Y-115975944D01*
X107019432Y-115891077D01*
X107190304Y-115519959D01*
X107193395Y-115440300D01*
X108693850Y-115440300D01*
X108835445Y-115823545D01*
X108880568Y-115891077D01*
X109027349Y-115975944D01*
X109727293Y-115276000D01*
X109728707Y-115276000D01*
X110428651Y-115975944D01*
X110575432Y-115891077D01*
X110746304Y-115519959D01*
X110762150Y-115111700D01*
X110620555Y-114728455D01*
X110575432Y-114660923D01*
X110428651Y-114576056D01*
X109728707Y-115276000D01*
X109727293Y-115276000D01*
X109027349Y-114576056D01*
X108880568Y-114660923D01*
X108709696Y-115032041D01*
X108693850Y-115440300D01*
X107193395Y-115440300D01*
X107206150Y-115111700D01*
X107064555Y-114728455D01*
X107019432Y-114660923D01*
X106872651Y-114576056D01*
X106172707Y-115276000D01*
X106171293Y-115276000D01*
X105471349Y-114576056D01*
X105324568Y-114660923D01*
X105153696Y-115032041D01*
X105137850Y-115440300D01*
X103251000Y-115440300D01*
X103251000Y-114575349D01*
X105472056Y-114575349D01*
X106172000Y-115275293D01*
X106871944Y-114575349D01*
X109028056Y-114575349D01*
X109728000Y-115275293D01*
X110427944Y-114575349D01*
X110343077Y-114428568D01*
X109971959Y-114257696D01*
X109563700Y-114241850D01*
X109180455Y-114383445D01*
X109112923Y-114428568D01*
X109028056Y-114575349D01*
X106871944Y-114575349D01*
X106787077Y-114428568D01*
X106415959Y-114257696D01*
X106007700Y-114241850D01*
X105624455Y-114383445D01*
X105556923Y-114428568D01*
X105472056Y-114575349D01*
X103251000Y-114575349D01*
X103251000Y-112999191D01*
X105044805Y-112999191D01*
X105216019Y-113413560D01*
X105532772Y-113730867D01*
X105946842Y-113902804D01*
X106395191Y-113903195D01*
X106809560Y-113731981D01*
X107126867Y-113415228D01*
X107298804Y-113001158D01*
X107298805Y-112999191D01*
X108600805Y-112999191D01*
X108772019Y-113413560D01*
X109088772Y-113730867D01*
X109502842Y-113902804D01*
X109951191Y-113903195D01*
X110365560Y-113731981D01*
X110682867Y-113415228D01*
X110854804Y-113001158D01*
X110855195Y-112552809D01*
X110683981Y-112138440D01*
X110367228Y-111821133D01*
X109953158Y-111649196D01*
X109504809Y-111648805D01*
X109090440Y-111820019D01*
X108773133Y-112136772D01*
X108601196Y-112550842D01*
X108600805Y-112999191D01*
X107298805Y-112999191D01*
X107299195Y-112552809D01*
X107127981Y-112138440D01*
X106811228Y-111821133D01*
X106397158Y-111649196D01*
X105948809Y-111648805D01*
X105534440Y-111820019D01*
X105217133Y-112136772D01*
X105045196Y-112550842D01*
X105044805Y-112999191D01*
X103251000Y-112999191D01*
X103251000Y-106296171D01*
X123324891Y-106296171D01*
X123420145Y-106526703D01*
X123596369Y-106703235D01*
X123826735Y-106798891D01*
X124076171Y-106799109D01*
X124306703Y-106703855D01*
X124483235Y-106527631D01*
X124578891Y-106297265D01*
X124578990Y-106184235D01*
X124779612Y-105983613D01*
X124877594Y-105836974D01*
X124883302Y-105808276D01*
X124912000Y-105664000D01*
X124912000Y-99755224D01*
X127882381Y-96784843D01*
X131743864Y-96784843D01*
X131853063Y-96952404D01*
X132296437Y-97156588D01*
X132784198Y-97175557D01*
X133242091Y-97006425D01*
X133322937Y-96952404D01*
X133432136Y-96784843D01*
X132588000Y-95940707D01*
X131743864Y-96784843D01*
X127882381Y-96784843D01*
X128531026Y-96136198D01*
X131352443Y-96136198D01*
X131521575Y-96594091D01*
X131575596Y-96674937D01*
X131743157Y-96784136D01*
X132587293Y-95940000D01*
X132588707Y-95940000D01*
X133432843Y-96784136D01*
X133600404Y-96674937D01*
X133804588Y-96231563D01*
X133823557Y-95743802D01*
X133654425Y-95285909D01*
X133600404Y-95205063D01*
X133432843Y-95095864D01*
X132588707Y-95940000D01*
X132587293Y-95940000D01*
X131743157Y-95095864D01*
X131575596Y-95205063D01*
X131371412Y-95648437D01*
X131352443Y-96136198D01*
X128531026Y-96136198D01*
X129572067Y-95095157D01*
X131743864Y-95095157D01*
X132588000Y-95939293D01*
X133432136Y-95095157D01*
X133322937Y-94927596D01*
X132879563Y-94723412D01*
X132391802Y-94704443D01*
X131933909Y-94873575D01*
X131853063Y-94927596D01*
X131743864Y-95095157D01*
X129572067Y-95095157D01*
X132024398Y-92642826D01*
X132322885Y-92766769D01*
X132850798Y-92767229D01*
X133338703Y-92565631D01*
X133712319Y-92192666D01*
X133914769Y-91705115D01*
X133915229Y-91177202D01*
X133713631Y-90689297D01*
X133340666Y-90315681D01*
X132853115Y-90113231D01*
X132325202Y-90112771D01*
X131837297Y-90314369D01*
X131463681Y-90687334D01*
X131261231Y-91174885D01*
X131260771Y-91702798D01*
X131385094Y-92003682D01*
X124140388Y-99248388D01*
X124042406Y-99395027D01*
X124008000Y-99568000D01*
X124008000Y-105476775D01*
X123939787Y-105544989D01*
X123827829Y-105544891D01*
X123597297Y-105640145D01*
X123420765Y-105816369D01*
X123325109Y-106046735D01*
X123324891Y-106296171D01*
X103251000Y-106296171D01*
X103251000Y-104501818D01*
X103836684Y-104501818D01*
X104114242Y-105173560D01*
X104627736Y-105687952D01*
X105298993Y-105966682D01*
X106025818Y-105967316D01*
X106697560Y-105689758D01*
X107211952Y-105176264D01*
X107402655Y-104717000D01*
X108203995Y-104717000D01*
X108204000Y-104717001D01*
X108424808Y-104673078D01*
X108612001Y-104548001D01*
X117247998Y-95912003D01*
X117248001Y-95912001D01*
X117373078Y-95724808D01*
X117417000Y-95504000D01*
X117417000Y-89653416D01*
X117466891Y-89533265D01*
X117467109Y-89283829D01*
X117371855Y-89053297D01*
X117195631Y-88876765D01*
X116965265Y-88781109D01*
X116715829Y-88780891D01*
X116485297Y-88876145D01*
X116308765Y-89052369D01*
X116213109Y-89282735D01*
X116212891Y-89532171D01*
X116263000Y-89653444D01*
X116263000Y-95264999D01*
X107964998Y-103563000D01*
X107402405Y-103563000D01*
X107213758Y-103106440D01*
X106700264Y-102592048D01*
X106029007Y-102313318D01*
X105302182Y-102312684D01*
X104630440Y-102590242D01*
X104116048Y-103103736D01*
X103837318Y-103774993D01*
X103836684Y-104501818D01*
X103251000Y-104501818D01*
X103251000Y-99117250D01*
X103937000Y-99117250D01*
X103937000Y-100605153D01*
X103971559Y-100688585D01*
X104035415Y-100752441D01*
X104118847Y-100787000D01*
X105606750Y-100787000D01*
X105663500Y-100730250D01*
X105663500Y-99060500D01*
X105664500Y-99060500D01*
X105664500Y-100730250D01*
X105721250Y-100787000D01*
X107209153Y-100787000D01*
X107292585Y-100752441D01*
X107356441Y-100688585D01*
X107391000Y-100605153D01*
X107391000Y-99117250D01*
X107334250Y-99060500D01*
X105664500Y-99060500D01*
X105663500Y-99060500D01*
X103993750Y-99060500D01*
X103937000Y-99117250D01*
X103251000Y-99117250D01*
X103251000Y-97514847D01*
X103937000Y-97514847D01*
X103937000Y-99002750D01*
X103993750Y-99059500D01*
X105663500Y-99059500D01*
X105663500Y-97389750D01*
X105664500Y-97389750D01*
X105664500Y-99059500D01*
X107334250Y-99059500D01*
X107391000Y-99002750D01*
X107391000Y-97514847D01*
X107356441Y-97431415D01*
X107292585Y-97367559D01*
X107209153Y-97333000D01*
X105721250Y-97333000D01*
X105664500Y-97389750D01*
X105663500Y-97389750D01*
X105606750Y-97333000D01*
X104118847Y-97333000D01*
X104035415Y-97367559D01*
X103971559Y-97431415D01*
X103937000Y-97514847D01*
X103251000Y-97514847D01*
X103251000Y-95148651D01*
X105980056Y-95148651D01*
X106064923Y-95295432D01*
X106436041Y-95466304D01*
X106844300Y-95482150D01*
X107227545Y-95340555D01*
X107295077Y-95295432D01*
X107379944Y-95148651D01*
X109536056Y-95148651D01*
X109620923Y-95295432D01*
X109992041Y-95466304D01*
X110400300Y-95482150D01*
X110783545Y-95340555D01*
X110851077Y-95295432D01*
X110935944Y-95148651D01*
X110236000Y-94448707D01*
X109536056Y-95148651D01*
X107379944Y-95148651D01*
X106680000Y-94448707D01*
X105980056Y-95148651D01*
X103251000Y-95148651D01*
X103251000Y-94612300D01*
X105645850Y-94612300D01*
X105787445Y-94995545D01*
X105832568Y-95063077D01*
X105979349Y-95147944D01*
X106679293Y-94448000D01*
X106680707Y-94448000D01*
X107380651Y-95147944D01*
X107527432Y-95063077D01*
X107698304Y-94691959D01*
X107701395Y-94612300D01*
X109201850Y-94612300D01*
X109343445Y-94995545D01*
X109388568Y-95063077D01*
X109535349Y-95147944D01*
X110235293Y-94448000D01*
X110236707Y-94448000D01*
X110936651Y-95147944D01*
X111083432Y-95063077D01*
X111254304Y-94691959D01*
X111270150Y-94283700D01*
X111128555Y-93900455D01*
X111083432Y-93832923D01*
X110936651Y-93748056D01*
X110236707Y-94448000D01*
X110235293Y-94448000D01*
X109535349Y-93748056D01*
X109388568Y-93832923D01*
X109217696Y-94204041D01*
X109201850Y-94612300D01*
X107701395Y-94612300D01*
X107714150Y-94283700D01*
X107572555Y-93900455D01*
X107527432Y-93832923D01*
X107380651Y-93748056D01*
X106680707Y-94448000D01*
X106679293Y-94448000D01*
X105979349Y-93748056D01*
X105832568Y-93832923D01*
X105661696Y-94204041D01*
X105645850Y-94612300D01*
X103251000Y-94612300D01*
X103251000Y-93747349D01*
X105980056Y-93747349D01*
X106680000Y-94447293D01*
X107379944Y-93747349D01*
X109536056Y-93747349D01*
X110236000Y-94447293D01*
X110935944Y-93747349D01*
X110851077Y-93600568D01*
X110479959Y-93429696D01*
X110071700Y-93413850D01*
X109688455Y-93555445D01*
X109620923Y-93600568D01*
X109536056Y-93747349D01*
X107379944Y-93747349D01*
X107295077Y-93600568D01*
X106923959Y-93429696D01*
X106515700Y-93413850D01*
X106132455Y-93555445D01*
X106064923Y-93600568D01*
X105980056Y-93747349D01*
X103251000Y-93747349D01*
X103251000Y-92171191D01*
X105552805Y-92171191D01*
X105724019Y-92585560D01*
X106040772Y-92902867D01*
X106454842Y-93074804D01*
X106903191Y-93075195D01*
X107317560Y-92903981D01*
X107634867Y-92587228D01*
X107806804Y-92173158D01*
X107806805Y-92171191D01*
X109108805Y-92171191D01*
X109280019Y-92585560D01*
X109596772Y-92902867D01*
X110010842Y-93074804D01*
X110459191Y-93075195D01*
X110873560Y-92903981D01*
X111190867Y-92587228D01*
X111362804Y-92173158D01*
X111363195Y-91724809D01*
X111191981Y-91310440D01*
X110875228Y-90993133D01*
X110461158Y-90821196D01*
X110012809Y-90820805D01*
X109598440Y-90992019D01*
X109281133Y-91308772D01*
X109109196Y-91722842D01*
X109108805Y-92171191D01*
X107806805Y-92171191D01*
X107807195Y-91724809D01*
X107635981Y-91310440D01*
X107319228Y-90993133D01*
X106905158Y-90821196D01*
X106456809Y-90820805D01*
X106042440Y-90992019D01*
X105725133Y-91308772D01*
X105553196Y-91722842D01*
X105552805Y-92171191D01*
X103251000Y-92171191D01*
X103251000Y-80316606D01*
X104318399Y-79249207D01*
X103923277Y-79840549D01*
X103738000Y-80772000D01*
X103923277Y-81703451D01*
X104450902Y-82493098D01*
X105240549Y-83020723D01*
X106172000Y-83206000D01*
X107103451Y-83020723D01*
X107893098Y-82493098D01*
X108237727Y-81977323D01*
X122747384Y-81977323D01*
X122917412Y-82196839D01*
X123541428Y-82484299D01*
X124227949Y-82511078D01*
X124872460Y-82273096D01*
X124986588Y-82196839D01*
X125156616Y-81977323D01*
X123952000Y-80772707D01*
X122747384Y-81977323D01*
X108237727Y-81977323D01*
X108420723Y-81703451D01*
X108551110Y-81047949D01*
X122212922Y-81047949D01*
X122450904Y-81692460D01*
X122527161Y-81806588D01*
X122746677Y-81976616D01*
X123951293Y-80772000D01*
X123952707Y-80772000D01*
X125157323Y-81976616D01*
X125376839Y-81806588D01*
X125664299Y-81182572D01*
X125666200Y-81133818D01*
X127204684Y-81133818D01*
X127482242Y-81805560D01*
X127995736Y-82319952D01*
X128580000Y-82562559D01*
X128580000Y-82804000D01*
X128614406Y-82976973D01*
X128712388Y-83123612D01*
X135184000Y-89595225D01*
X135184000Y-101526000D01*
X135218406Y-101698973D01*
X135316388Y-101845612D01*
X139448516Y-105977740D01*
X139422862Y-106015286D01*
X139396594Y-106145000D01*
X139396594Y-106695000D01*
X139410330Y-106768000D01*
X138642672Y-106768000D01*
X138531631Y-106656765D01*
X138301265Y-106561109D01*
X138051829Y-106560891D01*
X137821297Y-106656145D01*
X137644765Y-106832369D01*
X137549109Y-107062735D01*
X137548891Y-107312171D01*
X137644145Y-107542703D01*
X137820369Y-107719235D01*
X138050735Y-107814891D01*
X138300171Y-107815109D01*
X138530703Y-107719855D01*
X138578642Y-107672000D01*
X139455315Y-107672000D01*
X139491012Y-107727474D01*
X139503000Y-107735665D01*
X139503000Y-107962750D01*
X139559750Y-108019500D01*
X140529500Y-108019500D01*
X140529500Y-107999500D01*
X140530500Y-107999500D01*
X140530500Y-108019500D01*
X141500250Y-108019500D01*
X141557000Y-107962750D01*
X141557000Y-107737510D01*
X141562474Y-107733988D01*
X141637138Y-107624714D01*
X141663406Y-107495000D01*
X141663406Y-106945000D01*
X141640605Y-106823821D01*
X141638105Y-106819937D01*
X141663406Y-106695000D01*
X141663406Y-106145000D01*
X141653622Y-106093002D01*
X141705000Y-106103406D01*
X142255000Y-106103406D01*
X142376179Y-106080605D01*
X142380063Y-106078105D01*
X142505000Y-106103406D01*
X143055000Y-106103406D01*
X143176179Y-106080605D01*
X143180063Y-106078105D01*
X143305000Y-106103406D01*
X143855000Y-106103406D01*
X143976179Y-106080605D01*
X143980063Y-106078105D01*
X144105000Y-106103406D01*
X144655000Y-106103406D01*
X144776179Y-106080605D01*
X144780063Y-106078105D01*
X144905000Y-106103406D01*
X145455000Y-106103406D01*
X145576179Y-106080605D01*
X145580063Y-106078105D01*
X145705000Y-106103406D01*
X146255000Y-106103406D01*
X146376179Y-106080605D01*
X146380063Y-106078105D01*
X146505000Y-106103406D01*
X147055000Y-106103406D01*
X147176179Y-106080605D01*
X147180063Y-106078105D01*
X147305000Y-106103406D01*
X147855000Y-106103406D01*
X147906998Y-106093622D01*
X147896594Y-106145000D01*
X147896594Y-106695000D01*
X147919395Y-106816179D01*
X147921895Y-106820063D01*
X147896594Y-106945000D01*
X147896594Y-107495000D01*
X147919395Y-107616179D01*
X147921895Y-107620063D01*
X147896594Y-107745000D01*
X147896594Y-108295000D01*
X147919395Y-108416179D01*
X147991012Y-108527474D01*
X148003000Y-108535665D01*
X148003000Y-108762750D01*
X148059750Y-108819500D01*
X149029500Y-108819500D01*
X149029500Y-108799500D01*
X149030500Y-108799500D01*
X149030500Y-108819500D01*
X150000250Y-108819500D01*
X150057000Y-108762750D01*
X150057000Y-108537510D01*
X150062474Y-108533988D01*
X150137138Y-108424714D01*
X150163406Y-108295000D01*
X150163406Y-107745000D01*
X150149670Y-107672000D01*
X150336000Y-107672000D01*
X150508973Y-107637594D01*
X150655612Y-107539612D01*
X152719612Y-105475612D01*
X152817594Y-105328973D01*
X152852000Y-105156000D01*
X152852000Y-103400906D01*
X152884145Y-103478703D01*
X153060369Y-103655235D01*
X153290735Y-103750891D01*
X153540171Y-103751109D01*
X153770703Y-103655855D01*
X153947235Y-103479631D01*
X154042891Y-103249265D01*
X154043109Y-102999829D01*
X153947855Y-102769297D01*
X153868000Y-102689302D01*
X153868000Y-98231224D01*
X154888033Y-97211191D01*
X159908805Y-97211191D01*
X160080019Y-97625560D01*
X160396772Y-97942867D01*
X160810842Y-98114804D01*
X161259191Y-98115195D01*
X161673560Y-97943981D01*
X161990867Y-97627228D01*
X162162804Y-97213158D01*
X162163195Y-96764809D01*
X161991981Y-96350440D01*
X161675228Y-96033133D01*
X161261158Y-95861196D01*
X160812809Y-95860805D01*
X160398440Y-96032019D01*
X160081133Y-96348772D01*
X159909196Y-96762842D01*
X159908805Y-97211191D01*
X154888033Y-97211191D01*
X157553974Y-94545250D01*
X160009000Y-94545250D01*
X160009000Y-95333153D01*
X160043559Y-95416585D01*
X160107415Y-95480441D01*
X160190847Y-95515000D01*
X160978750Y-95515000D01*
X161035500Y-95458250D01*
X161035500Y-94488500D01*
X161036500Y-94488500D01*
X161036500Y-95458250D01*
X161093250Y-95515000D01*
X161881153Y-95515000D01*
X161964585Y-95480441D01*
X162028441Y-95416585D01*
X162063000Y-95333153D01*
X162063000Y-94545250D01*
X162006250Y-94488500D01*
X161036500Y-94488500D01*
X161035500Y-94488500D01*
X160065750Y-94488500D01*
X160009000Y-94545250D01*
X157553974Y-94545250D01*
X158456377Y-93642847D01*
X160009000Y-93642847D01*
X160009000Y-94430750D01*
X160065750Y-94487500D01*
X161035500Y-94487500D01*
X161035500Y-93517750D01*
X161036500Y-93517750D01*
X161036500Y-94487500D01*
X162006250Y-94487500D01*
X162063000Y-94430750D01*
X162063000Y-93642847D01*
X162028441Y-93559415D01*
X161964585Y-93495559D01*
X161881153Y-93461000D01*
X161093250Y-93461000D01*
X161036500Y-93517750D01*
X161035500Y-93517750D01*
X160978750Y-93461000D01*
X160190847Y-93461000D01*
X160107415Y-93495559D01*
X160043559Y-93559415D01*
X160009000Y-93642847D01*
X158456377Y-93642847D01*
X160207225Y-91892000D01*
X163141272Y-91892000D01*
X163220369Y-91971235D01*
X163450735Y-92066891D01*
X163700171Y-92067109D01*
X163930703Y-91971855D01*
X164107235Y-91795631D01*
X164202891Y-91565265D01*
X164203109Y-91315829D01*
X164114333Y-91100974D01*
X180800338Y-91100974D01*
X180816641Y-91182934D01*
X180992395Y-91564640D01*
X181300843Y-91850032D01*
X181695026Y-91995662D01*
X181863500Y-91952250D01*
X181863500Y-90932500D01*
X181864500Y-90932500D01*
X181864500Y-91952250D01*
X182032974Y-91995662D01*
X182427157Y-91850032D01*
X182735605Y-91564640D01*
X182911359Y-91182934D01*
X182927662Y-91100974D01*
X182884250Y-90932500D01*
X181864500Y-90932500D01*
X181863500Y-90932500D01*
X180843750Y-90932500D01*
X180800338Y-91100974D01*
X164114333Y-91100974D01*
X164107855Y-91085297D01*
X163931631Y-90908765D01*
X163852724Y-90876000D01*
X164665272Y-90876000D01*
X164744369Y-90955235D01*
X164974735Y-91050891D01*
X165224171Y-91051109D01*
X165454703Y-90955855D01*
X165631235Y-90779631D01*
X165638129Y-90763026D01*
X180800338Y-90763026D01*
X180843750Y-90931500D01*
X181863500Y-90931500D01*
X181863500Y-89911750D01*
X181864500Y-89911750D01*
X181864500Y-90931500D01*
X182884250Y-90931500D01*
X182927662Y-90763026D01*
X182911359Y-90681066D01*
X182735605Y-90299360D01*
X182427157Y-90013968D01*
X182032974Y-89868338D01*
X181864500Y-89911750D01*
X181863500Y-89911750D01*
X181695026Y-89868338D01*
X181300843Y-90013968D01*
X180992395Y-90299360D01*
X180816641Y-90681066D01*
X180800338Y-90763026D01*
X165638129Y-90763026D01*
X165726891Y-90549265D01*
X165727109Y-90299829D01*
X165631855Y-90069297D01*
X165455631Y-89892765D01*
X165376724Y-89860000D01*
X166189272Y-89860000D01*
X166268369Y-89939235D01*
X166498735Y-90034891D01*
X166748171Y-90035109D01*
X166978703Y-89939855D01*
X167155235Y-89763631D01*
X167250891Y-89533265D01*
X167251109Y-89283829D01*
X167155855Y-89053297D01*
X166979631Y-88876765D01*
X166900724Y-88844000D01*
X168562592Y-88844000D01*
X168816676Y-89224265D01*
X169198523Y-89479406D01*
X169648941Y-89569000D01*
X169695059Y-89569000D01*
X170145477Y-89479406D01*
X170527324Y-89224265D01*
X170782465Y-88842418D01*
X170838447Y-88560974D01*
X180800338Y-88560974D01*
X180816641Y-88642934D01*
X180992395Y-89024640D01*
X181300843Y-89310032D01*
X181695026Y-89455662D01*
X181863500Y-89412250D01*
X181863500Y-88392500D01*
X181864500Y-88392500D01*
X181864500Y-89412250D01*
X182032974Y-89455662D01*
X182427157Y-89310032D01*
X182735605Y-89024640D01*
X182911359Y-88642934D01*
X182927662Y-88560974D01*
X182884250Y-88392500D01*
X181864500Y-88392500D01*
X181863500Y-88392500D01*
X180843750Y-88392500D01*
X180800338Y-88560974D01*
X170838447Y-88560974D01*
X170872059Y-88392000D01*
X170838448Y-88223026D01*
X180800338Y-88223026D01*
X180843750Y-88391500D01*
X181863500Y-88391500D01*
X181863500Y-87371750D01*
X181864500Y-87371750D01*
X181864500Y-88391500D01*
X182884250Y-88391500D01*
X182927662Y-88223026D01*
X182911359Y-88141066D01*
X182735605Y-87759360D01*
X182427157Y-87473968D01*
X182032974Y-87328338D01*
X181864500Y-87371750D01*
X181863500Y-87371750D01*
X181695026Y-87328338D01*
X181300843Y-87473968D01*
X180992395Y-87759360D01*
X180816641Y-88141066D01*
X180800338Y-88223026D01*
X170838448Y-88223026D01*
X170782465Y-87941582D01*
X170527324Y-87559735D01*
X170145477Y-87304594D01*
X169695059Y-87215000D01*
X169648941Y-87215000D01*
X169198523Y-87304594D01*
X168816676Y-87559735D01*
X168562592Y-87940000D01*
X159004000Y-87940000D01*
X158831027Y-87974406D01*
X158684388Y-88072388D01*
X147260388Y-99496388D01*
X147162406Y-99643027D01*
X147128000Y-99816000D01*
X147128000Y-103851377D01*
X147055000Y-103836594D01*
X146505000Y-103836594D01*
X146432000Y-103850330D01*
X146432000Y-97539224D01*
X156509100Y-87462125D01*
X156521582Y-87470465D01*
X156972000Y-87560059D01*
X157422418Y-87470465D01*
X157804265Y-87215324D01*
X158059406Y-86833477D01*
X158142198Y-86417250D01*
X158435000Y-86417250D01*
X158435000Y-87255153D01*
X158469559Y-87338585D01*
X158533415Y-87402441D01*
X158616847Y-87437000D01*
X159454750Y-87437000D01*
X159511500Y-87380250D01*
X159511500Y-86360500D01*
X159512500Y-86360500D01*
X159512500Y-87380250D01*
X159569250Y-87437000D01*
X160407153Y-87437000D01*
X160490585Y-87402441D01*
X160554441Y-87338585D01*
X160589000Y-87255153D01*
X160589000Y-86417250D01*
X160532250Y-86360500D01*
X159512500Y-86360500D01*
X159511500Y-86360500D01*
X158491750Y-86360500D01*
X158435000Y-86417250D01*
X158142198Y-86417250D01*
X158149000Y-86383059D01*
X158149000Y-86336941D01*
X158059406Y-85886523D01*
X157804265Y-85504676D01*
X157744657Y-85464847D01*
X158435000Y-85464847D01*
X158435000Y-86302750D01*
X158491750Y-86359500D01*
X159511500Y-86359500D01*
X159511500Y-85339750D01*
X159512500Y-85339750D01*
X159512500Y-86359500D01*
X160532250Y-86359500D01*
X160589000Y-86302750D01*
X160589000Y-85852000D01*
X168471941Y-85852000D01*
X168561535Y-86302418D01*
X168816676Y-86684265D01*
X169198523Y-86939406D01*
X169648941Y-87029000D01*
X169695059Y-87029000D01*
X170145477Y-86939406D01*
X170527324Y-86684265D01*
X170782465Y-86302418D01*
X170872059Y-85852000D01*
X172535941Y-85852000D01*
X172625535Y-86302418D01*
X172880676Y-86684265D01*
X173262523Y-86939406D01*
X173712941Y-87029000D01*
X173759059Y-87029000D01*
X174209477Y-86939406D01*
X174591324Y-86684265D01*
X174846465Y-86302418D01*
X174936059Y-85852000D01*
X176599941Y-85852000D01*
X176689535Y-86302418D01*
X176944676Y-86684265D01*
X177326523Y-86939406D01*
X177776941Y-87029000D01*
X177823059Y-87029000D01*
X178273477Y-86939406D01*
X178655324Y-86684265D01*
X178910465Y-86302418D01*
X178966447Y-86020974D01*
X180800338Y-86020974D01*
X180816641Y-86102934D01*
X180992395Y-86484640D01*
X181300843Y-86770032D01*
X181695026Y-86915662D01*
X181863500Y-86872250D01*
X181863500Y-85852500D01*
X181864500Y-85852500D01*
X181864500Y-86872250D01*
X182032974Y-86915662D01*
X182427157Y-86770032D01*
X182735605Y-86484640D01*
X182911359Y-86102934D01*
X182927662Y-86020974D01*
X182884250Y-85852500D01*
X181864500Y-85852500D01*
X181863500Y-85852500D01*
X180843750Y-85852500D01*
X180800338Y-86020974D01*
X178966447Y-86020974D01*
X179000059Y-85852000D01*
X178966448Y-85683026D01*
X180800338Y-85683026D01*
X180843750Y-85851500D01*
X181863500Y-85851500D01*
X181863500Y-84831750D01*
X181864500Y-84831750D01*
X181864500Y-85851500D01*
X182884250Y-85851500D01*
X182927662Y-85683026D01*
X182911359Y-85601066D01*
X182735605Y-85219360D01*
X182427157Y-84933968D01*
X182032974Y-84788338D01*
X181864500Y-84831750D01*
X181863500Y-84831750D01*
X181695026Y-84788338D01*
X181300843Y-84933968D01*
X180992395Y-85219360D01*
X180816641Y-85601066D01*
X180800338Y-85683026D01*
X178966448Y-85683026D01*
X178910465Y-85401582D01*
X178655324Y-85019735D01*
X178273477Y-84764594D01*
X177823059Y-84675000D01*
X177776941Y-84675000D01*
X177326523Y-84764594D01*
X176944676Y-85019735D01*
X176689535Y-85401582D01*
X176599941Y-85852000D01*
X174936059Y-85852000D01*
X174846465Y-85401582D01*
X174591324Y-85019735D01*
X174209477Y-84764594D01*
X173759059Y-84675000D01*
X173712941Y-84675000D01*
X173262523Y-84764594D01*
X172880676Y-85019735D01*
X172625535Y-85401582D01*
X172535941Y-85852000D01*
X170872059Y-85852000D01*
X170782465Y-85401582D01*
X170527324Y-85019735D01*
X170145477Y-84764594D01*
X169695059Y-84675000D01*
X169648941Y-84675000D01*
X169198523Y-84764594D01*
X168816676Y-85019735D01*
X168561535Y-85401582D01*
X168471941Y-85852000D01*
X160589000Y-85852000D01*
X160589000Y-85464847D01*
X160554441Y-85381415D01*
X160490585Y-85317559D01*
X160407153Y-85283000D01*
X159569250Y-85283000D01*
X159512500Y-85339750D01*
X159511500Y-85339750D01*
X159454750Y-85283000D01*
X158616847Y-85283000D01*
X158533415Y-85317559D01*
X158469559Y-85381415D01*
X158435000Y-85464847D01*
X157744657Y-85464847D01*
X157422418Y-85249535D01*
X156972000Y-85159941D01*
X156521582Y-85249535D01*
X156139735Y-85504676D01*
X155884594Y-85886523D01*
X155795000Y-86336941D01*
X155795000Y-86383059D01*
X155880397Y-86812378D01*
X145660388Y-97032388D01*
X145632000Y-97074873D01*
X145632000Y-95799224D01*
X153969100Y-87462124D01*
X153981582Y-87470465D01*
X154432000Y-87560059D01*
X154882418Y-87470465D01*
X155264265Y-87215324D01*
X155519406Y-86833477D01*
X155609000Y-86383059D01*
X155609000Y-86336941D01*
X155519406Y-85886523D01*
X155264265Y-85504676D01*
X154882418Y-85249535D01*
X154432000Y-85159941D01*
X153981582Y-85249535D01*
X153599735Y-85504676D01*
X153344594Y-85886523D01*
X153255000Y-86336941D01*
X153255000Y-86383059D01*
X153340397Y-86812379D01*
X144860388Y-95292388D01*
X144762406Y-95439027D01*
X144728000Y-95612000D01*
X144728000Y-101169309D01*
X144627631Y-101068765D01*
X144397265Y-100973109D01*
X144147829Y-100972891D01*
X144032000Y-101020751D01*
X144032000Y-93843224D01*
X154563224Y-83312000D01*
X168471941Y-83312000D01*
X168561535Y-83762418D01*
X168816676Y-84144265D01*
X169198523Y-84399406D01*
X169648941Y-84489000D01*
X169695059Y-84489000D01*
X170145477Y-84399406D01*
X170527324Y-84144265D01*
X170782465Y-83762418D01*
X170872059Y-83312000D01*
X172535941Y-83312000D01*
X172625535Y-83762418D01*
X172880676Y-84144265D01*
X173262523Y-84399406D01*
X173712941Y-84489000D01*
X173759059Y-84489000D01*
X174209477Y-84399406D01*
X174591324Y-84144265D01*
X174846465Y-83762418D01*
X174936059Y-83312000D01*
X176599941Y-83312000D01*
X176689535Y-83762418D01*
X176944676Y-84144265D01*
X177326523Y-84399406D01*
X177776941Y-84489000D01*
X177823059Y-84489000D01*
X178273477Y-84399406D01*
X178655324Y-84144265D01*
X178910465Y-83762418D01*
X178966447Y-83480974D01*
X180800338Y-83480974D01*
X180816641Y-83562934D01*
X180992395Y-83944640D01*
X181300843Y-84230032D01*
X181695026Y-84375662D01*
X181863500Y-84332250D01*
X181863500Y-83312500D01*
X181864500Y-83312500D01*
X181864500Y-84332250D01*
X182032974Y-84375662D01*
X182427157Y-84230032D01*
X182735605Y-83944640D01*
X182911359Y-83562934D01*
X182927662Y-83480974D01*
X182884250Y-83312500D01*
X181864500Y-83312500D01*
X181863500Y-83312500D01*
X180843750Y-83312500D01*
X180800338Y-83480974D01*
X178966447Y-83480974D01*
X179000059Y-83312000D01*
X178966448Y-83143026D01*
X180800338Y-83143026D01*
X180843750Y-83311500D01*
X181863500Y-83311500D01*
X181863500Y-82291750D01*
X181864500Y-82291750D01*
X181864500Y-83311500D01*
X182884250Y-83311500D01*
X182927662Y-83143026D01*
X182911359Y-83061066D01*
X182735605Y-82679360D01*
X182427157Y-82393968D01*
X182032974Y-82248338D01*
X181864500Y-82291750D01*
X181863500Y-82291750D01*
X181695026Y-82248338D01*
X181300843Y-82393968D01*
X180992395Y-82679360D01*
X180816641Y-83061066D01*
X180800338Y-83143026D01*
X178966448Y-83143026D01*
X178910465Y-82861582D01*
X178655324Y-82479735D01*
X178273477Y-82224594D01*
X177823059Y-82135000D01*
X177776941Y-82135000D01*
X177326523Y-82224594D01*
X176944676Y-82479735D01*
X176689535Y-82861582D01*
X176599941Y-83312000D01*
X174936059Y-83312000D01*
X174846465Y-82861582D01*
X174591324Y-82479735D01*
X174209477Y-82224594D01*
X173759059Y-82135000D01*
X173712941Y-82135000D01*
X173262523Y-82224594D01*
X172880676Y-82479735D01*
X172625535Y-82861582D01*
X172535941Y-83312000D01*
X170872059Y-83312000D01*
X170782465Y-82861582D01*
X170527324Y-82479735D01*
X170145477Y-82224594D01*
X169695059Y-82135000D01*
X169648941Y-82135000D01*
X169198523Y-82224594D01*
X168816676Y-82479735D01*
X168561535Y-82861582D01*
X168471941Y-83312000D01*
X154563224Y-83312000D01*
X154619225Y-83256000D01*
X155448000Y-83256000D01*
X155620973Y-83221594D01*
X155767612Y-83123612D01*
X156509100Y-82382125D01*
X156521582Y-82390465D01*
X156972000Y-82480059D01*
X157422418Y-82390465D01*
X157804265Y-82135324D01*
X158059406Y-81753477D01*
X158149000Y-81303059D01*
X158149000Y-81256941D01*
X158335000Y-81256941D01*
X158335000Y-81303059D01*
X158424594Y-81753477D01*
X158679735Y-82135324D01*
X159061582Y-82390465D01*
X159512000Y-82480059D01*
X159962418Y-82390465D01*
X160344265Y-82135324D01*
X160599406Y-81753477D01*
X160689000Y-81303059D01*
X160689000Y-81256941D01*
X160599406Y-80806523D01*
X160344265Y-80424676D01*
X159962418Y-80169535D01*
X159512000Y-80079941D01*
X159061582Y-80169535D01*
X158679735Y-80424676D01*
X158424594Y-80806523D01*
X158335000Y-81256941D01*
X158149000Y-81256941D01*
X158059406Y-80806523D01*
X157804265Y-80424676D01*
X157422418Y-80169535D01*
X156972000Y-80079941D01*
X156521582Y-80169535D01*
X156139735Y-80424676D01*
X155884594Y-80806523D01*
X155795000Y-81256941D01*
X155795000Y-81303059D01*
X155880397Y-81732378D01*
X155260776Y-82352000D01*
X154939985Y-82352000D01*
X155264265Y-82135324D01*
X155519406Y-81753477D01*
X155609000Y-81303059D01*
X155609000Y-81256941D01*
X155519406Y-80806523D01*
X155264265Y-80424676D01*
X154882418Y-80169535D01*
X154432000Y-80079941D01*
X153981582Y-80169535D01*
X153599735Y-80424676D01*
X153344594Y-80806523D01*
X153255000Y-81256941D01*
X153255000Y-81303059D01*
X153340397Y-81732378D01*
X152969000Y-82103775D01*
X152969000Y-81337250D01*
X152912250Y-81280500D01*
X151892500Y-81280500D01*
X151892500Y-82300250D01*
X151949250Y-82357000D01*
X152715775Y-82357000D01*
X142460388Y-92612388D01*
X142362406Y-92759027D01*
X142328000Y-92932000D01*
X142328000Y-103851377D01*
X142255000Y-103836594D01*
X141705000Y-103836594D01*
X141583821Y-103859395D01*
X141538064Y-103888839D01*
X137612000Y-99962776D01*
X137612000Y-96784843D01*
X138243864Y-96784843D01*
X138353063Y-96952404D01*
X138796437Y-97156588D01*
X139284198Y-97175557D01*
X139742091Y-97006425D01*
X139822937Y-96952404D01*
X139932136Y-96784843D01*
X139088000Y-95940707D01*
X138243864Y-96784843D01*
X137612000Y-96784843D01*
X137612000Y-96136198D01*
X137852443Y-96136198D01*
X138021575Y-96594091D01*
X138075596Y-96674937D01*
X138243157Y-96784136D01*
X139087293Y-95940000D01*
X139088707Y-95940000D01*
X139932843Y-96784136D01*
X140100404Y-96674937D01*
X140304588Y-96231563D01*
X140323557Y-95743802D01*
X140154425Y-95285909D01*
X140100404Y-95205063D01*
X139932843Y-95095864D01*
X139088707Y-95940000D01*
X139087293Y-95940000D01*
X138243157Y-95095864D01*
X138075596Y-95205063D01*
X137871412Y-95648437D01*
X137852443Y-96136198D01*
X137612000Y-96136198D01*
X137612000Y-95095157D01*
X138243864Y-95095157D01*
X139088000Y-95939293D01*
X139932136Y-95095157D01*
X139822937Y-94927596D01*
X139379563Y-94723412D01*
X138891802Y-94704443D01*
X138433909Y-94873575D01*
X138353063Y-94927596D01*
X138243864Y-95095157D01*
X137612000Y-95095157D01*
X137612000Y-91702798D01*
X137760771Y-91702798D01*
X137962369Y-92190703D01*
X138335334Y-92564319D01*
X138822885Y-92766769D01*
X139350798Y-92767229D01*
X139838703Y-92565631D01*
X140212319Y-92192666D01*
X140414769Y-91705115D01*
X140415229Y-91177202D01*
X140213631Y-90689297D01*
X139840666Y-90315681D01*
X139353115Y-90113231D01*
X138825202Y-90112771D01*
X138337297Y-90314369D01*
X137963681Y-90687334D01*
X137761231Y-91174885D01*
X137760771Y-91702798D01*
X137612000Y-91702798D01*
X137612000Y-88392000D01*
X137577594Y-88219027D01*
X137479612Y-88072388D01*
X134564000Y-85156776D01*
X134564000Y-82562054D01*
X135145560Y-82321758D01*
X135659952Y-81808264D01*
X135938682Y-81137007D01*
X135939316Y-80410182D01*
X135661758Y-79738440D01*
X135196133Y-79272000D01*
X137358594Y-79272000D01*
X137358594Y-82272000D01*
X137381395Y-82393179D01*
X137453012Y-82504474D01*
X137562286Y-82579138D01*
X137692000Y-82605406D01*
X140692000Y-82605406D01*
X140813179Y-82582605D01*
X140924474Y-82510988D01*
X140999138Y-82401714D01*
X141025406Y-82272000D01*
X141025406Y-81337250D01*
X150815000Y-81337250D01*
X150815000Y-82175153D01*
X150849559Y-82258585D01*
X150913415Y-82322441D01*
X150996847Y-82357000D01*
X151834750Y-82357000D01*
X151891500Y-82300250D01*
X151891500Y-81280500D01*
X150871750Y-81280500D01*
X150815000Y-81337250D01*
X141025406Y-81337250D01*
X141025406Y-80384847D01*
X150815000Y-80384847D01*
X150815000Y-81222750D01*
X150871750Y-81279500D01*
X151891500Y-81279500D01*
X151891500Y-80259750D01*
X151892500Y-80259750D01*
X151892500Y-81279500D01*
X152912250Y-81279500D01*
X152969000Y-81222750D01*
X152969000Y-80384847D01*
X152934441Y-80301415D01*
X152870585Y-80237559D01*
X152787153Y-80203000D01*
X151949250Y-80203000D01*
X151892500Y-80259750D01*
X151891500Y-80259750D01*
X151834750Y-80203000D01*
X150996847Y-80203000D01*
X150913415Y-80237559D01*
X150849559Y-80301415D01*
X150815000Y-80384847D01*
X141025406Y-80384847D01*
X141025406Y-79922000D01*
X168488594Y-79922000D01*
X168488594Y-81622000D01*
X168511395Y-81743179D01*
X168583012Y-81854474D01*
X168692286Y-81929138D01*
X168822000Y-81955406D01*
X170522000Y-81955406D01*
X170643179Y-81932605D01*
X170754474Y-81860988D01*
X170829138Y-81751714D01*
X170855406Y-81622000D01*
X170855406Y-79922000D01*
X172552594Y-79922000D01*
X172552594Y-81622000D01*
X172575395Y-81743179D01*
X172647012Y-81854474D01*
X172756286Y-81929138D01*
X172886000Y-81955406D01*
X174586000Y-81955406D01*
X174707179Y-81932605D01*
X174818474Y-81860988D01*
X174893138Y-81751714D01*
X174919406Y-81622000D01*
X174919406Y-79922000D01*
X176616594Y-79922000D01*
X176616594Y-81622000D01*
X176639395Y-81743179D01*
X176711012Y-81854474D01*
X176820286Y-81929138D01*
X176950000Y-81955406D01*
X178650000Y-81955406D01*
X178771179Y-81932605D01*
X178882474Y-81860988D01*
X178957138Y-81751714D01*
X178983406Y-81622000D01*
X178983406Y-80829250D01*
X180787000Y-80829250D01*
X180787000Y-81667153D01*
X180821559Y-81750585D01*
X180885415Y-81814441D01*
X180968847Y-81849000D01*
X181806750Y-81849000D01*
X181863500Y-81792250D01*
X181863500Y-80772500D01*
X181864500Y-80772500D01*
X181864500Y-81792250D01*
X181921250Y-81849000D01*
X182759153Y-81849000D01*
X182842585Y-81814441D01*
X182906441Y-81750585D01*
X182941000Y-81667153D01*
X182941000Y-80829250D01*
X182884250Y-80772500D01*
X181864500Y-80772500D01*
X181863500Y-80772500D01*
X180843750Y-80772500D01*
X180787000Y-80829250D01*
X178983406Y-80829250D01*
X178983406Y-79922000D01*
X178974911Y-79876847D01*
X180787000Y-79876847D01*
X180787000Y-80714750D01*
X180843750Y-80771500D01*
X181863500Y-80771500D01*
X181863500Y-79751750D01*
X181864500Y-79751750D01*
X181864500Y-80771500D01*
X182884250Y-80771500D01*
X182941000Y-80714750D01*
X182941000Y-79876847D01*
X182906441Y-79793415D01*
X182842585Y-79729559D01*
X182759153Y-79695000D01*
X181921250Y-79695000D01*
X181864500Y-79751750D01*
X181863500Y-79751750D01*
X181806750Y-79695000D01*
X180968847Y-79695000D01*
X180885415Y-79729559D01*
X180821559Y-79793415D01*
X180787000Y-79876847D01*
X178974911Y-79876847D01*
X178960605Y-79800821D01*
X178888988Y-79689526D01*
X178779714Y-79614862D01*
X178650000Y-79588594D01*
X176950000Y-79588594D01*
X176828821Y-79611395D01*
X176717526Y-79683012D01*
X176642862Y-79792286D01*
X176616594Y-79922000D01*
X174919406Y-79922000D01*
X174896605Y-79800821D01*
X174824988Y-79689526D01*
X174715714Y-79614862D01*
X174586000Y-79588594D01*
X172886000Y-79588594D01*
X172764821Y-79611395D01*
X172653526Y-79683012D01*
X172578862Y-79792286D01*
X172552594Y-79922000D01*
X170855406Y-79922000D01*
X170832605Y-79800821D01*
X170760988Y-79689526D01*
X170651714Y-79614862D01*
X170522000Y-79588594D01*
X168822000Y-79588594D01*
X168700821Y-79611395D01*
X168589526Y-79683012D01*
X168514862Y-79792286D01*
X168488594Y-79922000D01*
X141025406Y-79922000D01*
X141025406Y-79272000D01*
X141002605Y-79150821D01*
X140930988Y-79039526D01*
X140821714Y-78964862D01*
X140692000Y-78938594D01*
X137692000Y-78938594D01*
X137570821Y-78961395D01*
X137459526Y-79033012D01*
X137384862Y-79142286D01*
X137358594Y-79272000D01*
X135196133Y-79272000D01*
X135148264Y-79224048D01*
X134477007Y-78945318D01*
X133750182Y-78944684D01*
X133078440Y-79222242D01*
X132564048Y-79735736D01*
X132285318Y-80406993D01*
X132284684Y-81133818D01*
X132562242Y-81805560D01*
X133075736Y-82319952D01*
X133660000Y-82562559D01*
X133660000Y-85344000D01*
X133694406Y-85516973D01*
X133792388Y-85663612D01*
X136708000Y-88579224D01*
X136708000Y-100150000D01*
X136742406Y-100322973D01*
X136840388Y-100469612D01*
X141371594Y-105000819D01*
X141371594Y-105770000D01*
X141381378Y-105821998D01*
X141330000Y-105811594D01*
X140560818Y-105811594D01*
X136088000Y-101338776D01*
X136088000Y-89408000D01*
X136053594Y-89235027D01*
X136046403Y-89224265D01*
X135955612Y-89088387D01*
X129484000Y-82616776D01*
X129484000Y-82562054D01*
X130065560Y-82321758D01*
X130579952Y-81808264D01*
X130858682Y-81137007D01*
X130859316Y-80410182D01*
X130581758Y-79738440D01*
X130068264Y-79224048D01*
X129397007Y-78945318D01*
X128670182Y-78944684D01*
X127998440Y-79222242D01*
X127484048Y-79735736D01*
X127205318Y-80406993D01*
X127204684Y-81133818D01*
X125666200Y-81133818D01*
X125691078Y-80496051D01*
X125453096Y-79851540D01*
X125376839Y-79737412D01*
X125157323Y-79567384D01*
X123952707Y-80772000D01*
X123951293Y-80772000D01*
X122746677Y-79567384D01*
X122527161Y-79737412D01*
X122239701Y-80361428D01*
X122212922Y-81047949D01*
X108551110Y-81047949D01*
X108606000Y-80772000D01*
X108420723Y-79840549D01*
X108237728Y-79566677D01*
X122747384Y-79566677D01*
X123952000Y-80771293D01*
X125156616Y-79566677D01*
X124986588Y-79347161D01*
X124362572Y-79059701D01*
X123676051Y-79032922D01*
X123031540Y-79270904D01*
X122917412Y-79347161D01*
X122747384Y-79566677D01*
X108237728Y-79566677D01*
X107893098Y-79050902D01*
X107103451Y-78523277D01*
X106172000Y-78338000D01*
X105240549Y-78523277D01*
X104649207Y-78918399D01*
X105716606Y-77851000D01*
X184342961Y-77851000D01*
X186309000Y-80308549D01*
X186309000Y-80308549D01*
G37*
X186309000Y-80308549D02*
X186309000Y-132535394D01*
X185241601Y-133602793D01*
X185636723Y-133011451D01*
X185822000Y-132080000D01*
X185636723Y-131148549D01*
X185109098Y-130358902D01*
X184319451Y-129831277D01*
X183388000Y-129646000D01*
X182456549Y-129831277D01*
X181666902Y-130358902D01*
X181139277Y-131148549D01*
X180954000Y-132080000D01*
X181139277Y-133011451D01*
X181666902Y-133801098D01*
X182456549Y-134328723D01*
X183388000Y-134514000D01*
X184319451Y-134328723D01*
X184910793Y-133933601D01*
X183843394Y-135001000D01*
X105716606Y-135001000D01*
X103251000Y-132535394D01*
X103251000Y-132105250D01*
X134559000Y-132105250D01*
X134559000Y-133093153D01*
X134593559Y-133176585D01*
X134657415Y-133240441D01*
X134740847Y-133275000D01*
X135578750Y-133275000D01*
X135635500Y-133218250D01*
X135635500Y-132048500D01*
X135636500Y-132048500D01*
X135636500Y-133218250D01*
X135693250Y-133275000D01*
X136531153Y-133275000D01*
X136614585Y-133240441D01*
X136678441Y-133176585D01*
X136713000Y-133093153D01*
X136713000Y-132105250D01*
X137607000Y-132105250D01*
X137607000Y-133093153D01*
X137641559Y-133176585D01*
X137705415Y-133240441D01*
X137788847Y-133275000D01*
X138626750Y-133275000D01*
X138683500Y-133218250D01*
X138683500Y-132048500D01*
X138684500Y-132048500D01*
X138684500Y-133218250D01*
X138741250Y-133275000D01*
X139579153Y-133275000D01*
X139662585Y-133240441D01*
X139726441Y-133176585D01*
X139761000Y-133093153D01*
X139761000Y-132105250D01*
X139704250Y-132048500D01*
X138684500Y-132048500D01*
X138683500Y-132048500D01*
X137663750Y-132048500D01*
X137607000Y-132105250D01*
X136713000Y-132105250D01*
X136656250Y-132048500D01*
X135636500Y-132048500D01*
X135635500Y-132048500D01*
X134615750Y-132048500D01*
X134559000Y-132105250D01*
X103251000Y-132105250D01*
X103251000Y-131002847D01*
X134559000Y-131002847D01*
X134559000Y-131990750D01*
X134615750Y-132047500D01*
X135635500Y-132047500D01*
X135635500Y-130877750D01*
X135636500Y-130877750D01*
X135636500Y-132047500D01*
X136656250Y-132047500D01*
X136713000Y-131990750D01*
X136713000Y-131002847D01*
X137607000Y-131002847D01*
X137607000Y-131990750D01*
X137663750Y-132047500D01*
X138683500Y-132047500D01*
X138683500Y-130877750D01*
X138684500Y-130877750D01*
X138684500Y-132047500D01*
X139704250Y-132047500D01*
X139761000Y-131990750D01*
X139761000Y-131002847D01*
X139726441Y-130919415D01*
X139662585Y-130855559D01*
X139579153Y-130821000D01*
X138741250Y-130821000D01*
X138684500Y-130877750D01*
X138683500Y-130877750D01*
X138626750Y-130821000D01*
X137788847Y-130821000D01*
X137705415Y-130855559D01*
X137641559Y-130919415D01*
X137607000Y-131002847D01*
X136713000Y-131002847D01*
X136678441Y-130919415D01*
X136614585Y-130855559D01*
X136531153Y-130821000D01*
X135693250Y-130821000D01*
X135636500Y-130877750D01*
X135635500Y-130877750D01*
X135578750Y-130821000D01*
X134740847Y-130821000D01*
X134657415Y-130855559D01*
X134593559Y-130919415D01*
X134559000Y-131002847D01*
X103251000Y-131002847D01*
X103251000Y-129368843D01*
X105855864Y-129368843D01*
X105965063Y-129536404D01*
X106408437Y-129740588D01*
X106896198Y-129759557D01*
X107354091Y-129590425D01*
X107434937Y-129536404D01*
X107544136Y-129368843D01*
X106700000Y-128524707D01*
X105855864Y-129368843D01*
X103251000Y-129368843D01*
X103251000Y-128720198D01*
X105464443Y-128720198D01*
X105633575Y-129178091D01*
X105687596Y-129258937D01*
X105855157Y-129368136D01*
X106699293Y-128524000D01*
X106700707Y-128524000D01*
X107544843Y-129368136D01*
X107712404Y-129258937D01*
X107916588Y-128815563D01*
X107935557Y-128327802D01*
X107766425Y-127869909D01*
X107712404Y-127789063D01*
X107544843Y-127679864D01*
X106700707Y-128524000D01*
X106699293Y-128524000D01*
X105855157Y-127679864D01*
X105687596Y-127789063D01*
X105483412Y-128232437D01*
X105464443Y-128720198D01*
X103251000Y-128720198D01*
X103251000Y-127679157D01*
X105855864Y-127679157D01*
X106700000Y-128523293D01*
X107544136Y-127679157D01*
X107443021Y-127524000D01*
X112966594Y-127524000D01*
X112966594Y-129524000D01*
X112989395Y-129645179D01*
X113061012Y-129756474D01*
X113170286Y-129831138D01*
X113300000Y-129857406D01*
X115300000Y-129857406D01*
X115421179Y-129834605D01*
X115532474Y-129762988D01*
X115607138Y-129653714D01*
X115633406Y-129524000D01*
X115633406Y-128976000D01*
X128016000Y-128976000D01*
X128188973Y-128941594D01*
X128335612Y-128843612D01*
X133071281Y-124107943D01*
X132977109Y-124334735D01*
X132976891Y-124584171D01*
X133072145Y-124814703D01*
X133248369Y-124991235D01*
X133478735Y-125086891D01*
X133728171Y-125087109D01*
X133958703Y-124991855D01*
X134038698Y-124912000D01*
X135359094Y-124912000D01*
X135281297Y-124944145D01*
X135104765Y-125120369D01*
X135009109Y-125350735D01*
X135008891Y-125600171D01*
X135059000Y-125721444D01*
X135059000Y-126714594D01*
X134786000Y-126714594D01*
X134664821Y-126737395D01*
X134553526Y-126809012D01*
X134478862Y-126918286D01*
X134452594Y-127048000D01*
X134452594Y-129048000D01*
X134475395Y-129169179D01*
X134547012Y-129280474D01*
X134656286Y-129355138D01*
X134786000Y-129381406D01*
X136486000Y-129381406D01*
X136607179Y-129358605D01*
X136718474Y-129286988D01*
X136793138Y-129177714D01*
X136819406Y-129048000D01*
X136819406Y-127048000D01*
X136796605Y-126926821D01*
X136724988Y-126815526D01*
X136615714Y-126740862D01*
X136486000Y-126714594D01*
X136213000Y-126714594D01*
X136213000Y-125721416D01*
X136262891Y-125601265D01*
X136263109Y-125351829D01*
X136167855Y-125121297D01*
X135991631Y-124944765D01*
X135912724Y-124912000D01*
X138407094Y-124912000D01*
X138329297Y-124944145D01*
X138152765Y-125120369D01*
X138057109Y-125350735D01*
X138056891Y-125600171D01*
X138107000Y-125721444D01*
X138107000Y-126714594D01*
X137834000Y-126714594D01*
X137712821Y-126737395D01*
X137601526Y-126809012D01*
X137526862Y-126918286D01*
X137500594Y-127048000D01*
X137500594Y-129048000D01*
X137523395Y-129169179D01*
X137595012Y-129280474D01*
X137704286Y-129355138D01*
X137834000Y-129381406D01*
X139534000Y-129381406D01*
X139655179Y-129358605D01*
X139766474Y-129286988D01*
X139841138Y-129177714D01*
X139867406Y-129048000D01*
X139867406Y-127168974D01*
X146256338Y-127168974D01*
X146401968Y-127563157D01*
X146687360Y-127871605D01*
X147069066Y-128047359D01*
X147151026Y-128063662D01*
X147319500Y-128020250D01*
X147319500Y-127000500D01*
X147320500Y-127000500D01*
X147320500Y-128020250D01*
X147488974Y-128063662D01*
X147570934Y-128047359D01*
X147952640Y-127871605D01*
X148238032Y-127563157D01*
X148383662Y-127168974D01*
X148340250Y-127000500D01*
X147320500Y-127000500D01*
X147319500Y-127000500D01*
X146299750Y-127000500D01*
X146256338Y-127168974D01*
X139867406Y-127168974D01*
X139867406Y-127048000D01*
X139844605Y-126926821D01*
X139782963Y-126831026D01*
X146256338Y-126831026D01*
X146299750Y-126999500D01*
X147319500Y-126999500D01*
X147319500Y-125979750D01*
X147320500Y-125979750D01*
X147320500Y-126999500D01*
X148340250Y-126999500D01*
X148346062Y-126976941D01*
X148683000Y-126976941D01*
X148683000Y-127023059D01*
X148772594Y-127473477D01*
X149027735Y-127855324D01*
X149409582Y-128110465D01*
X149860000Y-128200059D01*
X150310418Y-128110465D01*
X150322900Y-128102124D01*
X151572388Y-129351612D01*
X151719027Y-129449594D01*
X151892000Y-129484000D01*
X168148000Y-129484000D01*
X168320973Y-129449594D01*
X168467612Y-129351612D01*
X169079224Y-128740000D01*
X171586594Y-128740000D01*
X171586594Y-130340000D01*
X171609395Y-130461179D01*
X171681012Y-130572474D01*
X171790286Y-130647138D01*
X171920000Y-130673406D01*
X173520000Y-130673406D01*
X173641179Y-130650605D01*
X173752474Y-130578988D01*
X173827138Y-130469714D01*
X173853406Y-130340000D01*
X173853406Y-130240651D01*
X174520056Y-130240651D01*
X174604923Y-130387432D01*
X174976041Y-130558304D01*
X175384300Y-130574150D01*
X175767545Y-130432555D01*
X175835077Y-130387432D01*
X175919944Y-130240651D01*
X175220000Y-129540707D01*
X174520056Y-130240651D01*
X173853406Y-130240651D01*
X173853406Y-129704300D01*
X174185850Y-129704300D01*
X174327445Y-130087545D01*
X174372568Y-130155077D01*
X174519349Y-130239944D01*
X175219293Y-129540000D01*
X175220707Y-129540000D01*
X175920651Y-130239944D01*
X176067432Y-130155077D01*
X176238304Y-129783959D01*
X176254150Y-129375700D01*
X176112555Y-128992455D01*
X176067432Y-128924923D01*
X175920651Y-128840056D01*
X175220707Y-129540000D01*
X175219293Y-129540000D01*
X174519349Y-128840056D01*
X174372568Y-128924923D01*
X174201696Y-129296041D01*
X174185850Y-129704300D01*
X173853406Y-129704300D01*
X173853406Y-128839349D01*
X174520056Y-128839349D01*
X175220000Y-129539293D01*
X175919944Y-128839349D01*
X175835077Y-128692568D01*
X175463959Y-128521696D01*
X175055700Y-128505850D01*
X174672455Y-128647445D01*
X174604923Y-128692568D01*
X174520056Y-128839349D01*
X173853406Y-128839349D01*
X173853406Y-128740000D01*
X173830605Y-128618821D01*
X173758988Y-128507526D01*
X173649714Y-128432862D01*
X173520000Y-128406594D01*
X171920000Y-128406594D01*
X171798821Y-128429395D01*
X171687526Y-128501012D01*
X171612862Y-128610286D01*
X171586594Y-128740000D01*
X169079224Y-128740000D01*
X173145779Y-124673445D01*
X173204145Y-124814703D01*
X173380369Y-124991235D01*
X173610735Y-125086891D01*
X173860171Y-125087109D01*
X174090703Y-124991855D01*
X174267235Y-124815631D01*
X174362891Y-124585265D01*
X174362990Y-124472234D01*
X177103612Y-121731612D01*
X177201594Y-121584973D01*
X177236000Y-121412000D01*
X177236000Y-118388000D01*
X181554594Y-118388000D01*
X181554594Y-121388000D01*
X181577395Y-121509179D01*
X181649012Y-121620474D01*
X181758286Y-121695138D01*
X181888000Y-121721406D01*
X184888000Y-121721406D01*
X185009179Y-121698605D01*
X185120474Y-121626988D01*
X185195138Y-121517714D01*
X185221406Y-121388000D01*
X185221406Y-118388000D01*
X185198605Y-118266821D01*
X185126988Y-118155526D01*
X185017714Y-118080862D01*
X184888000Y-118054594D01*
X181888000Y-118054594D01*
X181766821Y-118077395D01*
X181655526Y-118149012D01*
X181580862Y-118258286D01*
X181554594Y-118388000D01*
X177236000Y-118388000D01*
X177236000Y-115242728D01*
X177309037Y-115169818D01*
X181560684Y-115169818D01*
X181838242Y-115841560D01*
X182351736Y-116355952D01*
X183022993Y-116634682D01*
X183749818Y-116635316D01*
X184421560Y-116357758D01*
X184935952Y-115844264D01*
X185214682Y-115173007D01*
X185215316Y-114446182D01*
X184937758Y-113774440D01*
X184424264Y-113260048D01*
X183753007Y-112981318D01*
X183026182Y-112980684D01*
X182354440Y-113258242D01*
X181840048Y-113771736D01*
X181561318Y-114442993D01*
X181560684Y-115169818D01*
X177309037Y-115169818D01*
X177315235Y-115163631D01*
X177410891Y-114933265D01*
X177411109Y-114683829D01*
X177315855Y-114453297D01*
X177139631Y-114276765D01*
X176909265Y-114181109D01*
X176659829Y-114180891D01*
X176429297Y-114276145D01*
X176252765Y-114452369D01*
X176157109Y-114682735D01*
X176156891Y-114932171D01*
X176252145Y-115162703D01*
X176332000Y-115242698D01*
X176332000Y-119812776D01*
X174563612Y-118044388D01*
X174416973Y-117946406D01*
X174244000Y-117912000D01*
X173228000Y-117912000D01*
X173083724Y-117940698D01*
X173055026Y-117946406D01*
X172908387Y-118044388D01*
X172532776Y-118420000D01*
X171737449Y-118420000D01*
X171506988Y-118075091D01*
X171141363Y-117830788D01*
X170710079Y-117745000D01*
X170665921Y-117745000D01*
X170234637Y-117830788D01*
X169869012Y-118075091D01*
X169624709Y-118440716D01*
X169538921Y-118872000D01*
X169624709Y-119303284D01*
X169869012Y-119668909D01*
X170234637Y-119913212D01*
X170665921Y-119999000D01*
X170710079Y-119999000D01*
X171141363Y-119913212D01*
X171506988Y-119668909D01*
X171737449Y-119324000D01*
X172720000Y-119324000D01*
X172892973Y-119289594D01*
X173039612Y-119191612D01*
X173415225Y-118816000D01*
X174056776Y-118816000D01*
X174596057Y-119355281D01*
X174369265Y-119261109D01*
X174119829Y-119260891D01*
X173889297Y-119356145D01*
X173712765Y-119532369D01*
X173662445Y-119653554D01*
X172311999Y-121003999D01*
X172186922Y-121191192D01*
X172142999Y-121412000D01*
X172143000Y-121412005D01*
X172143000Y-123204999D01*
X171972998Y-123375000D01*
X168895001Y-123375000D01*
X166132002Y-120612000D01*
X169554594Y-120612000D01*
X169554594Y-122212000D01*
X169577395Y-122333179D01*
X169649012Y-122444474D01*
X169758286Y-122519138D01*
X169888000Y-122545406D01*
X171488000Y-122545406D01*
X171609179Y-122522605D01*
X171720474Y-122450988D01*
X171795138Y-122341714D01*
X171821406Y-122212000D01*
X171821406Y-120612000D01*
X171798605Y-120490821D01*
X171726988Y-120379526D01*
X171617714Y-120304862D01*
X171488000Y-120278594D01*
X169888000Y-120278594D01*
X169766821Y-120301395D01*
X169655526Y-120373012D01*
X169580862Y-120482286D01*
X169554594Y-120612000D01*
X166132002Y-120612000D01*
X165677000Y-120156998D01*
X165677000Y-117856000D01*
X165659017Y-117765594D01*
X165633078Y-117635191D01*
X165542993Y-117500369D01*
X165508001Y-117447999D01*
X165507998Y-117447997D01*
X164392002Y-116332000D01*
X169538921Y-116332000D01*
X169624709Y-116763284D01*
X169869012Y-117128909D01*
X170234637Y-117373212D01*
X170665921Y-117459000D01*
X170710079Y-117459000D01*
X171141363Y-117373212D01*
X171506988Y-117128909D01*
X171751291Y-116763284D01*
X171837079Y-116332000D01*
X171781818Y-116054184D01*
X178547001Y-109289000D01*
X181554594Y-109289000D01*
X181554594Y-110212000D01*
X181577395Y-110333179D01*
X181649012Y-110444474D01*
X181758286Y-110519138D01*
X181888000Y-110545406D01*
X184888000Y-110545406D01*
X185009179Y-110522605D01*
X185120474Y-110450988D01*
X185195138Y-110341714D01*
X185221406Y-110212000D01*
X185221406Y-107212000D01*
X185198605Y-107090821D01*
X185126988Y-106979526D01*
X185017714Y-106904862D01*
X184888000Y-106878594D01*
X181888000Y-106878594D01*
X181766821Y-106901395D01*
X181655526Y-106973012D01*
X181580862Y-107082286D01*
X181554594Y-107212000D01*
X181554594Y-108135000D01*
X178308000Y-108135000D01*
X178087192Y-108178922D01*
X177899999Y-108303999D01*
X177899997Y-108304002D01*
X170951063Y-115252935D01*
X170710079Y-115205000D01*
X170665921Y-115205000D01*
X170234637Y-115290788D01*
X169869012Y-115535091D01*
X169624709Y-115900716D01*
X169538921Y-116332000D01*
X164392002Y-116332000D01*
X164173645Y-116113643D01*
X164131291Y-115900716D01*
X163886988Y-115535091D01*
X163521363Y-115290788D01*
X163090079Y-115205000D01*
X163045921Y-115205000D01*
X162614637Y-115290788D01*
X162249012Y-115535091D01*
X162004709Y-115900716D01*
X161918921Y-116332000D01*
X162004709Y-116763284D01*
X162249012Y-117128909D01*
X162614637Y-117373212D01*
X163045921Y-117459000D01*
X163090079Y-117459000D01*
X163521363Y-117373212D01*
X163689119Y-117261121D01*
X164523000Y-118095001D01*
X164523000Y-120395995D01*
X164522999Y-120396000D01*
X164566922Y-120616808D01*
X164691999Y-120804001D01*
X168247997Y-124359998D01*
X168247999Y-124360001D01*
X168360213Y-124434979D01*
X168435191Y-124485078D01*
X168656000Y-124529000D01*
X172011776Y-124529000D01*
X167960776Y-128580000D01*
X152079224Y-128580000D01*
X150951603Y-127452379D01*
X151037000Y-127023059D01*
X151037000Y-126976941D01*
X151223000Y-126976941D01*
X151223000Y-127023059D01*
X151312594Y-127473477D01*
X151567735Y-127855324D01*
X151949582Y-128110465D01*
X152400000Y-128200059D01*
X152850418Y-128110465D01*
X153232265Y-127855324D01*
X153487406Y-127473477D01*
X153577000Y-127023059D01*
X153577000Y-126976941D01*
X153487406Y-126526523D01*
X153232265Y-126144676D01*
X152850418Y-125889535D01*
X152400000Y-125799941D01*
X151949582Y-125889535D01*
X151567735Y-126144676D01*
X151312594Y-126526523D01*
X151223000Y-126976941D01*
X151037000Y-126976941D01*
X150947406Y-126526523D01*
X150692265Y-126144676D01*
X150310418Y-125889535D01*
X149860000Y-125799941D01*
X149409582Y-125889535D01*
X149027735Y-126144676D01*
X148772594Y-126526523D01*
X148683000Y-126976941D01*
X148346062Y-126976941D01*
X148383662Y-126831026D01*
X148238032Y-126436843D01*
X147952640Y-126128395D01*
X147570934Y-125952641D01*
X147488974Y-125936338D01*
X147320500Y-125979750D01*
X147319500Y-125979750D01*
X147151026Y-125936338D01*
X147069066Y-125952641D01*
X146687360Y-126128395D01*
X146401968Y-126436843D01*
X146256338Y-126831026D01*
X139782963Y-126831026D01*
X139772988Y-126815526D01*
X139663714Y-126740862D01*
X139534000Y-126714594D01*
X139261000Y-126714594D01*
X139261000Y-125721416D01*
X139310891Y-125601265D01*
X139311109Y-125351829D01*
X139215855Y-125121297D01*
X139039631Y-124944765D01*
X138960724Y-124912000D01*
X146228322Y-124912000D01*
X146232594Y-124933477D01*
X146487735Y-125315324D01*
X146869582Y-125570465D01*
X147320000Y-125660059D01*
X147770418Y-125570465D01*
X148152265Y-125315324D01*
X148407406Y-124933477D01*
X148497000Y-124483059D01*
X148497000Y-124436941D01*
X148407406Y-123986523D01*
X148152265Y-123604676D01*
X147770418Y-123349535D01*
X147320000Y-123259941D01*
X146869582Y-123349535D01*
X146487735Y-123604676D01*
X146232594Y-123986523D01*
X146228322Y-124008000D01*
X134038728Y-124008000D01*
X133959631Y-123928765D01*
X133729265Y-123833109D01*
X133479829Y-123832891D01*
X133252334Y-123926890D01*
X141411224Y-115768000D01*
X142240000Y-115768000D01*
X142412973Y-115733594D01*
X142559612Y-115635612D01*
X143099612Y-115095612D01*
X143128000Y-115053127D01*
X143128000Y-115132000D01*
X143162406Y-115304973D01*
X143260388Y-115451612D01*
X145676989Y-117868213D01*
X145676891Y-117980171D01*
X145772145Y-118210703D01*
X145948369Y-118387235D01*
X146178735Y-118482891D01*
X146428171Y-118483109D01*
X146658703Y-118387855D01*
X146835235Y-118211631D01*
X146930891Y-117981265D01*
X146931109Y-117731829D01*
X146835855Y-117501297D01*
X146659631Y-117324765D01*
X146429265Y-117229109D01*
X146316234Y-117229010D01*
X144935943Y-115848719D01*
X145162735Y-115942891D01*
X145412171Y-115943109D01*
X145642703Y-115847855D01*
X145819235Y-115671631D01*
X145914891Y-115441265D01*
X145914990Y-115328234D01*
X146279281Y-114963943D01*
X146185109Y-115190735D01*
X146184891Y-115440171D01*
X146280145Y-115670703D01*
X146456369Y-115847235D01*
X146686735Y-115942891D01*
X146936171Y-115943109D01*
X147166703Y-115847855D01*
X147343235Y-115671631D01*
X147402260Y-115529484D01*
X147708989Y-115836213D01*
X147708891Y-115948171D01*
X147804145Y-116178703D01*
X147980369Y-116355235D01*
X148210735Y-116450891D01*
X148460171Y-116451109D01*
X148690703Y-116355855D01*
X148867235Y-116179631D01*
X148962891Y-115949265D01*
X148963109Y-115699829D01*
X148867855Y-115469297D01*
X148691631Y-115292765D01*
X148461265Y-115197109D01*
X148348235Y-115197010D01*
X148032000Y-114880776D01*
X148032000Y-114544685D01*
X148087474Y-114508988D01*
X148162138Y-114399714D01*
X148188406Y-114270000D01*
X148188406Y-112670000D01*
X148178622Y-112618002D01*
X148230000Y-112628406D01*
X148999182Y-112628406D01*
X149408000Y-113037224D01*
X149408000Y-123350592D01*
X149027735Y-123604676D01*
X148772594Y-123986523D01*
X148683000Y-124436941D01*
X148683000Y-124483059D01*
X148772594Y-124933477D01*
X149027735Y-125315324D01*
X149409582Y-125570465D01*
X149860000Y-125660059D01*
X150310418Y-125570465D01*
X150692265Y-125315324D01*
X150947406Y-124933477D01*
X151037000Y-124483059D01*
X151037000Y-124436941D01*
X150947406Y-123986523D01*
X150692265Y-123604676D01*
X150312000Y-123350592D01*
X150312000Y-116100906D01*
X150344145Y-116178703D01*
X150520369Y-116355235D01*
X150750735Y-116450891D01*
X150863766Y-116450990D01*
X151948000Y-117535225D01*
X151948000Y-123276594D01*
X151550000Y-123276594D01*
X151428821Y-123299395D01*
X151317526Y-123371012D01*
X151242862Y-123480286D01*
X151216594Y-123610000D01*
X151216594Y-125310000D01*
X151239395Y-125431179D01*
X151311012Y-125542474D01*
X151420286Y-125617138D01*
X151550000Y-125643406D01*
X153250000Y-125643406D01*
X153371179Y-125620605D01*
X153482474Y-125548988D01*
X153557138Y-125439714D01*
X153583406Y-125310000D01*
X153583406Y-124912000D01*
X163388776Y-124912000D01*
X163456989Y-124980213D01*
X163456891Y-125092171D01*
X163552145Y-125322703D01*
X163728369Y-125499235D01*
X163958735Y-125594891D01*
X164208171Y-125595109D01*
X164438703Y-125499855D01*
X164615235Y-125323631D01*
X164710891Y-125093265D01*
X164711109Y-124843829D01*
X164615855Y-124613297D01*
X164439631Y-124436765D01*
X164209265Y-124341109D01*
X164096235Y-124341010D01*
X163895612Y-124140388D01*
X163748973Y-124042406D01*
X163576000Y-124008000D01*
X153583406Y-124008000D01*
X153583406Y-123610000D01*
X153560605Y-123488821D01*
X153488988Y-123377526D01*
X153379714Y-123302862D01*
X153250000Y-123276594D01*
X152852000Y-123276594D01*
X152852000Y-121688906D01*
X152884145Y-121766703D01*
X153060369Y-121943235D01*
X153290735Y-122038891D01*
X153540171Y-122039109D01*
X153770703Y-121943855D01*
X153947235Y-121767631D01*
X154042891Y-121537265D01*
X154043000Y-121412000D01*
X161918921Y-121412000D01*
X162004709Y-121843284D01*
X162249012Y-122208909D01*
X162614637Y-122453212D01*
X163045921Y-122539000D01*
X163090079Y-122539000D01*
X163521363Y-122453212D01*
X163886988Y-122208909D01*
X164131291Y-121843284D01*
X164217079Y-121412000D01*
X164131291Y-120980716D01*
X163886988Y-120615091D01*
X163521363Y-120370788D01*
X163090079Y-120285000D01*
X163045921Y-120285000D01*
X162614637Y-120370788D01*
X162249012Y-120615091D01*
X162004709Y-120980716D01*
X161918921Y-121412000D01*
X154043000Y-121412000D01*
X154043109Y-121287829D01*
X153947855Y-121057297D01*
X153868000Y-120977302D01*
X153868000Y-118872000D01*
X161918921Y-118872000D01*
X162004709Y-119303284D01*
X162249012Y-119668909D01*
X162614637Y-119913212D01*
X163045921Y-119999000D01*
X163090079Y-119999000D01*
X163521363Y-119913212D01*
X163886988Y-119668909D01*
X164131291Y-119303284D01*
X164217079Y-118872000D01*
X164131291Y-118440716D01*
X163886988Y-118075091D01*
X163521363Y-117830788D01*
X163090079Y-117745000D01*
X163045921Y-117745000D01*
X162614637Y-117830788D01*
X162249012Y-118075091D01*
X162004709Y-118440716D01*
X161918921Y-118872000D01*
X153868000Y-118872000D01*
X153868000Y-114995224D01*
X154910072Y-113953152D01*
X162053722Y-113953152D01*
X162069260Y-114031262D01*
X162236846Y-114395251D01*
X162530968Y-114667400D01*
X162906848Y-114806278D01*
X163067500Y-114762250D01*
X163067500Y-113792500D01*
X163068500Y-113792500D01*
X163068500Y-114762250D01*
X163229152Y-114806278D01*
X163605032Y-114667400D01*
X163899154Y-114395251D01*
X164066740Y-114031262D01*
X164082278Y-113953152D01*
X169673722Y-113953152D01*
X169689260Y-114031262D01*
X169856846Y-114395251D01*
X170150968Y-114667400D01*
X170526848Y-114806278D01*
X170687500Y-114762250D01*
X170687500Y-113792500D01*
X170688500Y-113792500D01*
X170688500Y-114762250D01*
X170849152Y-114806278D01*
X171225032Y-114667400D01*
X171519154Y-114395251D01*
X171686740Y-114031262D01*
X171702278Y-113953152D01*
X171658250Y-113792500D01*
X170688500Y-113792500D01*
X170687500Y-113792500D01*
X169717750Y-113792500D01*
X169673722Y-113953152D01*
X164082278Y-113953152D01*
X164038250Y-113792500D01*
X163068500Y-113792500D01*
X163067500Y-113792500D01*
X162097750Y-113792500D01*
X162053722Y-113953152D01*
X154910072Y-113953152D01*
X155232376Y-113630848D01*
X162053722Y-113630848D01*
X162097750Y-113791500D01*
X163067500Y-113791500D01*
X163067500Y-112821750D01*
X163068500Y-112821750D01*
X163068500Y-113791500D01*
X164038250Y-113791500D01*
X164082278Y-113630848D01*
X169673722Y-113630848D01*
X169717750Y-113791500D01*
X170687500Y-113791500D01*
X170687500Y-112821750D01*
X170688500Y-112821750D01*
X170688500Y-113791500D01*
X171658250Y-113791500D01*
X171702278Y-113630848D01*
X171686740Y-113552738D01*
X171519154Y-113188749D01*
X171225032Y-112916600D01*
X170849152Y-112777722D01*
X170688500Y-112821750D01*
X170687500Y-112821750D01*
X170526848Y-112777722D01*
X170150968Y-112916600D01*
X169856846Y-113188749D01*
X169689260Y-113552738D01*
X169673722Y-113630848D01*
X164082278Y-113630848D01*
X164066740Y-113552738D01*
X163899154Y-113188749D01*
X163605032Y-112916600D01*
X163229152Y-112777722D01*
X163068500Y-112821750D01*
X163067500Y-112821750D01*
X162906848Y-112777722D01*
X162530968Y-112916600D01*
X162236846Y-113188749D01*
X162069260Y-113552738D01*
X162053722Y-113630848D01*
X155232376Y-113630848D01*
X157450072Y-111413152D01*
X162053722Y-111413152D01*
X162069260Y-111491262D01*
X162236846Y-111855251D01*
X162530968Y-112127400D01*
X162906848Y-112266278D01*
X163067500Y-112222250D01*
X163067500Y-111252500D01*
X163068500Y-111252500D01*
X163068500Y-112222250D01*
X163229152Y-112266278D01*
X163605032Y-112127400D01*
X163899154Y-111855251D01*
X164066740Y-111491262D01*
X164082278Y-111413152D01*
X169673722Y-111413152D01*
X169689260Y-111491262D01*
X169856846Y-111855251D01*
X170150968Y-112127400D01*
X170526848Y-112266278D01*
X170687500Y-112222250D01*
X170687500Y-111252500D01*
X170688500Y-111252500D01*
X170688500Y-112222250D01*
X170849152Y-112266278D01*
X171225032Y-112127400D01*
X171519154Y-111855251D01*
X171686740Y-111491262D01*
X171702278Y-111413152D01*
X171658250Y-111252500D01*
X170688500Y-111252500D01*
X170687500Y-111252500D01*
X169717750Y-111252500D01*
X169673722Y-111413152D01*
X164082278Y-111413152D01*
X164038250Y-111252500D01*
X163068500Y-111252500D01*
X163067500Y-111252500D01*
X162097750Y-111252500D01*
X162053722Y-111413152D01*
X157450072Y-111413152D01*
X157772376Y-111090848D01*
X162053722Y-111090848D01*
X162097750Y-111251500D01*
X163067500Y-111251500D01*
X163067500Y-110281750D01*
X163068500Y-110281750D01*
X163068500Y-111251500D01*
X164038250Y-111251500D01*
X164082278Y-111090848D01*
X169673722Y-111090848D01*
X169717750Y-111251500D01*
X170687500Y-111251500D01*
X170687500Y-110281750D01*
X170688500Y-110281750D01*
X170688500Y-111251500D01*
X171658250Y-111251500D01*
X171702278Y-111090848D01*
X171686740Y-111012738D01*
X171519154Y-110648749D01*
X171225032Y-110376600D01*
X170849152Y-110237722D01*
X170688500Y-110281750D01*
X170687500Y-110281750D01*
X170526848Y-110237722D01*
X170150968Y-110376600D01*
X169856846Y-110648749D01*
X169689260Y-111012738D01*
X169673722Y-111090848D01*
X164082278Y-111090848D01*
X164066740Y-111012738D01*
X163899154Y-110648749D01*
X163605032Y-110376600D01*
X163229152Y-110237722D01*
X163068500Y-110281750D01*
X163067500Y-110281750D01*
X162906848Y-110237722D01*
X162530968Y-110376600D01*
X162236846Y-110648749D01*
X162069260Y-111012738D01*
X162053722Y-111090848D01*
X157772376Y-111090848D01*
X160151224Y-108712000D01*
X161918921Y-108712000D01*
X162004709Y-109143284D01*
X162249012Y-109508909D01*
X162614637Y-109753212D01*
X163045921Y-109839000D01*
X163090079Y-109839000D01*
X163521363Y-109753212D01*
X163886988Y-109508909D01*
X164131291Y-109143284D01*
X164217079Y-108712000D01*
X169538921Y-108712000D01*
X169624709Y-109143284D01*
X169869012Y-109508909D01*
X170234637Y-109753212D01*
X170665921Y-109839000D01*
X170710079Y-109839000D01*
X171141363Y-109753212D01*
X171506988Y-109508909D01*
X171653927Y-109289000D01*
X172719995Y-109289000D01*
X172720000Y-109289001D01*
X172940808Y-109245078D01*
X173128001Y-109120001D01*
X178039002Y-104209000D01*
X181649595Y-104209000D01*
X181838242Y-104665560D01*
X182351736Y-105179952D01*
X183022993Y-105458682D01*
X183749818Y-105459316D01*
X184421560Y-105181758D01*
X184935952Y-104668264D01*
X185214682Y-103997007D01*
X185215316Y-103270182D01*
X184937758Y-102598440D01*
X184424264Y-102084048D01*
X183753007Y-101805318D01*
X183026182Y-101804684D01*
X182354440Y-102082242D01*
X181840048Y-102595736D01*
X181649345Y-103055000D01*
X177800005Y-103055000D01*
X177800000Y-103054999D01*
X177579192Y-103098922D01*
X177391999Y-103223999D01*
X172480998Y-108135000D01*
X171653927Y-108135000D01*
X171506988Y-107915091D01*
X171141363Y-107670788D01*
X170710079Y-107585000D01*
X170665921Y-107585000D01*
X170234637Y-107670788D01*
X169869012Y-107915091D01*
X169624709Y-108280716D01*
X169538921Y-108712000D01*
X164217079Y-108712000D01*
X164131291Y-108280716D01*
X163886988Y-107915091D01*
X163521363Y-107670788D01*
X163090079Y-107585000D01*
X163045921Y-107585000D01*
X162614637Y-107670788D01*
X162249012Y-107915091D01*
X162004709Y-108280716D01*
X161918921Y-108712000D01*
X160151224Y-108712000D01*
X162106940Y-106756284D01*
X162249012Y-106968909D01*
X162614637Y-107213212D01*
X163045921Y-107299000D01*
X163090079Y-107299000D01*
X163521363Y-107213212D01*
X163886988Y-106968909D01*
X164131291Y-106603284D01*
X164217079Y-106172000D01*
X169538921Y-106172000D01*
X169624709Y-106603284D01*
X169869012Y-106968909D01*
X170234637Y-107213212D01*
X170665921Y-107299000D01*
X170710079Y-107299000D01*
X171141363Y-107213212D01*
X171506988Y-106968909D01*
X171751291Y-106603284D01*
X171837079Y-106172000D01*
X171751291Y-105740716D01*
X171506988Y-105375091D01*
X171141363Y-105130788D01*
X170710079Y-105045000D01*
X170665921Y-105045000D01*
X170234637Y-105130788D01*
X169869012Y-105375091D01*
X169624709Y-105740716D01*
X169538921Y-106172000D01*
X164217079Y-106172000D01*
X164131291Y-105740716D01*
X163886988Y-105375091D01*
X163521363Y-105130788D01*
X163090079Y-105045000D01*
X163045921Y-105045000D01*
X162614637Y-105130788D01*
X162249012Y-105375091D01*
X162013424Y-105727673D01*
X161879027Y-105754406D01*
X161732388Y-105852388D01*
X153096388Y-114488388D01*
X152998406Y-114635027D01*
X152964000Y-114808000D01*
X152964000Y-120977272D01*
X152884765Y-121056369D01*
X152852000Y-121135276D01*
X152852000Y-117348000D01*
X152817594Y-117175027D01*
X152786779Y-117128909D01*
X152719612Y-117028387D01*
X151503011Y-115811787D01*
X151503109Y-115699829D01*
X151407855Y-115469297D01*
X151231631Y-115292765D01*
X151001265Y-115197109D01*
X150751829Y-115196891D01*
X150521297Y-115292145D01*
X150344765Y-115468369D01*
X150312000Y-115547276D01*
X150312000Y-112850000D01*
X150277594Y-112677027D01*
X150179612Y-112530388D01*
X150111484Y-112462260D01*
X150137138Y-112424714D01*
X150163406Y-112295000D01*
X150163406Y-111745000D01*
X150140605Y-111623821D01*
X150138105Y-111619937D01*
X150163406Y-111495000D01*
X150163406Y-110945000D01*
X150140605Y-110823821D01*
X150138105Y-110819937D01*
X150163406Y-110695000D01*
X150163406Y-110145000D01*
X150149670Y-110072000D01*
X150847723Y-110072000D01*
X150852145Y-110082703D01*
X151005287Y-110236113D01*
X150852765Y-110388369D01*
X150757109Y-110618735D01*
X150756891Y-110868171D01*
X150852145Y-111098703D01*
X151028369Y-111275235D01*
X151258735Y-111370891D01*
X151508171Y-111371109D01*
X151738703Y-111275855D01*
X151915235Y-111099631D01*
X152010891Y-110869265D01*
X152010990Y-110756234D01*
X159135224Y-103632000D01*
X161918921Y-103632000D01*
X162004709Y-104063284D01*
X162249012Y-104428909D01*
X162614637Y-104673212D01*
X163045921Y-104759000D01*
X163090079Y-104759000D01*
X163521363Y-104673212D01*
X163886988Y-104428909D01*
X164131291Y-104063284D01*
X164217079Y-103632000D01*
X169538921Y-103632000D01*
X169624709Y-104063284D01*
X169869012Y-104428909D01*
X170234637Y-104673212D01*
X170665921Y-104759000D01*
X170710079Y-104759000D01*
X171141363Y-104673212D01*
X171506988Y-104428909D01*
X171751291Y-104063284D01*
X171837079Y-103632000D01*
X171751291Y-103200716D01*
X171506988Y-102835091D01*
X171141363Y-102590788D01*
X170710079Y-102505000D01*
X170665921Y-102505000D01*
X170234637Y-102590788D01*
X169869012Y-102835091D01*
X169624709Y-103200716D01*
X169538921Y-103632000D01*
X164217079Y-103632000D01*
X164131291Y-103200716D01*
X163886988Y-102835091D01*
X163521363Y-102590788D01*
X163090079Y-102505000D01*
X163045921Y-102505000D01*
X162614637Y-102590788D01*
X162249012Y-102835091D01*
X162004709Y-103200716D01*
X161918921Y-103632000D01*
X159135224Y-103632000D01*
X160032213Y-102735011D01*
X160144171Y-102735109D01*
X160374703Y-102639855D01*
X160551235Y-102463631D01*
X160646891Y-102233265D01*
X160647109Y-101983829D01*
X160551855Y-101753297D01*
X160375631Y-101576765D01*
X160145265Y-101481109D01*
X159895829Y-101480891D01*
X159665297Y-101576145D01*
X159488765Y-101752369D01*
X159393109Y-101982735D01*
X159393010Y-102095766D01*
X151974221Y-109514555D01*
X151915855Y-109373297D01*
X151739631Y-109196765D01*
X151509265Y-109101109D01*
X151259829Y-109100891D01*
X151097413Y-109168000D01*
X150104685Y-109168000D01*
X150068988Y-109112526D01*
X150057000Y-109104335D01*
X150057000Y-108877250D01*
X150000250Y-108820500D01*
X149030500Y-108820500D01*
X149030500Y-108840500D01*
X149029500Y-108840500D01*
X149029500Y-108820500D01*
X148059750Y-108820500D01*
X148003000Y-108877250D01*
X148003000Y-109102490D01*
X147997526Y-109106012D01*
X147922862Y-109215286D01*
X147896594Y-109345000D01*
X147896594Y-109895000D01*
X147919395Y-110016179D01*
X147921895Y-110020063D01*
X147896594Y-110145000D01*
X147896594Y-110681369D01*
X146623612Y-109408388D01*
X146476973Y-109310406D01*
X146304000Y-109276000D01*
X142692000Y-109276000D01*
X142692000Y-109220000D01*
X142657594Y-109047027D01*
X142651470Y-109037862D01*
X142559612Y-108900387D01*
X142159612Y-108500388D01*
X142012973Y-108402406D01*
X141840000Y-108368000D01*
X141604685Y-108368000D01*
X141568988Y-108312526D01*
X141557000Y-108304335D01*
X141557000Y-108077250D01*
X141500250Y-108020500D01*
X140530500Y-108020500D01*
X140530500Y-108040500D01*
X140529500Y-108040500D01*
X140529500Y-108020500D01*
X139559750Y-108020500D01*
X139503000Y-108077250D01*
X139503000Y-108302490D01*
X139497526Y-108306012D01*
X139422862Y-108415286D01*
X139396594Y-108545000D01*
X139396594Y-109095000D01*
X139419395Y-109216179D01*
X139491012Y-109327474D01*
X139503000Y-109335665D01*
X139503000Y-109562750D01*
X139559750Y-109619500D01*
X140529500Y-109619500D01*
X140529500Y-109599500D01*
X140530500Y-109599500D01*
X140530500Y-109619500D01*
X141500250Y-109619500D01*
X141557000Y-109562750D01*
X141557000Y-109337510D01*
X141562474Y-109333988D01*
X141604829Y-109272000D01*
X141652776Y-109272000D01*
X141788000Y-109407225D01*
X141788000Y-109540776D01*
X141557000Y-109771776D01*
X141557000Y-109677250D01*
X141500250Y-109620500D01*
X140530500Y-109620500D01*
X140530500Y-109640500D01*
X140529500Y-109640500D01*
X140529500Y-109620500D01*
X139559750Y-109620500D01*
X139503000Y-109677250D01*
X139503000Y-109843000D01*
X138599001Y-109843000D01*
X136044001Y-107287999D01*
X135856808Y-107162922D01*
X135636000Y-107118999D01*
X135635995Y-107119000D01*
X123952005Y-107119000D01*
X123952000Y-107118999D01*
X123731192Y-107162922D01*
X123543999Y-107287999D01*
X121511999Y-109319999D01*
X121386922Y-109507192D01*
X121342999Y-109728000D01*
X121343000Y-109728005D01*
X121343000Y-118626584D01*
X121293109Y-118746735D01*
X121292891Y-118996171D01*
X121388145Y-119226703D01*
X121564369Y-119403235D01*
X121794735Y-119498891D01*
X122044171Y-119499109D01*
X122274703Y-119403855D01*
X122451235Y-119227631D01*
X122546891Y-118997265D01*
X122547109Y-118747829D01*
X122497000Y-118626556D01*
X122497000Y-117032651D01*
X125324056Y-117032651D01*
X125408923Y-117179432D01*
X125780041Y-117350304D01*
X126188300Y-117366150D01*
X126571545Y-117224555D01*
X126639077Y-117179432D01*
X126723944Y-117032651D01*
X126024000Y-116332707D01*
X125324056Y-117032651D01*
X122497000Y-117032651D01*
X122497000Y-116496300D01*
X124989850Y-116496300D01*
X125131445Y-116879545D01*
X125176568Y-116947077D01*
X125323349Y-117031944D01*
X126023293Y-116332000D01*
X126024707Y-116332000D01*
X126724651Y-117031944D01*
X126871432Y-116947077D01*
X127042304Y-116575959D01*
X127058150Y-116167700D01*
X126916555Y-115784455D01*
X126871432Y-115716923D01*
X126724651Y-115632056D01*
X126024707Y-116332000D01*
X126023293Y-116332000D01*
X125323349Y-115632056D01*
X125176568Y-115716923D01*
X125005696Y-116088041D01*
X124989850Y-116496300D01*
X122497000Y-116496300D01*
X122497000Y-115631349D01*
X125324056Y-115631349D01*
X126024000Y-116331293D01*
X126723944Y-115631349D01*
X126639077Y-115484568D01*
X126267959Y-115313696D01*
X125859700Y-115297850D01*
X125476455Y-115439445D01*
X125408923Y-115484568D01*
X125324056Y-115631349D01*
X122497000Y-115631349D01*
X122497000Y-111952651D01*
X125324056Y-111952651D01*
X125408923Y-112099432D01*
X125780041Y-112270304D01*
X126188300Y-112286150D01*
X126571545Y-112144555D01*
X126639077Y-112099432D01*
X126723944Y-111952651D01*
X126024000Y-111252707D01*
X125324056Y-111952651D01*
X122497000Y-111952651D01*
X122497000Y-111416300D01*
X124989850Y-111416300D01*
X125131445Y-111799545D01*
X125176568Y-111867077D01*
X125323349Y-111951944D01*
X126023293Y-111252000D01*
X126024707Y-111252000D01*
X126724651Y-111951944D01*
X126871432Y-111867077D01*
X127042304Y-111495959D01*
X127058150Y-111087700D01*
X126916555Y-110704455D01*
X126871432Y-110636923D01*
X126724651Y-110552056D01*
X126024707Y-111252000D01*
X126023293Y-111252000D01*
X125323349Y-110552056D01*
X125176568Y-110636923D01*
X125005696Y-111008041D01*
X124989850Y-111416300D01*
X122497000Y-111416300D01*
X122497000Y-110551349D01*
X125324056Y-110551349D01*
X126024000Y-111251293D01*
X126723944Y-110551349D01*
X126639077Y-110404568D01*
X126267959Y-110233696D01*
X125859700Y-110217850D01*
X125476455Y-110359445D01*
X125408923Y-110404568D01*
X125324056Y-110551349D01*
X122497000Y-110551349D01*
X122497000Y-109967002D01*
X124191002Y-108273000D01*
X135396998Y-108273000D01*
X137863999Y-110740000D01*
X134121406Y-110740000D01*
X134121406Y-109442000D01*
X134098605Y-109320821D01*
X134026988Y-109209526D01*
X133917714Y-109134862D01*
X133788000Y-109108594D01*
X131388000Y-109108594D01*
X131266821Y-109131395D01*
X131155526Y-109203012D01*
X131080862Y-109312286D01*
X131054594Y-109442000D01*
X131054594Y-110675000D01*
X129505004Y-110675000D01*
X129479981Y-110614440D01*
X129163228Y-110297133D01*
X128749158Y-110125196D01*
X128300809Y-110124805D01*
X127886440Y-110296019D01*
X127569133Y-110612772D01*
X127397196Y-111026842D01*
X127396805Y-111475191D01*
X127568019Y-111889560D01*
X127884772Y-112206867D01*
X128298842Y-112378804D01*
X128747191Y-112379195D01*
X129161560Y-112207981D01*
X129478867Y-111891228D01*
X129504706Y-111829000D01*
X131054594Y-111829000D01*
X131054594Y-112942000D01*
X131077395Y-113063179D01*
X131149012Y-113174474D01*
X131258286Y-113249138D01*
X131388000Y-113275406D01*
X133788000Y-113275406D01*
X133909179Y-113252605D01*
X134020474Y-113180988D01*
X134095138Y-113071714D01*
X134121406Y-112942000D01*
X134121406Y-111644000D01*
X138188778Y-111644000D01*
X138104388Y-111700388D01*
X134121406Y-115683370D01*
X134121406Y-114642000D01*
X134098605Y-114520821D01*
X134026988Y-114409526D01*
X133917714Y-114334862D01*
X133788000Y-114308594D01*
X131388000Y-114308594D01*
X131266821Y-114331395D01*
X131155526Y-114403012D01*
X131080862Y-114512286D01*
X131054594Y-114642000D01*
X131054594Y-115755000D01*
X129505004Y-115755000D01*
X129479981Y-115694440D01*
X129163228Y-115377133D01*
X128749158Y-115205196D01*
X128300809Y-115204805D01*
X127886440Y-115376019D01*
X127569133Y-115692772D01*
X127397196Y-116106842D01*
X127396805Y-116555191D01*
X127568019Y-116969560D01*
X127884772Y-117286867D01*
X128298842Y-117458804D01*
X128747191Y-117459195D01*
X129161560Y-117287981D01*
X129478867Y-116971228D01*
X129504706Y-116909000D01*
X131054594Y-116909000D01*
X131054594Y-118142000D01*
X131077395Y-118263179D01*
X131149012Y-118374474D01*
X131258286Y-118449138D01*
X131388000Y-118475406D01*
X133788000Y-118475406D01*
X133909179Y-118452605D01*
X134020474Y-118380988D01*
X134095138Y-118271714D01*
X134121406Y-118142000D01*
X134121406Y-116830194D01*
X134224973Y-116809594D01*
X134371612Y-116711612D01*
X138611224Y-112472000D01*
X139455315Y-112472000D01*
X139491012Y-112527474D01*
X139600286Y-112602138D01*
X139730000Y-112628406D01*
X141330000Y-112628406D01*
X141381998Y-112618622D01*
X141371594Y-112670000D01*
X141371594Y-113018000D01*
X141038000Y-113018000D01*
X140865027Y-113052406D01*
X140718388Y-113150388D01*
X140703787Y-113164989D01*
X140591829Y-113164891D01*
X140361297Y-113260145D01*
X140184765Y-113436369D01*
X140089109Y-113666735D01*
X140088891Y-113916171D01*
X140184145Y-114146703D01*
X140360369Y-114323235D01*
X140590735Y-114418891D01*
X140840171Y-114419109D01*
X141070703Y-114323855D01*
X141247235Y-114147631D01*
X141340925Y-113922000D01*
X141371594Y-113922000D01*
X141371594Y-114270000D01*
X141394395Y-114391179D01*
X141466012Y-114502474D01*
X141575286Y-114577138D01*
X141705000Y-114603406D01*
X142255000Y-114603406D01*
X142326898Y-114589878D01*
X142052776Y-114864000D01*
X141224000Y-114864000D01*
X141051027Y-114898406D01*
X140904388Y-114996388D01*
X127828776Y-128072000D01*
X115633406Y-128072000D01*
X115633406Y-127524000D01*
X115610605Y-127402821D01*
X115538988Y-127291526D01*
X115429714Y-127216862D01*
X115300000Y-127190594D01*
X113300000Y-127190594D01*
X113178821Y-127213395D01*
X113067526Y-127285012D01*
X112992862Y-127394286D01*
X112966594Y-127524000D01*
X107443021Y-127524000D01*
X107434937Y-127511596D01*
X106991563Y-127307412D01*
X106503802Y-127288443D01*
X106045909Y-127457575D01*
X105965063Y-127511596D01*
X105855864Y-127679157D01*
X103251000Y-127679157D01*
X103251000Y-115976651D01*
X105472056Y-115976651D01*
X105556923Y-116123432D01*
X105928041Y-116294304D01*
X106336300Y-116310150D01*
X106719545Y-116168555D01*
X106787077Y-116123432D01*
X106871944Y-115976651D01*
X109028056Y-115976651D01*
X109112923Y-116123432D01*
X109484041Y-116294304D01*
X109892300Y-116310150D01*
X110275545Y-116168555D01*
X110343077Y-116123432D01*
X110427944Y-115976651D01*
X109728000Y-115276707D01*
X109028056Y-115976651D01*
X106871944Y-115976651D01*
X106172000Y-115276707D01*
X105472056Y-115976651D01*
X103251000Y-115976651D01*
X103251000Y-115440300D01*
X105137850Y-115440300D01*
X105279445Y-115823545D01*
X105324568Y-115891077D01*
X105471349Y-115975944D01*
X106171293Y-115276000D01*
X106172707Y-115276000D01*
X106872651Y-115975944D01*
X107019432Y-115891077D01*
X107190304Y-115519959D01*
X107193395Y-115440300D01*
X108693850Y-115440300D01*
X108835445Y-115823545D01*
X108880568Y-115891077D01*
X109027349Y-115975944D01*
X109727293Y-115276000D01*
X109728707Y-115276000D01*
X110428651Y-115975944D01*
X110575432Y-115891077D01*
X110746304Y-115519959D01*
X110762150Y-115111700D01*
X110620555Y-114728455D01*
X110575432Y-114660923D01*
X110428651Y-114576056D01*
X109728707Y-115276000D01*
X109727293Y-115276000D01*
X109027349Y-114576056D01*
X108880568Y-114660923D01*
X108709696Y-115032041D01*
X108693850Y-115440300D01*
X107193395Y-115440300D01*
X107206150Y-115111700D01*
X107064555Y-114728455D01*
X107019432Y-114660923D01*
X106872651Y-114576056D01*
X106172707Y-115276000D01*
X106171293Y-115276000D01*
X105471349Y-114576056D01*
X105324568Y-114660923D01*
X105153696Y-115032041D01*
X105137850Y-115440300D01*
X103251000Y-115440300D01*
X103251000Y-114575349D01*
X105472056Y-114575349D01*
X106172000Y-115275293D01*
X106871944Y-114575349D01*
X109028056Y-114575349D01*
X109728000Y-115275293D01*
X110427944Y-114575349D01*
X110343077Y-114428568D01*
X109971959Y-114257696D01*
X109563700Y-114241850D01*
X109180455Y-114383445D01*
X109112923Y-114428568D01*
X109028056Y-114575349D01*
X106871944Y-114575349D01*
X106787077Y-114428568D01*
X106415959Y-114257696D01*
X106007700Y-114241850D01*
X105624455Y-114383445D01*
X105556923Y-114428568D01*
X105472056Y-114575349D01*
X103251000Y-114575349D01*
X103251000Y-112999191D01*
X105044805Y-112999191D01*
X105216019Y-113413560D01*
X105532772Y-113730867D01*
X105946842Y-113902804D01*
X106395191Y-113903195D01*
X106809560Y-113731981D01*
X107126867Y-113415228D01*
X107298804Y-113001158D01*
X107298805Y-112999191D01*
X108600805Y-112999191D01*
X108772019Y-113413560D01*
X109088772Y-113730867D01*
X109502842Y-113902804D01*
X109951191Y-113903195D01*
X110365560Y-113731981D01*
X110682867Y-113415228D01*
X110854804Y-113001158D01*
X110855195Y-112552809D01*
X110683981Y-112138440D01*
X110367228Y-111821133D01*
X109953158Y-111649196D01*
X109504809Y-111648805D01*
X109090440Y-111820019D01*
X108773133Y-112136772D01*
X108601196Y-112550842D01*
X108600805Y-112999191D01*
X107298805Y-112999191D01*
X107299195Y-112552809D01*
X107127981Y-112138440D01*
X106811228Y-111821133D01*
X106397158Y-111649196D01*
X105948809Y-111648805D01*
X105534440Y-111820019D01*
X105217133Y-112136772D01*
X105045196Y-112550842D01*
X105044805Y-112999191D01*
X103251000Y-112999191D01*
X103251000Y-106296171D01*
X123324891Y-106296171D01*
X123420145Y-106526703D01*
X123596369Y-106703235D01*
X123826735Y-106798891D01*
X124076171Y-106799109D01*
X124306703Y-106703855D01*
X124483235Y-106527631D01*
X124578891Y-106297265D01*
X124578990Y-106184235D01*
X124779612Y-105983613D01*
X124877594Y-105836974D01*
X124883302Y-105808276D01*
X124912000Y-105664000D01*
X124912000Y-99755224D01*
X127882381Y-96784843D01*
X131743864Y-96784843D01*
X131853063Y-96952404D01*
X132296437Y-97156588D01*
X132784198Y-97175557D01*
X133242091Y-97006425D01*
X133322937Y-96952404D01*
X133432136Y-96784843D01*
X132588000Y-95940707D01*
X131743864Y-96784843D01*
X127882381Y-96784843D01*
X128531026Y-96136198D01*
X131352443Y-96136198D01*
X131521575Y-96594091D01*
X131575596Y-96674937D01*
X131743157Y-96784136D01*
X132587293Y-95940000D01*
X132588707Y-95940000D01*
X133432843Y-96784136D01*
X133600404Y-96674937D01*
X133804588Y-96231563D01*
X133823557Y-95743802D01*
X133654425Y-95285909D01*
X133600404Y-95205063D01*
X133432843Y-95095864D01*
X132588707Y-95940000D01*
X132587293Y-95940000D01*
X131743157Y-95095864D01*
X131575596Y-95205063D01*
X131371412Y-95648437D01*
X131352443Y-96136198D01*
X128531026Y-96136198D01*
X129572067Y-95095157D01*
X131743864Y-95095157D01*
X132588000Y-95939293D01*
X133432136Y-95095157D01*
X133322937Y-94927596D01*
X132879563Y-94723412D01*
X132391802Y-94704443D01*
X131933909Y-94873575D01*
X131853063Y-94927596D01*
X131743864Y-95095157D01*
X129572067Y-95095157D01*
X132024398Y-92642826D01*
X132322885Y-92766769D01*
X132850798Y-92767229D01*
X133338703Y-92565631D01*
X133712319Y-92192666D01*
X133914769Y-91705115D01*
X133915229Y-91177202D01*
X133713631Y-90689297D01*
X133340666Y-90315681D01*
X132853115Y-90113231D01*
X132325202Y-90112771D01*
X131837297Y-90314369D01*
X131463681Y-90687334D01*
X131261231Y-91174885D01*
X131260771Y-91702798D01*
X131385094Y-92003682D01*
X124140388Y-99248388D01*
X124042406Y-99395027D01*
X124008000Y-99568000D01*
X124008000Y-105476775D01*
X123939787Y-105544989D01*
X123827829Y-105544891D01*
X123597297Y-105640145D01*
X123420765Y-105816369D01*
X123325109Y-106046735D01*
X123324891Y-106296171D01*
X103251000Y-106296171D01*
X103251000Y-104501818D01*
X103836684Y-104501818D01*
X104114242Y-105173560D01*
X104627736Y-105687952D01*
X105298993Y-105966682D01*
X106025818Y-105967316D01*
X106697560Y-105689758D01*
X107211952Y-105176264D01*
X107402655Y-104717000D01*
X108203995Y-104717000D01*
X108204000Y-104717001D01*
X108424808Y-104673078D01*
X108612001Y-104548001D01*
X117247998Y-95912003D01*
X117248001Y-95912001D01*
X117373078Y-95724808D01*
X117417000Y-95504000D01*
X117417000Y-89653416D01*
X117466891Y-89533265D01*
X117467109Y-89283829D01*
X117371855Y-89053297D01*
X117195631Y-88876765D01*
X116965265Y-88781109D01*
X116715829Y-88780891D01*
X116485297Y-88876145D01*
X116308765Y-89052369D01*
X116213109Y-89282735D01*
X116212891Y-89532171D01*
X116263000Y-89653444D01*
X116263000Y-95264999D01*
X107964998Y-103563000D01*
X107402405Y-103563000D01*
X107213758Y-103106440D01*
X106700264Y-102592048D01*
X106029007Y-102313318D01*
X105302182Y-102312684D01*
X104630440Y-102590242D01*
X104116048Y-103103736D01*
X103837318Y-103774993D01*
X103836684Y-104501818D01*
X103251000Y-104501818D01*
X103251000Y-99117250D01*
X103937000Y-99117250D01*
X103937000Y-100605153D01*
X103971559Y-100688585D01*
X104035415Y-100752441D01*
X104118847Y-100787000D01*
X105606750Y-100787000D01*
X105663500Y-100730250D01*
X105663500Y-99060500D01*
X105664500Y-99060500D01*
X105664500Y-100730250D01*
X105721250Y-100787000D01*
X107209153Y-100787000D01*
X107292585Y-100752441D01*
X107356441Y-100688585D01*
X107391000Y-100605153D01*
X107391000Y-99117250D01*
X107334250Y-99060500D01*
X105664500Y-99060500D01*
X105663500Y-99060500D01*
X103993750Y-99060500D01*
X103937000Y-99117250D01*
X103251000Y-99117250D01*
X103251000Y-97514847D01*
X103937000Y-97514847D01*
X103937000Y-99002750D01*
X103993750Y-99059500D01*
X105663500Y-99059500D01*
X105663500Y-97389750D01*
X105664500Y-97389750D01*
X105664500Y-99059500D01*
X107334250Y-99059500D01*
X107391000Y-99002750D01*
X107391000Y-97514847D01*
X107356441Y-97431415D01*
X107292585Y-97367559D01*
X107209153Y-97333000D01*
X105721250Y-97333000D01*
X105664500Y-97389750D01*
X105663500Y-97389750D01*
X105606750Y-97333000D01*
X104118847Y-97333000D01*
X104035415Y-97367559D01*
X103971559Y-97431415D01*
X103937000Y-97514847D01*
X103251000Y-97514847D01*
X103251000Y-95148651D01*
X105980056Y-95148651D01*
X106064923Y-95295432D01*
X106436041Y-95466304D01*
X106844300Y-95482150D01*
X107227545Y-95340555D01*
X107295077Y-95295432D01*
X107379944Y-95148651D01*
X109536056Y-95148651D01*
X109620923Y-95295432D01*
X109992041Y-95466304D01*
X110400300Y-95482150D01*
X110783545Y-95340555D01*
X110851077Y-95295432D01*
X110935944Y-95148651D01*
X110236000Y-94448707D01*
X109536056Y-95148651D01*
X107379944Y-95148651D01*
X106680000Y-94448707D01*
X105980056Y-95148651D01*
X103251000Y-95148651D01*
X103251000Y-94612300D01*
X105645850Y-94612300D01*
X105787445Y-94995545D01*
X105832568Y-95063077D01*
X105979349Y-95147944D01*
X106679293Y-94448000D01*
X106680707Y-94448000D01*
X107380651Y-95147944D01*
X107527432Y-95063077D01*
X107698304Y-94691959D01*
X107701395Y-94612300D01*
X109201850Y-94612300D01*
X109343445Y-94995545D01*
X109388568Y-95063077D01*
X109535349Y-95147944D01*
X110235293Y-94448000D01*
X110236707Y-94448000D01*
X110936651Y-95147944D01*
X111083432Y-95063077D01*
X111254304Y-94691959D01*
X111270150Y-94283700D01*
X111128555Y-93900455D01*
X111083432Y-93832923D01*
X110936651Y-93748056D01*
X110236707Y-94448000D01*
X110235293Y-94448000D01*
X109535349Y-93748056D01*
X109388568Y-93832923D01*
X109217696Y-94204041D01*
X109201850Y-94612300D01*
X107701395Y-94612300D01*
X107714150Y-94283700D01*
X107572555Y-93900455D01*
X107527432Y-93832923D01*
X107380651Y-93748056D01*
X106680707Y-94448000D01*
X106679293Y-94448000D01*
X105979349Y-93748056D01*
X105832568Y-93832923D01*
X105661696Y-94204041D01*
X105645850Y-94612300D01*
X103251000Y-94612300D01*
X103251000Y-93747349D01*
X105980056Y-93747349D01*
X106680000Y-94447293D01*
X107379944Y-93747349D01*
X109536056Y-93747349D01*
X110236000Y-94447293D01*
X110935944Y-93747349D01*
X110851077Y-93600568D01*
X110479959Y-93429696D01*
X110071700Y-93413850D01*
X109688455Y-93555445D01*
X109620923Y-93600568D01*
X109536056Y-93747349D01*
X107379944Y-93747349D01*
X107295077Y-93600568D01*
X106923959Y-93429696D01*
X106515700Y-93413850D01*
X106132455Y-93555445D01*
X106064923Y-93600568D01*
X105980056Y-93747349D01*
X103251000Y-93747349D01*
X103251000Y-92171191D01*
X105552805Y-92171191D01*
X105724019Y-92585560D01*
X106040772Y-92902867D01*
X106454842Y-93074804D01*
X106903191Y-93075195D01*
X107317560Y-92903981D01*
X107634867Y-92587228D01*
X107806804Y-92173158D01*
X107806805Y-92171191D01*
X109108805Y-92171191D01*
X109280019Y-92585560D01*
X109596772Y-92902867D01*
X110010842Y-93074804D01*
X110459191Y-93075195D01*
X110873560Y-92903981D01*
X111190867Y-92587228D01*
X111362804Y-92173158D01*
X111363195Y-91724809D01*
X111191981Y-91310440D01*
X110875228Y-90993133D01*
X110461158Y-90821196D01*
X110012809Y-90820805D01*
X109598440Y-90992019D01*
X109281133Y-91308772D01*
X109109196Y-91722842D01*
X109108805Y-92171191D01*
X107806805Y-92171191D01*
X107807195Y-91724809D01*
X107635981Y-91310440D01*
X107319228Y-90993133D01*
X106905158Y-90821196D01*
X106456809Y-90820805D01*
X106042440Y-90992019D01*
X105725133Y-91308772D01*
X105553196Y-91722842D01*
X105552805Y-92171191D01*
X103251000Y-92171191D01*
X103251000Y-80316606D01*
X104318399Y-79249207D01*
X103923277Y-79840549D01*
X103738000Y-80772000D01*
X103923277Y-81703451D01*
X104450902Y-82493098D01*
X105240549Y-83020723D01*
X106172000Y-83206000D01*
X107103451Y-83020723D01*
X107893098Y-82493098D01*
X108237727Y-81977323D01*
X122747384Y-81977323D01*
X122917412Y-82196839D01*
X123541428Y-82484299D01*
X124227949Y-82511078D01*
X124872460Y-82273096D01*
X124986588Y-82196839D01*
X125156616Y-81977323D01*
X123952000Y-80772707D01*
X122747384Y-81977323D01*
X108237727Y-81977323D01*
X108420723Y-81703451D01*
X108551110Y-81047949D01*
X122212922Y-81047949D01*
X122450904Y-81692460D01*
X122527161Y-81806588D01*
X122746677Y-81976616D01*
X123951293Y-80772000D01*
X123952707Y-80772000D01*
X125157323Y-81976616D01*
X125376839Y-81806588D01*
X125664299Y-81182572D01*
X125666200Y-81133818D01*
X127204684Y-81133818D01*
X127482242Y-81805560D01*
X127995736Y-82319952D01*
X128580000Y-82562559D01*
X128580000Y-82804000D01*
X128614406Y-82976973D01*
X128712388Y-83123612D01*
X135184000Y-89595225D01*
X135184000Y-101526000D01*
X135218406Y-101698973D01*
X135316388Y-101845612D01*
X139448516Y-105977740D01*
X139422862Y-106015286D01*
X139396594Y-106145000D01*
X139396594Y-106695000D01*
X139410330Y-106768000D01*
X138642672Y-106768000D01*
X138531631Y-106656765D01*
X138301265Y-106561109D01*
X138051829Y-106560891D01*
X137821297Y-106656145D01*
X137644765Y-106832369D01*
X137549109Y-107062735D01*
X137548891Y-107312171D01*
X137644145Y-107542703D01*
X137820369Y-107719235D01*
X138050735Y-107814891D01*
X138300171Y-107815109D01*
X138530703Y-107719855D01*
X138578642Y-107672000D01*
X139455315Y-107672000D01*
X139491012Y-107727474D01*
X139503000Y-107735665D01*
X139503000Y-107962750D01*
X139559750Y-108019500D01*
X140529500Y-108019500D01*
X140529500Y-107999500D01*
X140530500Y-107999500D01*
X140530500Y-108019500D01*
X141500250Y-108019500D01*
X141557000Y-107962750D01*
X141557000Y-107737510D01*
X141562474Y-107733988D01*
X141637138Y-107624714D01*
X141663406Y-107495000D01*
X141663406Y-106945000D01*
X141640605Y-106823821D01*
X141638105Y-106819937D01*
X141663406Y-106695000D01*
X141663406Y-106145000D01*
X141653622Y-106093002D01*
X141705000Y-106103406D01*
X142255000Y-106103406D01*
X142376179Y-106080605D01*
X142380063Y-106078105D01*
X142505000Y-106103406D01*
X143055000Y-106103406D01*
X143176179Y-106080605D01*
X143180063Y-106078105D01*
X143305000Y-106103406D01*
X143855000Y-106103406D01*
X143976179Y-106080605D01*
X143980063Y-106078105D01*
X144105000Y-106103406D01*
X144655000Y-106103406D01*
X144776179Y-106080605D01*
X144780063Y-106078105D01*
X144905000Y-106103406D01*
X145455000Y-106103406D01*
X145576179Y-106080605D01*
X145580063Y-106078105D01*
X145705000Y-106103406D01*
X146255000Y-106103406D01*
X146376179Y-106080605D01*
X146380063Y-106078105D01*
X146505000Y-106103406D01*
X147055000Y-106103406D01*
X147176179Y-106080605D01*
X147180063Y-106078105D01*
X147305000Y-106103406D01*
X147855000Y-106103406D01*
X147906998Y-106093622D01*
X147896594Y-106145000D01*
X147896594Y-106695000D01*
X147919395Y-106816179D01*
X147921895Y-106820063D01*
X147896594Y-106945000D01*
X147896594Y-107495000D01*
X147919395Y-107616179D01*
X147921895Y-107620063D01*
X147896594Y-107745000D01*
X147896594Y-108295000D01*
X147919395Y-108416179D01*
X147991012Y-108527474D01*
X148003000Y-108535665D01*
X148003000Y-108762750D01*
X148059750Y-108819500D01*
X149029500Y-108819500D01*
X149029500Y-108799500D01*
X149030500Y-108799500D01*
X149030500Y-108819500D01*
X150000250Y-108819500D01*
X150057000Y-108762750D01*
X150057000Y-108537510D01*
X150062474Y-108533988D01*
X150137138Y-108424714D01*
X150163406Y-108295000D01*
X150163406Y-107745000D01*
X150149670Y-107672000D01*
X150336000Y-107672000D01*
X150508973Y-107637594D01*
X150655612Y-107539612D01*
X152719612Y-105475612D01*
X152817594Y-105328973D01*
X152852000Y-105156000D01*
X152852000Y-103400906D01*
X152884145Y-103478703D01*
X153060369Y-103655235D01*
X153290735Y-103750891D01*
X153540171Y-103751109D01*
X153770703Y-103655855D01*
X153947235Y-103479631D01*
X154042891Y-103249265D01*
X154043109Y-102999829D01*
X153947855Y-102769297D01*
X153868000Y-102689302D01*
X153868000Y-98231224D01*
X154888033Y-97211191D01*
X159908805Y-97211191D01*
X160080019Y-97625560D01*
X160396772Y-97942867D01*
X160810842Y-98114804D01*
X161259191Y-98115195D01*
X161673560Y-97943981D01*
X161990867Y-97627228D01*
X162162804Y-97213158D01*
X162163195Y-96764809D01*
X161991981Y-96350440D01*
X161675228Y-96033133D01*
X161261158Y-95861196D01*
X160812809Y-95860805D01*
X160398440Y-96032019D01*
X160081133Y-96348772D01*
X159909196Y-96762842D01*
X159908805Y-97211191D01*
X154888033Y-97211191D01*
X157553974Y-94545250D01*
X160009000Y-94545250D01*
X160009000Y-95333153D01*
X160043559Y-95416585D01*
X160107415Y-95480441D01*
X160190847Y-95515000D01*
X160978750Y-95515000D01*
X161035500Y-95458250D01*
X161035500Y-94488500D01*
X161036500Y-94488500D01*
X161036500Y-95458250D01*
X161093250Y-95515000D01*
X161881153Y-95515000D01*
X161964585Y-95480441D01*
X162028441Y-95416585D01*
X162063000Y-95333153D01*
X162063000Y-94545250D01*
X162006250Y-94488500D01*
X161036500Y-94488500D01*
X161035500Y-94488500D01*
X160065750Y-94488500D01*
X160009000Y-94545250D01*
X157553974Y-94545250D01*
X158456377Y-93642847D01*
X160009000Y-93642847D01*
X160009000Y-94430750D01*
X160065750Y-94487500D01*
X161035500Y-94487500D01*
X161035500Y-93517750D01*
X161036500Y-93517750D01*
X161036500Y-94487500D01*
X162006250Y-94487500D01*
X162063000Y-94430750D01*
X162063000Y-93642847D01*
X162028441Y-93559415D01*
X161964585Y-93495559D01*
X161881153Y-93461000D01*
X161093250Y-93461000D01*
X161036500Y-93517750D01*
X161035500Y-93517750D01*
X160978750Y-93461000D01*
X160190847Y-93461000D01*
X160107415Y-93495559D01*
X160043559Y-93559415D01*
X160009000Y-93642847D01*
X158456377Y-93642847D01*
X160207225Y-91892000D01*
X163141272Y-91892000D01*
X163220369Y-91971235D01*
X163450735Y-92066891D01*
X163700171Y-92067109D01*
X163930703Y-91971855D01*
X164107235Y-91795631D01*
X164202891Y-91565265D01*
X164203109Y-91315829D01*
X164114333Y-91100974D01*
X180800338Y-91100974D01*
X180816641Y-91182934D01*
X180992395Y-91564640D01*
X181300843Y-91850032D01*
X181695026Y-91995662D01*
X181863500Y-91952250D01*
X181863500Y-90932500D01*
X181864500Y-90932500D01*
X181864500Y-91952250D01*
X182032974Y-91995662D01*
X182427157Y-91850032D01*
X182735605Y-91564640D01*
X182911359Y-91182934D01*
X182927662Y-91100974D01*
X182884250Y-90932500D01*
X181864500Y-90932500D01*
X181863500Y-90932500D01*
X180843750Y-90932500D01*
X180800338Y-91100974D01*
X164114333Y-91100974D01*
X164107855Y-91085297D01*
X163931631Y-90908765D01*
X163852724Y-90876000D01*
X164665272Y-90876000D01*
X164744369Y-90955235D01*
X164974735Y-91050891D01*
X165224171Y-91051109D01*
X165454703Y-90955855D01*
X165631235Y-90779631D01*
X165638129Y-90763026D01*
X180800338Y-90763026D01*
X180843750Y-90931500D01*
X181863500Y-90931500D01*
X181863500Y-89911750D01*
X181864500Y-89911750D01*
X181864500Y-90931500D01*
X182884250Y-90931500D01*
X182927662Y-90763026D01*
X182911359Y-90681066D01*
X182735605Y-90299360D01*
X182427157Y-90013968D01*
X182032974Y-89868338D01*
X181864500Y-89911750D01*
X181863500Y-89911750D01*
X181695026Y-89868338D01*
X181300843Y-90013968D01*
X180992395Y-90299360D01*
X180816641Y-90681066D01*
X180800338Y-90763026D01*
X165638129Y-90763026D01*
X165726891Y-90549265D01*
X165727109Y-90299829D01*
X165631855Y-90069297D01*
X165455631Y-89892765D01*
X165376724Y-89860000D01*
X166189272Y-89860000D01*
X166268369Y-89939235D01*
X166498735Y-90034891D01*
X166748171Y-90035109D01*
X166978703Y-89939855D01*
X167155235Y-89763631D01*
X167250891Y-89533265D01*
X167251109Y-89283829D01*
X167155855Y-89053297D01*
X166979631Y-88876765D01*
X166900724Y-88844000D01*
X168562592Y-88844000D01*
X168816676Y-89224265D01*
X169198523Y-89479406D01*
X169648941Y-89569000D01*
X169695059Y-89569000D01*
X170145477Y-89479406D01*
X170527324Y-89224265D01*
X170782465Y-88842418D01*
X170838447Y-88560974D01*
X180800338Y-88560974D01*
X180816641Y-88642934D01*
X180992395Y-89024640D01*
X181300843Y-89310032D01*
X181695026Y-89455662D01*
X181863500Y-89412250D01*
X181863500Y-88392500D01*
X181864500Y-88392500D01*
X181864500Y-89412250D01*
X182032974Y-89455662D01*
X182427157Y-89310032D01*
X182735605Y-89024640D01*
X182911359Y-88642934D01*
X182927662Y-88560974D01*
X182884250Y-88392500D01*
X181864500Y-88392500D01*
X181863500Y-88392500D01*
X180843750Y-88392500D01*
X180800338Y-88560974D01*
X170838447Y-88560974D01*
X170872059Y-88392000D01*
X170838448Y-88223026D01*
X180800338Y-88223026D01*
X180843750Y-88391500D01*
X181863500Y-88391500D01*
X181863500Y-87371750D01*
X181864500Y-87371750D01*
X181864500Y-88391500D01*
X182884250Y-88391500D01*
X182927662Y-88223026D01*
X182911359Y-88141066D01*
X182735605Y-87759360D01*
X182427157Y-87473968D01*
X182032974Y-87328338D01*
X181864500Y-87371750D01*
X181863500Y-87371750D01*
X181695026Y-87328338D01*
X181300843Y-87473968D01*
X180992395Y-87759360D01*
X180816641Y-88141066D01*
X180800338Y-88223026D01*
X170838448Y-88223026D01*
X170782465Y-87941582D01*
X170527324Y-87559735D01*
X170145477Y-87304594D01*
X169695059Y-87215000D01*
X169648941Y-87215000D01*
X169198523Y-87304594D01*
X168816676Y-87559735D01*
X168562592Y-87940000D01*
X159004000Y-87940000D01*
X158831027Y-87974406D01*
X158684388Y-88072388D01*
X147260388Y-99496388D01*
X147162406Y-99643027D01*
X147128000Y-99816000D01*
X147128000Y-103851377D01*
X147055000Y-103836594D01*
X146505000Y-103836594D01*
X146432000Y-103850330D01*
X146432000Y-97539224D01*
X156509100Y-87462125D01*
X156521582Y-87470465D01*
X156972000Y-87560059D01*
X157422418Y-87470465D01*
X157804265Y-87215324D01*
X158059406Y-86833477D01*
X158142198Y-86417250D01*
X158435000Y-86417250D01*
X158435000Y-87255153D01*
X158469559Y-87338585D01*
X158533415Y-87402441D01*
X158616847Y-87437000D01*
X159454750Y-87437000D01*
X159511500Y-87380250D01*
X159511500Y-86360500D01*
X159512500Y-86360500D01*
X159512500Y-87380250D01*
X159569250Y-87437000D01*
X160407153Y-87437000D01*
X160490585Y-87402441D01*
X160554441Y-87338585D01*
X160589000Y-87255153D01*
X160589000Y-86417250D01*
X160532250Y-86360500D01*
X159512500Y-86360500D01*
X159511500Y-86360500D01*
X158491750Y-86360500D01*
X158435000Y-86417250D01*
X158142198Y-86417250D01*
X158149000Y-86383059D01*
X158149000Y-86336941D01*
X158059406Y-85886523D01*
X157804265Y-85504676D01*
X157744657Y-85464847D01*
X158435000Y-85464847D01*
X158435000Y-86302750D01*
X158491750Y-86359500D01*
X159511500Y-86359500D01*
X159511500Y-85339750D01*
X159512500Y-85339750D01*
X159512500Y-86359500D01*
X160532250Y-86359500D01*
X160589000Y-86302750D01*
X160589000Y-85852000D01*
X168471941Y-85852000D01*
X168561535Y-86302418D01*
X168816676Y-86684265D01*
X169198523Y-86939406D01*
X169648941Y-87029000D01*
X169695059Y-87029000D01*
X170145477Y-86939406D01*
X170527324Y-86684265D01*
X170782465Y-86302418D01*
X170872059Y-85852000D01*
X172535941Y-85852000D01*
X172625535Y-86302418D01*
X172880676Y-86684265D01*
X173262523Y-86939406D01*
X173712941Y-87029000D01*
X173759059Y-87029000D01*
X174209477Y-86939406D01*
X174591324Y-86684265D01*
X174846465Y-86302418D01*
X174936059Y-85852000D01*
X176599941Y-85852000D01*
X176689535Y-86302418D01*
X176944676Y-86684265D01*
X177326523Y-86939406D01*
X177776941Y-87029000D01*
X177823059Y-87029000D01*
X178273477Y-86939406D01*
X178655324Y-86684265D01*
X178910465Y-86302418D01*
X178966447Y-86020974D01*
X180800338Y-86020974D01*
X180816641Y-86102934D01*
X180992395Y-86484640D01*
X181300843Y-86770032D01*
X181695026Y-86915662D01*
X181863500Y-86872250D01*
X181863500Y-85852500D01*
X181864500Y-85852500D01*
X181864500Y-86872250D01*
X182032974Y-86915662D01*
X182427157Y-86770032D01*
X182735605Y-86484640D01*
X182911359Y-86102934D01*
X182927662Y-86020974D01*
X182884250Y-85852500D01*
X181864500Y-85852500D01*
X181863500Y-85852500D01*
X180843750Y-85852500D01*
X180800338Y-86020974D01*
X178966447Y-86020974D01*
X179000059Y-85852000D01*
X178966448Y-85683026D01*
X180800338Y-85683026D01*
X180843750Y-85851500D01*
X181863500Y-85851500D01*
X181863500Y-84831750D01*
X181864500Y-84831750D01*
X181864500Y-85851500D01*
X182884250Y-85851500D01*
X182927662Y-85683026D01*
X182911359Y-85601066D01*
X182735605Y-85219360D01*
X182427157Y-84933968D01*
X182032974Y-84788338D01*
X181864500Y-84831750D01*
X181863500Y-84831750D01*
X181695026Y-84788338D01*
X181300843Y-84933968D01*
X180992395Y-85219360D01*
X180816641Y-85601066D01*
X180800338Y-85683026D01*
X178966448Y-85683026D01*
X178910465Y-85401582D01*
X178655324Y-85019735D01*
X178273477Y-84764594D01*
X177823059Y-84675000D01*
X177776941Y-84675000D01*
X177326523Y-84764594D01*
X176944676Y-85019735D01*
X176689535Y-85401582D01*
X176599941Y-85852000D01*
X174936059Y-85852000D01*
X174846465Y-85401582D01*
X174591324Y-85019735D01*
X174209477Y-84764594D01*
X173759059Y-84675000D01*
X173712941Y-84675000D01*
X173262523Y-84764594D01*
X172880676Y-85019735D01*
X172625535Y-85401582D01*
X172535941Y-85852000D01*
X170872059Y-85852000D01*
X170782465Y-85401582D01*
X170527324Y-85019735D01*
X170145477Y-84764594D01*
X169695059Y-84675000D01*
X169648941Y-84675000D01*
X169198523Y-84764594D01*
X168816676Y-85019735D01*
X168561535Y-85401582D01*
X168471941Y-85852000D01*
X160589000Y-85852000D01*
X160589000Y-85464847D01*
X160554441Y-85381415D01*
X160490585Y-85317559D01*
X160407153Y-85283000D01*
X159569250Y-85283000D01*
X159512500Y-85339750D01*
X159511500Y-85339750D01*
X159454750Y-85283000D01*
X158616847Y-85283000D01*
X158533415Y-85317559D01*
X158469559Y-85381415D01*
X158435000Y-85464847D01*
X157744657Y-85464847D01*
X157422418Y-85249535D01*
X156972000Y-85159941D01*
X156521582Y-85249535D01*
X156139735Y-85504676D01*
X155884594Y-85886523D01*
X155795000Y-86336941D01*
X155795000Y-86383059D01*
X155880397Y-86812378D01*
X145660388Y-97032388D01*
X145632000Y-97074873D01*
X145632000Y-95799224D01*
X153969100Y-87462124D01*
X153981582Y-87470465D01*
X154432000Y-87560059D01*
X154882418Y-87470465D01*
X155264265Y-87215324D01*
X155519406Y-86833477D01*
X155609000Y-86383059D01*
X155609000Y-86336941D01*
X155519406Y-85886523D01*
X155264265Y-85504676D01*
X154882418Y-85249535D01*
X154432000Y-85159941D01*
X153981582Y-85249535D01*
X153599735Y-85504676D01*
X153344594Y-85886523D01*
X153255000Y-86336941D01*
X153255000Y-86383059D01*
X153340397Y-86812379D01*
X144860388Y-95292388D01*
X144762406Y-95439027D01*
X144728000Y-95612000D01*
X144728000Y-101169309D01*
X144627631Y-101068765D01*
X144397265Y-100973109D01*
X144147829Y-100972891D01*
X144032000Y-101020751D01*
X144032000Y-93843224D01*
X154563224Y-83312000D01*
X168471941Y-83312000D01*
X168561535Y-83762418D01*
X168816676Y-84144265D01*
X169198523Y-84399406D01*
X169648941Y-84489000D01*
X169695059Y-84489000D01*
X170145477Y-84399406D01*
X170527324Y-84144265D01*
X170782465Y-83762418D01*
X170872059Y-83312000D01*
X172535941Y-83312000D01*
X172625535Y-83762418D01*
X172880676Y-84144265D01*
X173262523Y-84399406D01*
X173712941Y-84489000D01*
X173759059Y-84489000D01*
X174209477Y-84399406D01*
X174591324Y-84144265D01*
X174846465Y-83762418D01*
X174936059Y-83312000D01*
X176599941Y-83312000D01*
X176689535Y-83762418D01*
X176944676Y-84144265D01*
X177326523Y-84399406D01*
X177776941Y-84489000D01*
X177823059Y-84489000D01*
X178273477Y-84399406D01*
X178655324Y-84144265D01*
X178910465Y-83762418D01*
X178966447Y-83480974D01*
X180800338Y-83480974D01*
X180816641Y-83562934D01*
X180992395Y-83944640D01*
X181300843Y-84230032D01*
X181695026Y-84375662D01*
X181863500Y-84332250D01*
X181863500Y-83312500D01*
X181864500Y-83312500D01*
X181864500Y-84332250D01*
X182032974Y-84375662D01*
X182427157Y-84230032D01*
X182735605Y-83944640D01*
X182911359Y-83562934D01*
X182927662Y-83480974D01*
X182884250Y-83312500D01*
X181864500Y-83312500D01*
X181863500Y-83312500D01*
X180843750Y-83312500D01*
X180800338Y-83480974D01*
X178966447Y-83480974D01*
X179000059Y-83312000D01*
X178966448Y-83143026D01*
X180800338Y-83143026D01*
X180843750Y-83311500D01*
X181863500Y-83311500D01*
X181863500Y-82291750D01*
X181864500Y-82291750D01*
X181864500Y-83311500D01*
X182884250Y-83311500D01*
X182927662Y-83143026D01*
X182911359Y-83061066D01*
X182735605Y-82679360D01*
X182427157Y-82393968D01*
X182032974Y-82248338D01*
X181864500Y-82291750D01*
X181863500Y-82291750D01*
X181695026Y-82248338D01*
X181300843Y-82393968D01*
X180992395Y-82679360D01*
X180816641Y-83061066D01*
X180800338Y-83143026D01*
X178966448Y-83143026D01*
X178910465Y-82861582D01*
X178655324Y-82479735D01*
X178273477Y-82224594D01*
X177823059Y-82135000D01*
X177776941Y-82135000D01*
X177326523Y-82224594D01*
X176944676Y-82479735D01*
X176689535Y-82861582D01*
X176599941Y-83312000D01*
X174936059Y-83312000D01*
X174846465Y-82861582D01*
X174591324Y-82479735D01*
X174209477Y-82224594D01*
X173759059Y-82135000D01*
X173712941Y-82135000D01*
X173262523Y-82224594D01*
X172880676Y-82479735D01*
X172625535Y-82861582D01*
X172535941Y-83312000D01*
X170872059Y-83312000D01*
X170782465Y-82861582D01*
X170527324Y-82479735D01*
X170145477Y-82224594D01*
X169695059Y-82135000D01*
X169648941Y-82135000D01*
X169198523Y-82224594D01*
X168816676Y-82479735D01*
X168561535Y-82861582D01*
X168471941Y-83312000D01*
X154563224Y-83312000D01*
X154619225Y-83256000D01*
X155448000Y-83256000D01*
X155620973Y-83221594D01*
X155767612Y-83123612D01*
X156509100Y-82382125D01*
X156521582Y-82390465D01*
X156972000Y-82480059D01*
X157422418Y-82390465D01*
X157804265Y-82135324D01*
X158059406Y-81753477D01*
X158149000Y-81303059D01*
X158149000Y-81256941D01*
X158335000Y-81256941D01*
X158335000Y-81303059D01*
X158424594Y-81753477D01*
X158679735Y-82135324D01*
X159061582Y-82390465D01*
X159512000Y-82480059D01*
X159962418Y-82390465D01*
X160344265Y-82135324D01*
X160599406Y-81753477D01*
X160689000Y-81303059D01*
X160689000Y-81256941D01*
X160599406Y-80806523D01*
X160344265Y-80424676D01*
X159962418Y-80169535D01*
X159512000Y-80079941D01*
X159061582Y-80169535D01*
X158679735Y-80424676D01*
X158424594Y-80806523D01*
X158335000Y-81256941D01*
X158149000Y-81256941D01*
X158059406Y-80806523D01*
X157804265Y-80424676D01*
X157422418Y-80169535D01*
X156972000Y-80079941D01*
X156521582Y-80169535D01*
X156139735Y-80424676D01*
X155884594Y-80806523D01*
X155795000Y-81256941D01*
X155795000Y-81303059D01*
X155880397Y-81732378D01*
X155260776Y-82352000D01*
X154939985Y-82352000D01*
X155264265Y-82135324D01*
X155519406Y-81753477D01*
X155609000Y-81303059D01*
X155609000Y-81256941D01*
X155519406Y-80806523D01*
X155264265Y-80424676D01*
X154882418Y-80169535D01*
X154432000Y-80079941D01*
X153981582Y-80169535D01*
X153599735Y-80424676D01*
X153344594Y-80806523D01*
X153255000Y-81256941D01*
X153255000Y-81303059D01*
X153340397Y-81732378D01*
X152969000Y-82103775D01*
X152969000Y-81337250D01*
X152912250Y-81280500D01*
X151892500Y-81280500D01*
X151892500Y-82300250D01*
X151949250Y-82357000D01*
X152715775Y-82357000D01*
X142460388Y-92612388D01*
X142362406Y-92759027D01*
X142328000Y-92932000D01*
X142328000Y-103851377D01*
X142255000Y-103836594D01*
X141705000Y-103836594D01*
X141583821Y-103859395D01*
X141538064Y-103888839D01*
X137612000Y-99962776D01*
X137612000Y-96784843D01*
X138243864Y-96784843D01*
X138353063Y-96952404D01*
X138796437Y-97156588D01*
X139284198Y-97175557D01*
X139742091Y-97006425D01*
X139822937Y-96952404D01*
X139932136Y-96784843D01*
X139088000Y-95940707D01*
X138243864Y-96784843D01*
X137612000Y-96784843D01*
X137612000Y-96136198D01*
X137852443Y-96136198D01*
X138021575Y-96594091D01*
X138075596Y-96674937D01*
X138243157Y-96784136D01*
X139087293Y-95940000D01*
X139088707Y-95940000D01*
X139932843Y-96784136D01*
X140100404Y-96674937D01*
X140304588Y-96231563D01*
X140323557Y-95743802D01*
X140154425Y-95285909D01*
X140100404Y-95205063D01*
X139932843Y-95095864D01*
X139088707Y-95940000D01*
X139087293Y-95940000D01*
X138243157Y-95095864D01*
X138075596Y-95205063D01*
X137871412Y-95648437D01*
X137852443Y-96136198D01*
X137612000Y-96136198D01*
X137612000Y-95095157D01*
X138243864Y-95095157D01*
X139088000Y-95939293D01*
X139932136Y-95095157D01*
X139822937Y-94927596D01*
X139379563Y-94723412D01*
X138891802Y-94704443D01*
X138433909Y-94873575D01*
X138353063Y-94927596D01*
X138243864Y-95095157D01*
X137612000Y-95095157D01*
X137612000Y-91702798D01*
X137760771Y-91702798D01*
X137962369Y-92190703D01*
X138335334Y-92564319D01*
X138822885Y-92766769D01*
X139350798Y-92767229D01*
X139838703Y-92565631D01*
X140212319Y-92192666D01*
X140414769Y-91705115D01*
X140415229Y-91177202D01*
X140213631Y-90689297D01*
X139840666Y-90315681D01*
X139353115Y-90113231D01*
X138825202Y-90112771D01*
X138337297Y-90314369D01*
X137963681Y-90687334D01*
X137761231Y-91174885D01*
X137760771Y-91702798D01*
X137612000Y-91702798D01*
X137612000Y-88392000D01*
X137577594Y-88219027D01*
X137479612Y-88072388D01*
X134564000Y-85156776D01*
X134564000Y-82562054D01*
X135145560Y-82321758D01*
X135659952Y-81808264D01*
X135938682Y-81137007D01*
X135939316Y-80410182D01*
X135661758Y-79738440D01*
X135196133Y-79272000D01*
X137358594Y-79272000D01*
X137358594Y-82272000D01*
X137381395Y-82393179D01*
X137453012Y-82504474D01*
X137562286Y-82579138D01*
X137692000Y-82605406D01*
X140692000Y-82605406D01*
X140813179Y-82582605D01*
X140924474Y-82510988D01*
X140999138Y-82401714D01*
X141025406Y-82272000D01*
X141025406Y-81337250D01*
X150815000Y-81337250D01*
X150815000Y-82175153D01*
X150849559Y-82258585D01*
X150913415Y-82322441D01*
X150996847Y-82357000D01*
X151834750Y-82357000D01*
X151891500Y-82300250D01*
X151891500Y-81280500D01*
X150871750Y-81280500D01*
X150815000Y-81337250D01*
X141025406Y-81337250D01*
X141025406Y-80384847D01*
X150815000Y-80384847D01*
X150815000Y-81222750D01*
X150871750Y-81279500D01*
X151891500Y-81279500D01*
X151891500Y-80259750D01*
X151892500Y-80259750D01*
X151892500Y-81279500D01*
X152912250Y-81279500D01*
X152969000Y-81222750D01*
X152969000Y-80384847D01*
X152934441Y-80301415D01*
X152870585Y-80237559D01*
X152787153Y-80203000D01*
X151949250Y-80203000D01*
X151892500Y-80259750D01*
X151891500Y-80259750D01*
X151834750Y-80203000D01*
X150996847Y-80203000D01*
X150913415Y-80237559D01*
X150849559Y-80301415D01*
X150815000Y-80384847D01*
X141025406Y-80384847D01*
X141025406Y-79922000D01*
X168488594Y-79922000D01*
X168488594Y-81622000D01*
X168511395Y-81743179D01*
X168583012Y-81854474D01*
X168692286Y-81929138D01*
X168822000Y-81955406D01*
X170522000Y-81955406D01*
X170643179Y-81932605D01*
X170754474Y-81860988D01*
X170829138Y-81751714D01*
X170855406Y-81622000D01*
X170855406Y-79922000D01*
X172552594Y-79922000D01*
X172552594Y-81622000D01*
X172575395Y-81743179D01*
X172647012Y-81854474D01*
X172756286Y-81929138D01*
X172886000Y-81955406D01*
X174586000Y-81955406D01*
X174707179Y-81932605D01*
X174818474Y-81860988D01*
X174893138Y-81751714D01*
X174919406Y-81622000D01*
X174919406Y-79922000D01*
X176616594Y-79922000D01*
X176616594Y-81622000D01*
X176639395Y-81743179D01*
X176711012Y-81854474D01*
X176820286Y-81929138D01*
X176950000Y-81955406D01*
X178650000Y-81955406D01*
X178771179Y-81932605D01*
X178882474Y-81860988D01*
X178957138Y-81751714D01*
X178983406Y-81622000D01*
X178983406Y-80829250D01*
X180787000Y-80829250D01*
X180787000Y-81667153D01*
X180821559Y-81750585D01*
X180885415Y-81814441D01*
X180968847Y-81849000D01*
X181806750Y-81849000D01*
X181863500Y-81792250D01*
X181863500Y-80772500D01*
X181864500Y-80772500D01*
X181864500Y-81792250D01*
X181921250Y-81849000D01*
X182759153Y-81849000D01*
X182842585Y-81814441D01*
X182906441Y-81750585D01*
X182941000Y-81667153D01*
X182941000Y-80829250D01*
X182884250Y-80772500D01*
X181864500Y-80772500D01*
X181863500Y-80772500D01*
X180843750Y-80772500D01*
X180787000Y-80829250D01*
X178983406Y-80829250D01*
X178983406Y-79922000D01*
X178974911Y-79876847D01*
X180787000Y-79876847D01*
X180787000Y-80714750D01*
X180843750Y-80771500D01*
X181863500Y-80771500D01*
X181863500Y-79751750D01*
X181864500Y-79751750D01*
X181864500Y-80771500D01*
X182884250Y-80771500D01*
X182941000Y-80714750D01*
X182941000Y-79876847D01*
X182906441Y-79793415D01*
X182842585Y-79729559D01*
X182759153Y-79695000D01*
X181921250Y-79695000D01*
X181864500Y-79751750D01*
X181863500Y-79751750D01*
X181806750Y-79695000D01*
X180968847Y-79695000D01*
X180885415Y-79729559D01*
X180821559Y-79793415D01*
X180787000Y-79876847D01*
X178974911Y-79876847D01*
X178960605Y-79800821D01*
X178888988Y-79689526D01*
X178779714Y-79614862D01*
X178650000Y-79588594D01*
X176950000Y-79588594D01*
X176828821Y-79611395D01*
X176717526Y-79683012D01*
X176642862Y-79792286D01*
X176616594Y-79922000D01*
X174919406Y-79922000D01*
X174896605Y-79800821D01*
X174824988Y-79689526D01*
X174715714Y-79614862D01*
X174586000Y-79588594D01*
X172886000Y-79588594D01*
X172764821Y-79611395D01*
X172653526Y-79683012D01*
X172578862Y-79792286D01*
X172552594Y-79922000D01*
X170855406Y-79922000D01*
X170832605Y-79800821D01*
X170760988Y-79689526D01*
X170651714Y-79614862D01*
X170522000Y-79588594D01*
X168822000Y-79588594D01*
X168700821Y-79611395D01*
X168589526Y-79683012D01*
X168514862Y-79792286D01*
X168488594Y-79922000D01*
X141025406Y-79922000D01*
X141025406Y-79272000D01*
X141002605Y-79150821D01*
X140930988Y-79039526D01*
X140821714Y-78964862D01*
X140692000Y-78938594D01*
X137692000Y-78938594D01*
X137570821Y-78961395D01*
X137459526Y-79033012D01*
X137384862Y-79142286D01*
X137358594Y-79272000D01*
X135196133Y-79272000D01*
X135148264Y-79224048D01*
X134477007Y-78945318D01*
X133750182Y-78944684D01*
X133078440Y-79222242D01*
X132564048Y-79735736D01*
X132285318Y-80406993D01*
X132284684Y-81133818D01*
X132562242Y-81805560D01*
X133075736Y-82319952D01*
X133660000Y-82562559D01*
X133660000Y-85344000D01*
X133694406Y-85516973D01*
X133792388Y-85663612D01*
X136708000Y-88579224D01*
X136708000Y-100150000D01*
X136742406Y-100322973D01*
X136840388Y-100469612D01*
X141371594Y-105000819D01*
X141371594Y-105770000D01*
X141381378Y-105821998D01*
X141330000Y-105811594D01*
X140560818Y-105811594D01*
X136088000Y-101338776D01*
X136088000Y-89408000D01*
X136053594Y-89235027D01*
X136046403Y-89224265D01*
X135955612Y-89088387D01*
X129484000Y-82616776D01*
X129484000Y-82562054D01*
X130065560Y-82321758D01*
X130579952Y-81808264D01*
X130858682Y-81137007D01*
X130859316Y-80410182D01*
X130581758Y-79738440D01*
X130068264Y-79224048D01*
X129397007Y-78945318D01*
X128670182Y-78944684D01*
X127998440Y-79222242D01*
X127484048Y-79735736D01*
X127205318Y-80406993D01*
X127204684Y-81133818D01*
X125666200Y-81133818D01*
X125691078Y-80496051D01*
X125453096Y-79851540D01*
X125376839Y-79737412D01*
X125157323Y-79567384D01*
X123952707Y-80772000D01*
X123951293Y-80772000D01*
X122746677Y-79567384D01*
X122527161Y-79737412D01*
X122239701Y-80361428D01*
X122212922Y-81047949D01*
X108551110Y-81047949D01*
X108606000Y-80772000D01*
X108420723Y-79840549D01*
X108237728Y-79566677D01*
X122747384Y-79566677D01*
X123952000Y-80771293D01*
X125156616Y-79566677D01*
X124986588Y-79347161D01*
X124362572Y-79059701D01*
X123676051Y-79032922D01*
X123031540Y-79270904D01*
X122917412Y-79347161D01*
X122747384Y-79566677D01*
X108237728Y-79566677D01*
X107893098Y-79050902D01*
X107103451Y-78523277D01*
X106172000Y-78338000D01*
X105240549Y-78523277D01*
X104649207Y-78918399D01*
X105716606Y-77851000D01*
X184342961Y-77851000D01*
X186309000Y-80308549D01*
M02*
