G04 #@! TF.FileFunction,Legend,Bot*
%FSLAX46Y46*%
G04 Gerber Fmt 4.6, Leading zero omitted, Abs format (unit mm)*
G04 Created by KiCad (PCBNEW 4.0.7) date 06/25/19 19:36:15*
%MOMM*%
%LPD*%
G01*
G04 APERTURE LIST*
%ADD10C,0.100000*%
%ADD11C,0.120000*%
%ADD12C,0.150000*%
G04 APERTURE END LIST*
D10*
D11*
X130540000Y-102112000D02*
X128540000Y-102112000D01*
X128540000Y-100072000D02*
X130540000Y-100072000D01*
X156460000Y-110220000D02*
X156460000Y-108220000D01*
X158500000Y-108220000D02*
X158500000Y-110220000D01*
X165084000Y-130052000D02*
X163084000Y-130052000D01*
X163084000Y-128012000D02*
X165084000Y-128012000D01*
X167128000Y-97012000D02*
X167128000Y-95012000D01*
X169168000Y-95012000D02*
X169168000Y-97012000D01*
X134566000Y-119904000D02*
X134566000Y-121904000D01*
X136706000Y-121904000D02*
X136706000Y-119904000D01*
X137614000Y-119904000D02*
X137614000Y-121904000D01*
X139754000Y-121904000D02*
X139754000Y-119904000D01*
X126000000Y-92510000D02*
X128000000Y-92510000D01*
X128000000Y-90370000D02*
X126000000Y-90370000D01*
X118242000Y-108858000D02*
X118242000Y-110118000D01*
X118242000Y-115678000D02*
X118242000Y-114418000D01*
X114482000Y-108858000D02*
X118242000Y-108858000D01*
X112232000Y-115678000D02*
X118242000Y-115678000D01*
X118750000Y-87522000D02*
X118750000Y-88782000D01*
X118750000Y-94342000D02*
X118750000Y-93082000D01*
X114990000Y-87522000D02*
X118750000Y-87522000D01*
X112740000Y-94342000D02*
X118750000Y-94342000D01*
D12*
X129706666Y-103199143D02*
X129754285Y-103246762D01*
X129897142Y-103294381D01*
X129992380Y-103294381D01*
X130135238Y-103246762D01*
X130230476Y-103151524D01*
X130278095Y-103056286D01*
X130325714Y-102865810D01*
X130325714Y-102722952D01*
X130278095Y-102532476D01*
X130230476Y-102437238D01*
X130135238Y-102342000D01*
X129992380Y-102294381D01*
X129897142Y-102294381D01*
X129754285Y-102342000D01*
X129706666Y-102389619D01*
X129373333Y-102294381D02*
X128754285Y-102294381D01*
X129087619Y-102675333D01*
X128944761Y-102675333D01*
X128849523Y-102722952D01*
X128801904Y-102770571D01*
X128754285Y-102865810D01*
X128754285Y-103103905D01*
X128801904Y-103199143D01*
X128849523Y-103246762D01*
X128944761Y-103294381D01*
X129230476Y-103294381D01*
X129325714Y-103246762D01*
X129373333Y-103199143D01*
X156087143Y-109053334D02*
X156134762Y-109005715D01*
X156182381Y-108862858D01*
X156182381Y-108767620D01*
X156134762Y-108624762D01*
X156039524Y-108529524D01*
X155944286Y-108481905D01*
X155753810Y-108434286D01*
X155610952Y-108434286D01*
X155420476Y-108481905D01*
X155325238Y-108529524D01*
X155230000Y-108624762D01*
X155182381Y-108767620D01*
X155182381Y-108862858D01*
X155230000Y-109005715D01*
X155277619Y-109053334D01*
X155515714Y-109910477D02*
X156182381Y-109910477D01*
X155134762Y-109672381D02*
X155849048Y-109434286D01*
X155849048Y-110053334D01*
X164250666Y-131139143D02*
X164298285Y-131186762D01*
X164441142Y-131234381D01*
X164536380Y-131234381D01*
X164679238Y-131186762D01*
X164774476Y-131091524D01*
X164822095Y-130996286D01*
X164869714Y-130805810D01*
X164869714Y-130662952D01*
X164822095Y-130472476D01*
X164774476Y-130377238D01*
X164679238Y-130282000D01*
X164536380Y-130234381D01*
X164441142Y-130234381D01*
X164298285Y-130282000D01*
X164250666Y-130329619D01*
X163917333Y-130234381D02*
X163250666Y-130234381D01*
X163679238Y-131234381D01*
X166755143Y-95845334D02*
X166802762Y-95797715D01*
X166850381Y-95654858D01*
X166850381Y-95559620D01*
X166802762Y-95416762D01*
X166707524Y-95321524D01*
X166612286Y-95273905D01*
X166421810Y-95226286D01*
X166278952Y-95226286D01*
X166088476Y-95273905D01*
X165993238Y-95321524D01*
X165898000Y-95416762D01*
X165850381Y-95559620D01*
X165850381Y-95654858D01*
X165898000Y-95797715D01*
X165945619Y-95845334D01*
X166278952Y-96416762D02*
X166231333Y-96321524D01*
X166183714Y-96273905D01*
X166088476Y-96226286D01*
X166040857Y-96226286D01*
X165945619Y-96273905D01*
X165898000Y-96321524D01*
X165850381Y-96416762D01*
X165850381Y-96607239D01*
X165898000Y-96702477D01*
X165945619Y-96750096D01*
X166040857Y-96797715D01*
X166088476Y-96797715D01*
X166183714Y-96750096D01*
X166231333Y-96702477D01*
X166278952Y-96607239D01*
X166278952Y-96416762D01*
X166326571Y-96321524D01*
X166374190Y-96273905D01*
X166469429Y-96226286D01*
X166659905Y-96226286D01*
X166755143Y-96273905D01*
X166802762Y-96321524D01*
X166850381Y-96416762D01*
X166850381Y-96607239D01*
X166802762Y-96702477D01*
X166755143Y-96750096D01*
X166659905Y-96797715D01*
X166469429Y-96797715D01*
X166374190Y-96750096D01*
X166326571Y-96702477D01*
X166278952Y-96607239D01*
X136088381Y-125309334D02*
X135612190Y-124976000D01*
X136088381Y-124737905D02*
X135088381Y-124737905D01*
X135088381Y-125118858D01*
X135136000Y-125214096D01*
X135183619Y-125261715D01*
X135278857Y-125309334D01*
X135421714Y-125309334D01*
X135516952Y-125261715D01*
X135564571Y-125214096D01*
X135612190Y-125118858D01*
X135612190Y-124737905D01*
X136088381Y-126261715D02*
X136088381Y-125690286D01*
X136088381Y-125976000D02*
X135088381Y-125976000D01*
X135231238Y-125880762D01*
X135326476Y-125785524D01*
X135374095Y-125690286D01*
X139136381Y-125309334D02*
X138660190Y-124976000D01*
X139136381Y-124737905D02*
X138136381Y-124737905D01*
X138136381Y-125118858D01*
X138184000Y-125214096D01*
X138231619Y-125261715D01*
X138326857Y-125309334D01*
X138469714Y-125309334D01*
X138564952Y-125261715D01*
X138612571Y-125214096D01*
X138660190Y-125118858D01*
X138660190Y-124737905D01*
X138231619Y-125690286D02*
X138184000Y-125737905D01*
X138136381Y-125833143D01*
X138136381Y-126071239D01*
X138184000Y-126166477D01*
X138231619Y-126214096D01*
X138326857Y-126261715D01*
X138422095Y-126261715D01*
X138564952Y-126214096D01*
X139136381Y-125642667D01*
X139136381Y-126261715D01*
X127166666Y-90042381D02*
X127500000Y-89566190D01*
X127738095Y-90042381D02*
X127738095Y-89042381D01*
X127357142Y-89042381D01*
X127261904Y-89090000D01*
X127214285Y-89137619D01*
X127166666Y-89232857D01*
X127166666Y-89375714D01*
X127214285Y-89470952D01*
X127261904Y-89518571D01*
X127357142Y-89566190D01*
X127738095Y-89566190D01*
X126833333Y-89042381D02*
X126214285Y-89042381D01*
X126547619Y-89423333D01*
X126404761Y-89423333D01*
X126309523Y-89470952D01*
X126261904Y-89518571D01*
X126214285Y-89613810D01*
X126214285Y-89851905D01*
X126261904Y-89947143D01*
X126309523Y-89994762D01*
X126404761Y-90042381D01*
X126690476Y-90042381D01*
X126785714Y-89994762D01*
X126833333Y-89947143D01*
X117093905Y-116220381D02*
X117093905Y-117029905D01*
X117046286Y-117125143D01*
X116998667Y-117172762D01*
X116903429Y-117220381D01*
X116712952Y-117220381D01*
X116617714Y-117172762D01*
X116570095Y-117125143D01*
X116522476Y-117029905D01*
X116522476Y-116220381D01*
X115522476Y-117220381D02*
X116093905Y-117220381D01*
X115808191Y-117220381D02*
X115808191Y-116220381D01*
X115903429Y-116363238D01*
X115998667Y-116458476D01*
X116093905Y-116506095D01*
X117601905Y-94884381D02*
X117601905Y-95693905D01*
X117554286Y-95789143D01*
X117506667Y-95836762D01*
X117411429Y-95884381D01*
X117220952Y-95884381D01*
X117125714Y-95836762D01*
X117078095Y-95789143D01*
X117030476Y-95693905D01*
X117030476Y-94884381D01*
X116601905Y-94979619D02*
X116554286Y-94932000D01*
X116459048Y-94884381D01*
X116220952Y-94884381D01*
X116125714Y-94932000D01*
X116078095Y-94979619D01*
X116030476Y-95074857D01*
X116030476Y-95170095D01*
X116078095Y-95312952D01*
X116649524Y-95884381D01*
X116030476Y-95884381D01*
M02*
