G04 #@! TF.FileFunction,Soldermask,Top*
%FSLAX46Y46*%
G04 Gerber Fmt 4.6, Leading zero omitted, Abs format (unit mm)*
G04 Created by KiCad (PCBNEW 4.0.7) date 06/25/19 19:36:16*
%MOMM*%
%LPD*%
G01*
G04 APERTURE LIST*
%ADD10C,0.100000*%
%ADD11C,3.400000*%
%ADD12R,3.400000X3.400000*%
%ADD13R,2.400000X2.400000*%
%ADD14C,2.400000*%
%ADD15C,2.000000*%
%ADD16R,2.000000X2.000000*%
%ADD17R,2.100000X2.400000*%
%ADD18R,2.100000X2.100000*%
%ADD19O,2.100000X2.100000*%
%ADD20R,2.000000X0.950000*%
%ADD21R,0.950000X2.000000*%
%ADD22O,2.000000X2.000000*%
%ADD23R,2.800000X3.900000*%
G04 APERTURE END LIST*
D10*
D11*
X134112000Y-80772000D03*
X129032000Y-80772000D03*
D12*
X139192000Y-80772000D03*
D11*
X123952000Y-80772000D03*
D13*
X114300000Y-128524000D03*
D14*
X106700000Y-128524000D03*
D15*
X106172000Y-112776000D03*
X106172000Y-115276000D03*
X109728000Y-112776000D03*
X109728000Y-115276000D03*
D16*
X172720000Y-129540000D03*
D15*
X175220000Y-129540000D03*
D16*
X161036000Y-94488000D03*
D15*
X161036000Y-96988000D03*
X128524000Y-111252000D03*
X126024000Y-111252000D03*
X106680000Y-91948000D03*
X106680000Y-94448000D03*
X110236000Y-91948000D03*
X110236000Y-94448000D03*
X128524000Y-116332000D03*
X126024000Y-116332000D03*
D17*
X135636000Y-132048000D03*
X135636000Y-128048000D03*
X138684000Y-132048000D03*
X138684000Y-128048000D03*
D12*
X105664000Y-99060000D03*
D11*
X105664000Y-104140000D03*
D18*
X169672000Y-80772000D03*
D19*
X169672000Y-83312000D03*
X169672000Y-85852000D03*
X169672000Y-88392000D03*
D18*
X177800000Y-80772000D03*
D19*
X177800000Y-83312000D03*
X177800000Y-85852000D03*
D18*
X173736000Y-80772000D03*
D19*
X173736000Y-83312000D03*
X173736000Y-85852000D03*
D18*
X181864000Y-80772000D03*
D19*
X181864000Y-83312000D03*
X181864000Y-85852000D03*
X181864000Y-88392000D03*
X181864000Y-90932000D03*
D12*
X183388000Y-108712000D03*
D11*
X183388000Y-103632000D03*
D12*
X183388000Y-119888000D03*
D11*
X183388000Y-114808000D03*
D18*
X152400000Y-124460000D03*
D19*
X152400000Y-127000000D03*
X149860000Y-124460000D03*
X149860000Y-127000000D03*
X147320000Y-124460000D03*
X147320000Y-127000000D03*
D18*
X151892000Y-81280000D03*
D19*
X154432000Y-81280000D03*
X156972000Y-81280000D03*
X159512000Y-81280000D03*
D18*
X159512000Y-86360000D03*
D19*
X156972000Y-86360000D03*
X154432000Y-86360000D03*
D14*
X132588000Y-95940000D03*
X132588000Y-91440000D03*
X139088000Y-95940000D03*
X139088000Y-91440000D03*
D20*
X140530000Y-106420000D03*
X140530000Y-107220000D03*
X140530000Y-108020000D03*
X140530000Y-108820000D03*
X140530000Y-109620000D03*
X140530000Y-110420000D03*
X140530000Y-111220000D03*
X140530000Y-112020000D03*
D21*
X141980000Y-113470000D03*
X142780000Y-113470000D03*
X143580000Y-113470000D03*
X144380000Y-113470000D03*
X145180000Y-113470000D03*
X145980000Y-113470000D03*
X146780000Y-113470000D03*
X147580000Y-113470000D03*
D20*
X149030000Y-112020000D03*
X149030000Y-111220000D03*
X149030000Y-110420000D03*
X149030000Y-109620000D03*
X149030000Y-108820000D03*
X149030000Y-108020000D03*
X149030000Y-107220000D03*
X149030000Y-106420000D03*
D21*
X147580000Y-104970000D03*
X146780000Y-104970000D03*
X145980000Y-104970000D03*
X145180000Y-104970000D03*
X144380000Y-104970000D03*
X143580000Y-104970000D03*
X142780000Y-104970000D03*
X141980000Y-104970000D03*
D16*
X170688000Y-121412000D03*
D22*
X163068000Y-103632000D03*
X170688000Y-118872000D03*
X163068000Y-106172000D03*
X170688000Y-116332000D03*
X163068000Y-108712000D03*
X170688000Y-113792000D03*
X163068000Y-111252000D03*
X170688000Y-111252000D03*
X163068000Y-113792000D03*
X170688000Y-108712000D03*
X163068000Y-116332000D03*
X170688000Y-106172000D03*
X163068000Y-118872000D03*
X170688000Y-103632000D03*
X163068000Y-121412000D03*
D23*
X132588000Y-111192000D03*
X132588000Y-116392000D03*
M02*
