M48
METRIC,TZ
T1C0.400
T2C0.800
T3C1.000
T4C1.100
T5C1.520
%
G90
G05
T1
X116840Y-89408
X121920Y-118872
X123952Y-106172
X133604Y-124460
X135636Y-125476
X138176Y-107188
X138684Y-125476
X140716Y-113792
X144272Y-101600
X145288Y-115316
X145796Y-110744
X145796Y-111760
X146304Y-117856
X146812Y-115316
X148336Y-115824
X150876Y-115824
X151384Y-109728
X151384Y-110744
X153416Y-103124
X153416Y-121412
X160020Y-102108
X163576Y-91440
X164084Y-124968
X165100Y-90424
X166624Y-89408
X173736Y-124460
X174244Y-119888
X176784Y-114808
T2
X106172Y-112776
X106172Y-115276
X106680Y-91948
X106680Y-94448
X109728Y-112776
X109728Y-115276
X110236Y-91948
X110236Y-94448
X126024Y-111252
X126024Y-116332
X128524Y-111252
X128524Y-116332
X161036Y-94488
X161036Y-96988
X163068Y-103632
X163068Y-106172
X163068Y-108712
X163068Y-111252
X163068Y-113792
X163068Y-116332
X163068Y-118872
X163068Y-121412
X170688Y-103632
X170688Y-106172
X170688Y-108712
X170688Y-111252
X170688Y-113792
X170688Y-116332
X170688Y-118872
X170688Y-121412
X172720Y-129540
X175220Y-129540
T3
X106700Y-128524
X114300Y-128524
X147320Y-124460
X147320Y-127000
X149860Y-124460
X149860Y-127000
X151892Y-81280
X152400Y-124460
X152400Y-127000
X154432Y-81280
X154432Y-86360
X156972Y-81280
X156972Y-86360
X159512Y-81280
X159512Y-86360
X169672Y-80772
X169672Y-83312
X169672Y-85852
X169672Y-88392
X173736Y-80772
X173736Y-83312
X173736Y-85852
X177800Y-80772
X177800Y-83312
X177800Y-85852
X181864Y-80772
X181864Y-83312
X181864Y-85852
X181864Y-88392
X181864Y-90932
T4
X132588Y-91440
X132588Y-95940
X139088Y-91440
X139088Y-95940
T5
X105664Y-99060
X105664Y-104140
X123952Y-80772
X129032Y-80772
X134112Y-80772
X139192Y-80772
X183388Y-103632
X183388Y-108712
X183388Y-114808
X183388Y-119888
T0
M30
