  0
SECTION
  2
HEADER
  9
$ACADVER
  1
AC1014
  9
$HANDSEED
  5
FFFF
  9
$MEASUREMENT
 70
     1
  0
ENDSEC
  0
SECTION
  2
TABLES
  0
TABLE
  2
VPORT
  5
8
330
0
100
AcDbSymbolTable
 70
     4
  0
VPORT
  5
2E
330
8
100
AcDbSymbolTableRecord
100
AcDbViewportTableRecord
  2
*ACTIVE
 70
     0
 10
0.0
 20
0.0
 11
1.0
 21
1.0
 12
210.0
 22
148.5
 13
0.0
 23
0.0
 14
10.0
 24
10.0
 15
10.0
 25
10.0
 16
0.0
 26
0.0
 36
1.0
 17
0.0
 27
0.0
 37
0.0
 40
341.0
 41
1.24
 42
50.0
 43
0.0
 44
0.0
 50
0.0
 51
0.0
 71
     0
 72
   100
 73
     1
 74
     3
 75
     0
 76
     0
 77
     0
 78
     0
  0
ENDTAB
  0
TABLE
  2
LTYPE
  5
5
330
0
100
AcDbSymbolTable
 70
     1
  0
LTYPE
  5
14
330
5
100
AcDbSymbolTableRecord
100
AcDbLinetypeTableRecord
  2
BYBLOCK
 70
     0
  3

 72
    65
 73
     0
 40
0.0
  0
LTYPE
  5
15
330
5
100
AcDbSymbolTableRecord
100
AcDbLinetypeTableRecord
  2
BYLAYER
 70
     0
  3

 72
    65
 73
     0
 40
0.0
  0
LTYPE
  5
16
330
5
100
AcDbSymbolTableRecord
100
AcDbLinetypeTableRecord
  2
CONTINUOUS
 70
     0
  3
Solid line
 72
    65
 73
     0
 40
0.0
  0
ENDTAB
  0
TABLE
  2
LAYER
  5
2
100
AcDbSymbolTable
 70
2
  0
LAYER
  5
50
100
AcDbSymbolTableRecord
100
AcDbLayerTableRecord
  2
0
 70
0
  6
CONTINUOUS
  0
LAYER
  5
51
100
AcDbSymbolTableRecord
100
AcDbLayerTableRecord
  2
Layer_1
 70
0
  6
CONTINUOUS
  0
ENDTAB
  0
TABLE
  2
STYLE
  5
3
330
0
100
AcDbSymbolTable
 70
     1
  0
STYLE
  5
11
330
3
100
AcDbSymbolTableRecord
100
AcDbTextStyleTableRecord
  2
STANDARD
 70
     0
 40
0.0
 41
1.0
 50
0.0
 71
     0
 42
2.5
  3
txt
  4

  0
ENDTAB
  0
TABLE
  2
VIEW
  5
6
330
0
100
AcDbSymbolTable
 70
     0
  0
ENDTAB
  0
TABLE
  2
UCS
  5
7
330
0
100
AcDbSymbolTable
 70
     0
  0
ENDTAB
  0
TABLE
  2
APPID
  5
9
330
0
100
AcDbSymbolTable
 70
     2
  0
APPID
  5
12
330
9
100
AcDbSymbolTableRecord
100
AcDbRegAppTableRecord
  2
ACAD
 70
     0
  0
ENDTAB
  0
TABLE
  2
DIMSTYLE
  5
A
330
0
100
AcDbSymbolTable
 70
     1
  0
DIMSTYLE
105
27
330
A
100
AcDbSymbolTableRecord
100
AcDbDimStyleTableRecord
  2
ISO-25
 70
     0
  3

  4

  5

  6

  7

 40
1.0
 41
2.5
 42
0.625
 43
3.75
 44
1.25
 45
0.0
 46
0.0
 47
0.0
 48
0.0
140
2.5
141
2.5
142
0.0
143
0.03937007874016
144
1.0
145
0.0
146
1.0
147
0.625
 71
     0
 72
     0
 73
     0
 74
     0
 75
     0
 76
     0
 77
     1
 78
     8
170
     0
171
     3
172
     1
173
     0
174
     0
175
     0
176
     0
177
     0
178
     0
270
     2
271
     2
272
     2
273
     2
274
     3
340
11
275
     0
280
     0
281
     0
282
     0
283
     0
284
     8
285
     0
286
     0
287
     3
288
     0
  0
ENDTAB
  0
TABLE
  2
BLOCK_RECORD
  5
1
330
0
100
AcDbSymbolTable
 70
     1
  0
BLOCK_RECORD
  5
1F
330
1
100
AcDbSymbolTableRecord
100
AcDbBlockTableRecord
  2
*MODEL_SPACE
  0
BLOCK_RECORD
  5
1B
330
1
100
AcDbSymbolTableRecord
100
AcDbBlockTableRecord
  2
*PAPER_SPACE
  0
ENDTAB
  0
ENDSEC
  0
SECTION
  2
BLOCKS
  0
BLOCK
  5
20
330
1F
100
AcDbEntity
  8
0
100
AcDbBlockBegin
  2
*MODEL_SPACE
 70
     0
 10
0.0
 20
0.0
 30
0.0
  3
*MODEL_SPACE
  1

  0
ENDBLK
  5
21
330
1F
100
AcDbEntity
  8
0
100
AcDbBlockEnd
  0
BLOCK
  5
1C
330
1B
100
AcDbEntity
 67
     1
  8
0
100
AcDbBlockBegin
  2
*PAPER_SPACE
  1

  0
ENDBLK
  5
1D
330
1B
100
AcDbEntity
 67
     1
  8
0
100
AcDbBlockEnd
  0
ENDSEC
  0
SECTION
  2
ENTITIES
  0
LWPOLYLINE
  5
100
100
AcDbEntity
  8
Layer_1
 62
7
100
AcDbPolyline
 90
157
 70
0
 10
102.597325
 20
170.428379
 30
0.0
 10
102.597325
 20
175.550964
 30
0.0
 10
97.041078
 20
175.562535
 30
0.0
 10
91.921399
 20
175.653913
 30
0.0
 10
86.673773
 20
175.869366
 30
0.0
 10
82.423921
 20
176.150084
 30
0.0
 10
81.024947
 20
176.296538
 30
0.0
 10
80.297562
 20
176.437255
 30
0.0
 10
79.982015
 20
176.594475
 30
0.0
 10
79.737142
 20
176.795818
 30
0.0
 10
79.565944
 20
177.048116
 30
0.0
 10
79.471426
 20
177.358205
 30
0.0
 10
79.456590
 20
177.732918
 30
0.0
 10
79.524440
 20
178.179091
 30
0.0
 10
79.677979
 20
178.703556
 30
0.0
 10
79.920210
 20
179.313148
 30
0.0
 10
80.682760
 20
180.815053
 30
0.0
 10
81.836116
 20
182.739478
 30
0.0
 10
83.404304
 20
185.141098
 30
0.0
 10
85.411350
 20
188.074586
 30
0.0
 10
88.096530
 20
192.001932
 30
0.0
 10
88.837570
 20
193.212131
 30
0.0
 10
89.068393
 20
193.663869
 30
0.0
 10
89.210158
 20
194.026701
 30
0.0
 10
89.265920
 20
194.310629
 30
0.0
 10
89.238733
 20
194.525655
 30
0.0
 10
89.131652
 20
194.681780
 30
0.0
 10
88.947732
 20
194.789006
 30
0.0
 10
88.690026
 20
194.857335
 30
0.0
 10
88.361590
 20
194.896769
 30
0.0
 10
87.504747
 20
194.928957
 30
0.0
 10
86.872174
 20
194.979638
 30
0.0
 10
86.245874
 20
195.098512
 30
0.0
 10
85.645538
 20
195.276248
 30
0.0
 10
85.090860
 20
195.503513
 30
0.0
 10
84.601532
 20
195.770976
 30
0.0
 10
84.197247
 20
196.069305
 30
0.0
 10
83.897698
 20
196.389169
 30
0.0
 10
83.722577
 20
196.721235
 30
0.0
 10
83.666466
 20
196.995077
 30
0.0
 10
83.667041
 20
197.312760
 30
0.0
 10
83.733187
 20
197.688790
 30
0.0
 10
83.873786
 20
198.137676
 30
0.0
 10
84.413886
 20
199.312051
 30
0.0
 10
85.358416
 20
200.951949
 30
0.0
 10
86.778449
 20
203.173437
 30
0.0
 10
88.745061
 20
206.092582
 30
0.0
 10
94.602317
 20
214.488106
 30
0.0
 10
95.618650
 20
215.963798
 30
0.0
 10
96.383191
 20
217.165618
 30
0.0
 10
96.905980
 20
218.132013
 30
0.0
 10
97.197059
 20
218.901433
 30
0.0
 10
97.258845
 20
219.224292
 30
0.0
 10
97.266469
 20
219.512325
 30
0.0
 10
97.221186
 20
219.770338
 30
0.0
 10
97.124251
 20
220.003138
 30
0.0
 10
96.976919
 20
220.215529
 30
0.0
 10
96.780446
 20
220.412319
 30
0.0
 10
96.245096
 20
220.778317
 30
0.0
 10
95.781672
 20
221.093961
 30
0.0
 10
95.451794
 20
221.437997
 30
0.0
 10
95.254541
 20
221.811677
 30
0.0
 10
95.188995
 20
222.216250
 30
0.0
 10
95.318711
 20
222.590443
 30
0.0
 10
95.686699
 20
223.303418
 30
0.0
 10
97.010509
 20
225.552607
 30
0.0
 10
98.906474
 20
228.577598
 30
0.0
 10
101.120644
 20
231.992174
 30
0.0
 10
103.399067
 20
235.410113
 30
0.0
 10
105.487792
 20
238.445198
 30
0.0
 10
107.132867
 20
240.711209
 30
0.0
 10
107.709676
 20
241.435118
 30
0.0
 10
108.080342
 20
241.821926
 30
0.0
 10
108.617698
 20
242.209280
 30
0.0
 10
108.830309
 20
242.315003
 30
0.0
 10
109.028455
 20
242.364691
 30
0.0
 10
109.229321
 20
242.360295
 30
0.0
 10
109.450093
 20
242.303765
 30
0.0
 10
110.020097
 20
242.042107
 30
0.0
 10
110.853744
 20
241.515203
 30
0.0
 10
111.764335
 20
240.742534
 30
0.0
 10
112.780952
 20
239.687528
 30
0.0
 10
113.932674
 20
238.313614
 30
0.0
 10
115.248583
 20
236.584221
 30
0.0
 10
116.757759
 20
234.462775
 30
0.0
 10
118.489282
 20
231.912706
 30
0.0
 10
120.472234
 20
228.897441
 30
0.0
 10
122.152091
 20
226.250949
 30
0.0
 10
123.399148
 20
224.155440
 30
0.0
 10
124.164076
 20
222.698021
 30
0.0
 10
124.350328
 20
222.235815
 30
0.0
 10
124.397550
 20
221.965798
 30
0.0
 10
124.271010
 20
221.633465
 30
0.0
 10
124.001910
 20
221.298700
 30
0.0
 10
123.617900
 20
220.988798
 30
0.0
 10
123.146631
 20
220.731050
 30
0.0
 10
122.701455
 20
220.493864
 30
0.0
 10
122.336895
 20
220.221106
 30
0.0
 10
122.090571
 20
219.946485
 30
0.0
 10
122.000103
 20
219.703711
 30
0.0
 10
122.071073
 20
219.336311
 30
0.0
 10
122.290301
 20
218.800286
 30
0.0
 10
122.667262
 20
218.080250
 30
0.0
 10
123.211433
 20
217.160822
 30
0.0
 10
124.839307
 20
214.662255
 30
0.0
 10
127.249730
 20
211.181520
 30
0.0
 10
131.026402
 20
205.705718
 30
0.0
 10
132.491091
 20
203.481520
 30
0.0
 10
133.679360
 20
201.589912
 30
0.0
 10
134.595720
 20
200.023484
 30
0.0
 10
135.244680
 20
198.774828
 30
0.0
 10
135.630749
 20
197.836533
 30
0.0
 10
135.726609
 20
197.481455
 30
0.0
 10
135.758436
 20
197.201190
 30
0.0
 10
135.727265
 20
196.715006
 30
0.0
 10
135.620228
 20
196.314795
 30
0.0
 10
135.417042
 20
195.987893
 30
0.0
 10
135.097426
 20
195.721635
 30
0.0
 10
134.641096
 20
195.503354
 30
0.0
 10
134.027769
 20
195.320385
 30
0.0
 10
133.237163
 20
195.160062
 30
0.0
 10
132.248995
 20
195.009721
 30
0.0
 10
130.677981
 20
194.740918
 30
0.0
 10
130.151434
 20
194.610509
 30
0.0
 10
129.900282
 20
194.504850
 30
0.0
 10
129.918376
 20
194.377060
 30
0.0
 10
130.052853
 20
194.093429
 30
0.0
 10
130.625548
 20
193.130504
 30
0.0
 10
131.527549
 20
191.759789
 30
0.0
 10
132.668038
 20
190.124999
 30
0.0
 10
136.424719
 20
184.786263
 30
0.0
 10
137.818333
 20
182.724499
 30
0.0
 10
138.911845
 20
181.030926
 30
0.0
 10
139.722542
 20
179.677888
 30
0.0
 10
140.267710
 20
178.637726
 30
0.0
 10
140.564637
 20
177.882783
 30
0.0
 10
140.625411
 20
177.603625
 30
0.0
 10
140.630608
 20
177.385400
 30
0.0
 10
140.579398
 20
177.051360
 30
0.0
 10
140.497779
 20
176.756301
 30
0.0
 10
140.370715
 20
176.497977
 30
0.0
 10
140.183172
 20
176.274143
 30
0.0
 10
139.920114
 20
176.082556
 30
0.0
 10
139.566506
 20
175.920971
 30
0.0
 10
139.107313
 20
175.787144
 30
0.0
 10
138.527499
 20
175.678830
 30
0.0
 10
136.945868
 20
175.529762
 30
0.0
 10
134.701333
 20
175.455814
 30
0.0
 10
131.673611
 20
175.439028
 30
0.0
 10
127.742419
 20
175.461449
 30
0.0
 10
117.080572
 20
175.548325
 30
0.0
 10
116.982697
 20
170.522560
 30
0.0
 10
116.884825
 20
165.496797
 30
0.0
 10
109.741075
 20
165.401296
 30
0.0
 10
102.597325
 20
165.305801
 30
0.0
 10
102.597325
 20
170.428379
 30
0.0
 10
102.597325
 20
170.428379
 30
0.0
  0
ENDSEC
  0
SECTION
  2
OBJECTS
  0
DICTIONARY
  5
C
330
0
100
AcDbDictionary
  3
ACAD_GROUP
350
D
  3
ACAD_MLINESTYLE
350
17
  0
DICTIONARY
  5
D
330
C
100
AcDbDictionary
  0
DICTIONARY
  5
1A
330
C
100
AcDbDictionary
  0
DICTIONARY
  5
17
330
C
100
AcDbDictionary
  3
STANDARD
350
18
  0
DICTIONARY
  5
19
330
C
100
AcDbDictionary
  0
ENDSEC
  0
EOF
