<?xml version="1.0" encoding="UTF-8" standalone="no"?>
<!-- Created with Inkscape (http://www.inkscape.org/) -->

<svg
   xmlns:dc="http://purl.org/dc/elements/1.1/"
   xmlns:cc="http://creativecommons.org/ns#"
   xmlns:rdf="http://www.w3.org/1999/02/22-rdf-syntax-ns#"
   xmlns:svg="http://www.w3.org/2000/svg"
   xmlns="http://www.w3.org/2000/svg"
   xmlns:sodipodi="http://sodipodi.sourceforge.net/DTD/sodipodi-0.dtd"
   xmlns:inkscape="http://www.inkscape.org/namespaces/inkscape"
   width="210mm"
   height="297mm"
   viewBox="0 0 744.09448819 1052.3622047"
   id="svg4240"
   version="1.1"
   inkscape:version="0.91 r13725"
   sodipodi:docname="white2.svg">
  <defs
     id="defs4242" />
  <sodipodi:namedview
     id="base"
     pagecolor="#ffffff"
     bordercolor="#666666"
     borderopacity="1.0"
     inkscape:pageopacity="0.0"
     inkscape:pageshadow="2"
     inkscape:zoom="0.98994949"
     inkscape:cx="240.41988"
     inkscape:cy="578.41677"
     inkscape:document-units="px"
     inkscape:current-layer="layer1"
     showgrid="false"
     inkscape:window-width="1022"
     inkscape:window-height="1080"
     inkscape:window-x="1017"
     inkscape:window-y="0"
     inkscape:window-maximized="0" />
  <metadata
     id="metadata4245">
    <rdf:RDF>
      <cc:Work
         rdf:about="">
        <dc:format>image/svg+xml</dc:format>
        <dc:type
           rdf:resource="http://purl.org/dc/dcmitype/StillImage" />
        <dc:title></dc:title>
      </cc:Work>
    </rdf:RDF>
  </metadata>
  <g
     inkscape:label="Layer 1"
     inkscape:groupmode="layer"
     id="layer1">
    <path
       inkscape:connector-curvature="0"
       style="fill:#ffffff"
       d="m 427.75525,426.88827 c -1.07515,-0.0225 -1.94119,0.0888 -2.54492,0.39063 -11.00071,5.50036 -24.68543,15.92273 -39.06055,13.86914 -6.56448,-0.93779 -16.41963,-7.35686 -23.20899,-5.09375 -9.87487,3.29163 -20.26991,9.82703 -30.56837,11.88672 -7.1666,1.43332 -14.95149,0.0352 -22.37891,-1.17383 -12.17711,17.88537 -16.19152,25.07328 -16.56445,28.99023 19.21115,-2.73106 39.25817,-3.76834 58.75587,-10.26757 14.28685,-4.76228 26.27487,5.7428 41.32423,1.98046 7.9619,-1.99046 10.36749,-4.21038 16.41601,-6.22656 9.3666,-3.12219 21.43884,6.54718 30.56836,1.98242 3.77857,-1.88928 13.17105,-7.35937 17.54883,-7.35937 2.8415,0 6.53962,0.39981 10.1836,0.88086 -4.35658,-6.89836 -10.30858,-15.71512 -17.73243,-26.32813 -8.40041,-0.47152 -17.77964,-3.42721 -22.73828,-3.53125 z"
       id="path3346-8" />
  </g>
</svg>
