  0
SECTION
  2
HEADER
  9
$ACADVER
  1
AC1014
  9
$HANDSEED
  5
FFFF
  9
$MEASUREMENT
 70
     1
  0
ENDSEC
  0
SECTION
  2
TABLES
  0
TABLE
  2
VPORT
  5
8
330
0
100
AcDbSymbolTable
 70
     4
  0
VPORT
  5
2E
330
8
100
AcDbSymbolTableRecord
100
AcDbViewportTableRecord
  2
*ACTIVE
 70
     0
 10
0.0
 20
0.0
 11
1.0
 21
1.0
 12
210.0
 22
148.5
 13
0.0
 23
0.0
 14
10.0
 24
10.0
 15
10.0
 25
10.0
 16
0.0
 26
0.0
 36
1.0
 17
0.0
 27
0.0
 37
0.0
 40
341.0
 41
1.24
 42
50.0
 43
0.0
 44
0.0
 50
0.0
 51
0.0
 71
     0
 72
   100
 73
     1
 74
     3
 75
     0
 76
     0
 77
     0
 78
     0
  0
ENDTAB
  0
TABLE
  2
LTYPE
  5
5
330
0
100
AcDbSymbolTable
 70
     1
  0
LTYPE
  5
14
330
5
100
AcDbSymbolTableRecord
100
AcDbLinetypeTableRecord
  2
BYBLOCK
 70
     0
  3

 72
    65
 73
     0
 40
0.0
  0
LTYPE
  5
15
330
5
100
AcDbSymbolTableRecord
100
AcDbLinetypeTableRecord
  2
BYLAYER
 70
     0
  3

 72
    65
 73
     0
 40
0.0
  0
LTYPE
  5
16
330
5
100
AcDbSymbolTableRecord
100
AcDbLinetypeTableRecord
  2
CONTINUOUS
 70
     0
  3
Solid line
 72
    65
 73
     0
 40
0.0
  0
ENDTAB
  0
TABLE
  2
LAYER
  5
2
100
AcDbSymbolTable
 70
2
  0
LAYER
  5
50
100
AcDbSymbolTableRecord
100
AcDbLayerTableRecord
  2
0
 70
0
  6
CONTINUOUS
  0
LAYER
  5
51
100
AcDbSymbolTableRecord
100
AcDbLayerTableRecord
  2
Layer_1
 70
0
  6
CONTINUOUS
  0
ENDTAB
  0
TABLE
  2
STYLE
  5
3
330
0
100
AcDbSymbolTable
 70
     1
  0
STYLE
  5
11
330
3
100
AcDbSymbolTableRecord
100
AcDbTextStyleTableRecord
  2
STANDARD
 70
     0
 40
0.0
 41
1.0
 50
0.0
 71
     0
 42
2.5
  3
txt
  4

  0
ENDTAB
  0
TABLE
  2
VIEW
  5
6
330
0
100
AcDbSymbolTable
 70
     0
  0
ENDTAB
  0
TABLE
  2
UCS
  5
7
330
0
100
AcDbSymbolTable
 70
     0
  0
ENDTAB
  0
TABLE
  2
APPID
  5
9
330
0
100
AcDbSymbolTable
 70
     2
  0
APPID
  5
12
330
9
100
AcDbSymbolTableRecord
100
AcDbRegAppTableRecord
  2
ACAD
 70
     0
  0
ENDTAB
  0
TABLE
  2
DIMSTYLE
  5
A
330
0
100
AcDbSymbolTable
 70
     1
  0
DIMSTYLE
105
27
330
A
100
AcDbSymbolTableRecord
100
AcDbDimStyleTableRecord
  2
ISO-25
 70
     0
  3

  4

  5

  6

  7

 40
1.0
 41
2.5
 42
0.625
 43
3.75
 44
1.25
 45
0.0
 46
0.0
 47
0.0
 48
0.0
140
2.5
141
2.5
142
0.0
143
0.03937007874016
144
1.0
145
0.0
146
1.0
147
0.625
 71
     0
 72
     0
 73
     0
 74
     0
 75
     0
 76
     0
 77
     1
 78
     8
170
     0
171
     3
172
     1
173
     0
174
     0
175
     0
176
     0
177
     0
178
     0
270
     2
271
     2
272
     2
273
     2
274
     3
340
11
275
     0
280
     0
281
     0
282
     0
283
     0
284
     8
285
     0
286
     0
287
     3
288
     0
  0
ENDTAB
  0
TABLE
  2
BLOCK_RECORD
  5
1
330
0
100
AcDbSymbolTable
 70
     1
  0
BLOCK_RECORD
  5
1F
330
1
100
AcDbSymbolTableRecord
100
AcDbBlockTableRecord
  2
*MODEL_SPACE
  0
BLOCK_RECORD
  5
1B
330
1
100
AcDbSymbolTableRecord
100
AcDbBlockTableRecord
  2
*PAPER_SPACE
  0
ENDTAB
  0
ENDSEC
  0
SECTION
  2
BLOCKS
  0
BLOCK
  5
20
330
1F
100
AcDbEntity
  8
0
100
AcDbBlockBegin
  2
*MODEL_SPACE
 70
     0
 10
0.0
 20
0.0
 30
0.0
  3
*MODEL_SPACE
  1

  0
ENDBLK
  5
21
330
1F
100
AcDbEntity
  8
0
100
AcDbBlockEnd
  0
BLOCK
  5
1C
330
1B
100
AcDbEntity
 67
     1
  8
0
100
AcDbBlockBegin
  2
*PAPER_SPACE
  1

  0
ENDBLK
  5
1D
330
1B
100
AcDbEntity
 67
     1
  8
0
100
AcDbBlockEnd
  0
ENDSEC
  0
SECTION
  2
ENTITIES
  0
LWPOLYLINE
  5
100
100
AcDbEntity
  8
Layer_1
 62
7
100
AcDbPolyline
 90
93
 70
0
 10
139.891476
 20
164.649673
 30
0.0
 10
139.482468
 20
164.628876
 30
0.0
 10
139.173244
 20
164.539429
 30
0.0
 10
137.974593
 20
163.901783
 30
0.0
 10
136.711522
 20
163.191450
 30
0.0
 10
135.390624
 20
162.465969
 30
0.0
 10
134.018491
 20
161.782880
 30
0.0
 10
132.601717
 20
161.199723
 30
0.0
 10
131.878650
 20
160.963601
 30
0.0
 10
131.146896
 20
160.774039
 30
0.0
 10
130.407278
 20
160.638230
 30
0.0
 10
129.660621
 20
160.563368
 30
0.0
 10
128.907749
 20
160.556643
 30
0.0
 10
128.149485
 20
160.625249
 30
0.0
 10
127.414716
 20
160.789205
 30
0.0
 10
126.613903
 20
161.051342
 30
0.0
 10
124.898239
 20
161.682796
 30
0.0
 10
124.025433
 20
161.958426
 30
0.0
 10
123.170675
 20
162.144869
 30
0.0
 10
122.354987
 20
162.195280
 30
0.0
 10
121.968365
 20
162.154837
 30
0.0
 10
121.599393
 20
162.062819
 30
0.0
 10
120.547762
 20
161.675797
 30
0.0
 10
119.484408
 20
161.228482
 30
0.0
 10
117.330688
 20
160.255090
 30
0.0
 10
116.244403
 20
159.780076
 30
0.0
 10
115.154554
 20
159.346889
 30
0.0
 10
114.063180
 20
158.981061
 30
0.0
 10
112.972322
 20
158.708122
 30
0.0
 10
112.206215
 20
158.592222
 30
0.0
 10
111.426977
 20
158.541247
 30
0.0
 10
110.637834
 20
158.545208
 30
0.0
 10
109.842013
 20
158.594114
 30
0.0
 10
108.243247
 20
158.786806
 30
0.0
 10
106.656497
 20
159.039403
 30
0.0
 10
104.491013
 20
155.786992
 30
0.0
 10
103.069792
 20
153.470235
 30
0.0
 10
102.600897
 20
152.601324
 30
0.0
 10
102.273209
 20
151.892641
 30
0.0
 10
102.071775
 20
151.319626
 30
0.0
 10
101.981641
 20
150.857716
 30
0.0
 10
106.086124
 20
151.377716
 30
0.0
 10
110.242420
 20
151.907786
 30
0.0
 10
112.328545
 20
152.235763
 30
0.0
 10
114.413879
 20
152.637256
 30
0.0
 10
116.493841
 20
153.135930
 30
0.0
 10
118.563850
 20
153.755453
 30
0.0
 10
119.312629
 20
153.958998
 30
0.0
 10
120.048418
 20
154.073766
 30
0.0
 10
120.773433
 20
154.111967
 30
0.0
 10
121.489890
 20
154.085811
 30
0.0
 10
122.200006
 20
154.007508
 30
0.0
 10
122.905995
 20
153.889267
 30
0.0
 10
124.314459
 20
153.581815
 30
0.0
 10
125.733011
 20
153.261134
 30
0.0
 10
127.179378
 20
153.024905
 30
0.0
 10
127.918533
 20
152.968985
 30
0.0
 10
128.671288
 20
152.970808
 30
0.0
 10
129.439862
 20
153.042584
 30
0.0
 10
130.226469
 20
153.196523
 30
0.0
 10
131.658282
 20
153.628069
 30
0.0
 10
132.745450
 20
154.072438
 30
0.0
 10
133.731367
 20
154.518167
 30
0.0
 10
134.859432
 20
154.953796
 30
0.0
 10
135.363640
 20
155.078569
 30
0.0
 10
135.883410
 20
155.129903
 30
0.0
 10
136.416407
 20
155.118973
 30
0.0
 10
136.960294
 20
155.056949
 30
0.0
 10
138.071404
 20
154.824315
 30
0.0
 10
139.198058
 20
154.521383
 30
0.0
 10
140.321575
 20
154.237535
 30
0.0
 10
141.423276
 20
154.062153
 30
0.0
 10
141.960107
 20
154.043068
 30
0.0
 10
142.484478
 20
154.084618
 30
0.0
 10
142.994055
 20
154.197976
 30
0.0
 10
143.486502
 20
154.394313
 30
0.0
 10
144.536500
 20
154.943784
 30
0.0
 10
145.899421
 20
155.632751
 30
0.0
 10
146.610348
 20
155.954711
 30
0.0
 10
147.294050
 20
156.221744
 30
0.0
 10
147.915375
 20
156.403915
 30
0.0
 10
148.439172
 20
156.471291
 30
0.0
 10
149.791262
 20
156.397903
 30
0.0
 10
151.313210
 20
156.222693
 30
0.0
 10
149.135587
 20
159.544751
 30
0.0
 10
146.308724
 20
163.653076
 30
0.0
 10
145.409708
 20
163.732901
 30
0.0
 10
144.502652
 20
163.860806
 30
0.0
 10
142.735846
 20
164.190266
 30
0.0
 10
141.151168
 20
164.500281
 30
0.0
 10
140.471770
 20
164.603879
 30
0.0
 10
139.891476
 20
164.649673
 30
0.0
 10
139.891476
 20
164.649673
 30
0.0
  0
ENDSEC
  0
SECTION
  2
OBJECTS
  0
DICTIONARY
  5
C
330
0
100
AcDbDictionary
  3
ACAD_GROUP
350
D
  3
ACAD_MLINESTYLE
350
17
  0
DICTIONARY
  5
D
330
C
100
AcDbDictionary
  0
DICTIONARY
  5
1A
330
C
100
AcDbDictionary
  0
DICTIONARY
  5
17
330
C
100
AcDbDictionary
  3
STANDARD
350
18
  0
DICTIONARY
  5
19
330
C
100
AcDbDictionary
  0
ENDSEC
  0
EOF
