  0
SECTION
  2
HEADER
  9
$ACADVER
  1
AC1014
  9
$HANDSEED
  5
FFFF
  9
$MEASUREMENT
 70
     1
  0
ENDSEC
  0
SECTION
  2
TABLES
  0
TABLE
  2
VPORT
  5
8
330
0
100
AcDbSymbolTable
 70
     4
  0
VPORT
  5
2E
330
8
100
AcDbSymbolTableRecord
100
AcDbViewportTableRecord
  2
*ACTIVE
 70
     0
 10
0.0
 20
0.0
 11
1.0
 21
1.0
 12
210.0
 22
148.5
 13
0.0
 23
0.0
 14
10.0
 24
10.0
 15
10.0
 25
10.0
 16
0.0
 26
0.0
 36
1.0
 17
0.0
 27
0.0
 37
0.0
 40
341.0
 41
1.24
 42
50.0
 43
0.0
 44
0.0
 50
0.0
 51
0.0
 71
     0
 72
   100
 73
     1
 74
     3
 75
     0
 76
     0
 77
     0
 78
     0
  0
ENDTAB
  0
TABLE
  2
LTYPE
  5
5
330
0
100
AcDbSymbolTable
 70
     1
  0
LTYPE
  5
14
330
5
100
AcDbSymbolTableRecord
100
AcDbLinetypeTableRecord
  2
BYBLOCK
 70
     0
  3

 72
    65
 73
     0
 40
0.0
  0
LTYPE
  5
15
330
5
100
AcDbSymbolTableRecord
100
AcDbLinetypeTableRecord
  2
BYLAYER
 70
     0
  3

 72
    65
 73
     0
 40
0.0
  0
LTYPE
  5
16
330
5
100
AcDbSymbolTableRecord
100
AcDbLinetypeTableRecord
  2
CONTINUOUS
 70
     0
  3
Solid line
 72
    65
 73
     0
 40
0.0
  0
ENDTAB
  0
TABLE
  2
LAYER
  5
2
100
AcDbSymbolTable
 70
2
  0
LAYER
  5
50
100
AcDbSymbolTableRecord
100
AcDbLayerTableRecord
  2
0
 70
0
  6
CONTINUOUS
  0
LAYER
  5
51
100
AcDbSymbolTableRecord
100
AcDbLayerTableRecord
  2
Layer_1
 70
0
  6
CONTINUOUS
  0
ENDTAB
  0
TABLE
  2
STYLE
  5
3
330
0
100
AcDbSymbolTable
 70
     1
  0
STYLE
  5
11
330
3
100
AcDbSymbolTableRecord
100
AcDbTextStyleTableRecord
  2
STANDARD
 70
     0
 40
0.0
 41
1.0
 50
0.0
 71
     0
 42
2.5
  3
txt
  4

  0
ENDTAB
  0
TABLE
  2
VIEW
  5
6
330
0
100
AcDbSymbolTable
 70
     0
  0
ENDTAB
  0
TABLE
  2
UCS
  5
7
330
0
100
AcDbSymbolTable
 70
     0
  0
ENDTAB
  0
TABLE
  2
APPID
  5
9
330
0
100
AcDbSymbolTable
 70
     2
  0
APPID
  5
12
330
9
100
AcDbSymbolTableRecord
100
AcDbRegAppTableRecord
  2
ACAD
 70
     0
  0
ENDTAB
  0
TABLE
  2
DIMSTYLE
  5
A
330
0
100
AcDbSymbolTable
 70
     1
  0
DIMSTYLE
105
27
330
A
100
AcDbSymbolTableRecord
100
AcDbDimStyleTableRecord
  2
ISO-25
 70
     0
  3

  4

  5

  6

  7

 40
1.0
 41
2.5
 42
0.625
 43
3.75
 44
1.25
 45
0.0
 46
0.0
 47
0.0
 48
0.0
140
2.5
141
2.5
142
0.0
143
0.03937007874016
144
1.0
145
0.0
146
1.0
147
0.625
 71
     0
 72
     0
 73
     0
 74
     0
 75
     0
 76
     0
 77
     1
 78
     8
170
     0
171
     3
172
     1
173
     0
174
     0
175
     0
176
     0
177
     0
178
     0
270
     2
271
     2
272
     2
273
     2
274
     3
340
11
275
     0
280
     0
281
     0
282
     0
283
     0
284
     8
285
     0
286
     0
287
     3
288
     0
  0
ENDTAB
  0
TABLE
  2
BLOCK_RECORD
  5
1
330
0
100
AcDbSymbolTable
 70
     1
  0
BLOCK_RECORD
  5
1F
330
1
100
AcDbSymbolTableRecord
100
AcDbBlockTableRecord
  2
*MODEL_SPACE
  0
BLOCK_RECORD
  5
1B
330
1
100
AcDbSymbolTableRecord
100
AcDbBlockTableRecord
  2
*PAPER_SPACE
  0
ENDTAB
  0
ENDSEC
  0
SECTION
  2
BLOCKS
  0
BLOCK
  5
20
330
1F
100
AcDbEntity
  8
0
100
AcDbBlockBegin
  2
*MODEL_SPACE
 70
     0
 10
0.0
 20
0.0
 30
0.0
  3
*MODEL_SPACE
  1

  0
ENDBLK
  5
21
330
1F
100
AcDbEntity
  8
0
100
AcDbBlockEnd
  0
BLOCK
  5
1C
330
1B
100
AcDbEntity
 67
     1
  8
0
100
AcDbBlockBegin
  2
*PAPER_SPACE
  1

  0
ENDBLK
  5
1D
330
1B
100
AcDbEntity
 67
     1
  8
0
100
AcDbBlockEnd
  0
ENDSEC
  0
SECTION
  2
ENTITIES
  0
LWPOLYLINE
  5
100
100
AcDbEntity
  8
Layer_1
 62
7
100
AcDbPolyline
 90
123
 70
0
 10
138.248226
 20
126.577371
 30
0.0
 10
137.319900
 20
126.256868
 30
0.0
 10
136.367438
 20
125.883600
 30
0.0
 10
134.418622
 20
125.065739
 30
0.0
 10
132.458799
 20
124.297724
 30
0.0
 10
131.492579
 20
123.986765
 30
0.0
 10
130.544991
 20
123.753495
 30
0.0
 10
129.834153
 20
123.646792
 30
0.0
 10
129.125574
 20
123.605816
 30
0.0
 10
128.418966
 20
123.622028
 30
0.0
 10
127.714044
 20
123.686888
 30
0.0
 10
126.308106
 20
123.928393
 30
0.0
 10
124.905467
 20
124.262016
 30
0.0
 10
123.503832
 20
124.619442
 30
0.0
 10
122.100907
 20
124.932354
 30
0.0
 10
120.694398
 20
125.132437
 30
0.0
 10
119.989082
 20
125.168819
 30
0.0
 10
119.282010
 20
125.151375
 30
0.0
 10
118.577563
 20
125.077137
 30
0.0
 10
117.893849
 20
124.954098
 30
0.0
 10
116.577752
 20
124.587114
 30
0.0
 10
115.311978
 20
124.101409
 30
0.0
 10
114.074787
 20
123.547966
 30
0.0
 10
112.844438
 20
122.977770
 30
0.0
 10
111.599191
 20
122.441806
 30
0.0
 10
110.317305
 20
121.991060
 30
0.0
 10
109.655829
 20
121.813575
 30
0.0
 10
108.977041
 20
121.676514
 30
0.0
 10
107.966095
 20
121.587428
 30
0.0
 10
106.932506
 20
121.633321
 30
0.0
 10
105.886525
 20
121.785821
 30
0.0
 10
104.838402
 20
122.016553
 30
0.0
 10
102.776737
 20
122.599217
 30
0.0
 10
100.829525
 20
123.154323
 30
0.0
 10
100.415428
 20
123.226395
 30
0.0
 10
100.010920
 20
123.237610
 30
0.0
 10
99.615007
 20
123.194885
 30
0.0
 10
99.226694
 20
123.105135
 30
0.0
 10
98.468896
 20
122.812230
 30
0.0
 10
97.729579
 20
122.414224
 30
0.0
 10
96.274587
 20
121.524231
 30
0.0
 10
95.543014
 20
121.142906
 30
0.0
 10
94.798126
 20
120.877803
 30
0.0
 10
94.188466
 20
120.763344
 30
0.0
 10
93.586388
 20
120.716527
 30
0.0
 10
92.992081
 20
120.722145
 30
0.0
 10
92.405732
 20
120.764993
 30
0.0
 10
91.257656
 20
120.901559
 30
0.0
 10
90.143663
 20
121.004583
 30
0.0
 10
88.528133
 20
118.560722
 30
0.0
 10
87.308835
 20
116.578033
 30
0.0
 10
86.465705
 20
115.008764
 30
0.0
 10
86.178934
 20
114.364239
 30
0.0
 10
85.978681
 20
113.805161
 30
0.0
 10
86.515424
 20
113.995416
 30
0.0
 10
87.033800
 20
114.127992
 30
0.0
 10
87.538085
 20
114.209748
 30
0.0
 10
88.032560
 20
114.247541
 30
0.0
 10
89.009192
 20
114.218670
 30
0.0
 10
89.997923
 20
114.096242
 30
0.0
 10
91.032985
 20
113.935121
 30
0.0
 10
92.148605
 20
113.790170
 30
0.0
 10
93.379014
 20
113.716252
 30
0.0
 10
94.758439
 20
113.768230
 30
0.0
 10
95.574401
 20
113.898841
 30
0.0
 10
96.381962
 20
114.125226
 30
0.0
 10
97.181441
 20
114.422918
 30
0.0
 10
97.973156
 20
114.767451
 30
0.0
 10
99.534570
 20
115.499177
 30
0.0
 10
100.304906
 20
115.837438
 30
0.0
 10
101.068753
 20
116.124675
 30
0.0
 10
101.704531
 20
116.296672
 30
0.0
 10
102.379378
 20
116.407226
 30
0.0
 10
103.087584
 20
116.462521
 30
0.0
 10
103.823437
 20
116.468741
 30
0.0
 10
105.355241
 20
116.358695
 30
0.0
 10
106.929103
 20
116.126558
 30
0.0
 10
108.499334
 20
115.821805
 30
0.0
 10
110.020248
 20
115.493907
 30
0.0
 10
111.446154
 20
115.192338
 30
0.0
 10
112.731367
 20
114.966571
 30
0.0
 10
113.321093
 20
114.917698
 30
0.0
 10
113.922199
 20
114.933087
 30
0.0
 10
114.532302
 20
115.005783
 30
0.0
 10
115.149017
 20
115.128834
 30
0.0
 10
116.392743
 20
115.498185
 30
0.0
 10
117.634304
 20
115.985516
 30
0.0
 10
120.034628
 20
117.091611
 30
0.0
 10
121.155241
 20
117.599124
 30
0.0
 10
122.197388
 20
118.002113
 30
0.0
 10
122.803391
 20
118.159859
 30
0.0
 10
123.404158
 20
118.234767
 30
0.0
 10
124.000471
 20
118.238228
 30
0.0
 10
124.593112
 20
118.181629
 30
0.0
 10
125.770507
 20
117.933815
 30
0.0
 10
126.942600
 20
117.582438
 30
0.0
 10
128.115649
 20
117.218616
 30
0.0
 10
129.295909
 20
116.933462
 30
0.0
 10
129.890699
 20
116.848860
 30
0.0
 10
130.489639
 20
116.818093
 30
0.0
 10
131.093510
 20
116.852551
 30
0.0
 10
131.703095
 20
116.963623
 30
0.0
 10
132.092980
 20
117.083804
 30
0.0
 10
132.449542
 20
117.237055
 30
0.0
 10
133.083217
 20
117.623796
 30
0.0
 10
133.645167
 20
118.085899
 30
0.0
 10
134.176437
 20
118.585418
 30
0.0
 10
134.718072
 20
119.084405
 30
0.0
 10
135.311117
 20
119.544913
 30
0.0
 10
135.996617
 20
119.928995
 30
0.0
 10
136.386865
 20
120.080519
 30
0.0
 10
136.815618
 20
120.198705
 30
0.0
 10
137.609348
 20
120.313300
 30
0.0
 10
138.415515
 20
120.326184
 30
0.0
 10
139.225058
 20
120.263996
 30
0.0
 10
140.028917
 20
120.153377
 30
0.0
 10
141.583345
 20
119.893405
 30
0.0
 10
142.315794
 20
119.797331
 30
0.0
 10
143.006318
 20
119.759387
 30
0.0
 10
143.024493
 20
119.767120
 30
0.0
 10
139.038655
 20
125.444635
 30
0.0
 10
138.248212
 20
126.577385
 30
0.0
 10
138.248226
 20
126.577371
 30
0.0
  0
ENDSEC
  0
SECTION
  2
OBJECTS
  0
DICTIONARY
  5
C
330
0
100
AcDbDictionary
  3
ACAD_GROUP
350
D
  3
ACAD_MLINESTYLE
350
17
  0
DICTIONARY
  5
D
330
C
100
AcDbDictionary
  0
DICTIONARY
  5
1A
330
C
100
AcDbDictionary
  0
DICTIONARY
  5
17
330
C
100
AcDbDictionary
  3
STANDARD
350
18
  0
DICTIONARY
  5
19
330
C
100
AcDbDictionary
  0
ENDSEC
  0
EOF
