<?xml version="1.0" encoding="UTF-8" standalone="no"?>
<!-- Created with Inkscape (http://www.inkscape.org/) -->

<svg
   xmlns:dc="http://purl.org/dc/elements/1.1/"
   xmlns:cc="http://creativecommons.org/ns#"
   xmlns:rdf="http://www.w3.org/1999/02/22-rdf-syntax-ns#"
   xmlns:svg="http://www.w3.org/2000/svg"
   xmlns="http://www.w3.org/2000/svg"
   xmlns:sodipodi="http://sodipodi.sourceforge.net/DTD/sodipodi-0.dtd"
   xmlns:inkscape="http://www.inkscape.org/namespaces/inkscape"
   width="210mm"
   height="297mm"
   viewBox="0 0 744.09448819 1052.3622047"
   id="svg4240"
   version="1.1"
   inkscape:version="0.91 r13725"
   sodipodi:docname="white3.svg">
  <defs
     id="defs4242" />
  <sodipodi:namedview
     id="base"
     pagecolor="#ffffff"
     bordercolor="#666666"
     borderopacity="1.0"
     inkscape:pageopacity="0.0"
     inkscape:pageshadow="2"
     inkscape:zoom="0.98994949"
     inkscape:cx="240.41988"
     inkscape:cy="578.41677"
     inkscape:document-units="px"
     inkscape:current-layer="layer1"
     showgrid="false"
     inkscape:window-width="1022"
     inkscape:window-height="1080"
     inkscape:window-x="1017"
     inkscape:window-y="0"
     inkscape:window-maximized="0" />
  <metadata
     id="metadata4245">
    <rdf:RDF>
      <cc:Work
         rdf:about="">
        <dc:format>image/svg+xml</dc:format>
        <dc:type
           rdf:resource="http://purl.org/dc/dcmitype/StillImage" />
        <dc:title></dc:title>
      </cc:Work>
    </rdf:RDF>
  </metadata>
  <g
     inkscape:label="Layer 1"
     inkscape:groupmode="layer"
     id="layer1">
    <path
       inkscape:connector-curvature="0"
       style="fill:#ffffff"
       d="m 427.5935,423.48247 c -8.63512,2.71061 -18.45181,8.23724 -27.29493,10.00586 -13.4563,2.69126 -26.5278,-5.84515 -39.9082,-4.95312 -13.52541,0.90169 -23.50547,10.14447 -36.51367,12.3125 -9.41297,1.56883 -20.06923,-3.03635 -28.86915,-5.23633 -7.9223,-1.98058 -14.24483,6.28484 -21.3711,8.06641 -5.7958,1.44895 -11.3121,-0.23329 -16.49218,-0.44922 -8.60001,12.71038 -13.26651,20.61203 -14.75782,25.50976 10.34369,-4.18356 17.26361,1.38957 31.10938,0.13086 7.75057,-0.70459 15.17158,-5.95367 22.35938,-8.34961 11.60957,-3.86985 29.98908,2.48422 41.32422,4.10352 11.02188,1.57456 24.12475,-7.6171 33.54102,-10.75586 11.50643,-3.83548 22.10301,6.57435 33.68164,3.67969 7.71509,-1.92877 9.61666,-9.57431 18.11524,-11.46289 7.41252,-1.64722 15.63751,1.55664 21.93555,1.55664 0.0175,0 0.0449,-0.0227 0.0644,-0.0274 -3.82808,-5.59935 -8.45114,-12.18724 -14.12305,-20.11718 -1.00621,-1.40681 -1.89615,-2.70337 -2.80078,-4.01368 z"
       id="path3346-1" />
  </g>
</svg>
