<?xml version="1.0" encoding="UTF-8" standalone="no"?>
<!-- Created with Inkscape (http://www.inkscape.org/) -->

<svg
   xmlns:dc="http://purl.org/dc/elements/1.1/"
   xmlns:cc="http://creativecommons.org/ns#"
   xmlns:rdf="http://www.w3.org/1999/02/22-rdf-syntax-ns#"
   xmlns:svg="http://www.w3.org/2000/svg"
   xmlns="http://www.w3.org/2000/svg"
   xmlns:sodipodi="http://sodipodi.sourceforge.net/DTD/sodipodi-0.dtd"
   xmlns:inkscape="http://www.inkscape.org/namespaces/inkscape"
   width="210mm"
   height="297mm"
   viewBox="0 0 744.09448819 1052.3622047"
   id="svg4240"
   version="1.1"
   inkscape:version="0.91 r13725"
   sodipodi:docname="white1.svg">
  <defs
     id="defs4242" />
  <sodipodi:namedview
     id="base"
     pagecolor="#ffffff"
     bordercolor="#666666"
     borderopacity="1.0"
     inkscape:pageopacity="0.0"
     inkscape:pageshadow="2"
     inkscape:zoom="0.98994949"
     inkscape:cx="240.41988"
     inkscape:cy="578.41677"
     inkscape:document-units="px"
     inkscape:current-layer="layer1"
     showgrid="false"
     inkscape:window-width="1022"
     inkscape:window-height="1080"
     inkscape:window-x="1017"
     inkscape:window-y="0"
     inkscape:window-maximized="0" />
  <metadata
     id="metadata4245">
    <rdf:RDF>
      <cc:Work
         rdf:about="">
        <dc:format>image/svg+xml</dc:format>
        <dc:type
           rdf:resource="http://purl.org/dc/dcmitype/StillImage" />
        <dc:title></dc:title>
      </cc:Work>
    </rdf:RDF>
  </metadata>
  <g
     inkscape:label="Layer 1"
     inkscape:groupmode="layer"
     id="layer1">
    <path
       inkscape:connector-curvature="0"
       style="fill:#f2f2f2"
       d="m 435.34961,394.85606 c -4.03681,2.11512 -8.42464,4.1396 -13.04491,5.67969 -6.01542,2.00514 -14.16357,-2.54313 -21.79297,0 -7.02884,2.34295 -14.79135,9.58014 -23.49219,11.32031 -2.12206,0.42441 -7.21303,0.18522 -12.1211,0.16602 -6.28138,9.94697 -10.90625,17.76752 -10.90625,18.9629 0,1.76009 0.97464,3.28164 2.93945,4.59765 9.72761,-2.9052 20.65424,-7.73532 31.12501,-12.9707 7.02995,-3.51497 17.70653,5.04379 26.04102,2.26563 5.09124,-1.69708 20.6251,-8.52079 31.91014,-13.78126 -0.78606,-1.23146 -1.57481,-2.4676 -2.42969,-3.78321 -2.99254,-4.60538 -5.68054,-8.6625 -8.22851,-12.45703 z"
       id="path3346-3" />
  </g>
</svg>
